# MagicaVoxel @ Ephtracy

# group
o 

# material
mtllib Block_StoneRoadinGrass_05.mtl
usemtl palette

# normals
vn -1 0 0
vn 1 0 0
vn 0 0 1
vn 0 0 -1
vn 0 -1 0
vn 0 1 0

# texcoords
vt 0.279297 0.5
vt 0.583984 0.5
vt 0.939453 0.5

# verts
v -3.2 0 3.2
v -3.2 0 -3.2
v -3.2 0.3 3.2
v -3.2 0.3 -3.2
v -3.2 0.4 1.4
v -3.2 0.4 -1.4
v -3.2 0.5 1.2
v -3.2 0.5 -1.2
v -3.2 0.6 3.2
v -3.2 0.6 1.4
v -3.2 0.6 1.2
v -3.2 0.6 -1.2
v -3.2 0.6 -1.4
v -3.2 0.6 -3.2
v -2.6 0.5 1.2
v -2.6 0.5 1.1
v -2.6 0.6 1.2
v -2.6 0.6 1.1
v -2.3 0.5 -1.1
v -2.3 0.5 -1.2
v -2.3 0.6 -1.1
v -2.3 0.6 -1.2
v -1.9 0.5 1.3
v -1.9 0.5 1.2
v -1.9 0.6 1.3
v -1.9 0.6 1.2
v -1.3 0.5 -1.1
v -1.3 0.5 -1.2
v -1.3 0.6 -1.1
v -1.3 0.6 -1.2
v 0.3 0.5 -1.2
v 0.3 0.5 -1.3
v 0.3 0.6 -1.2
v 0.3 0.6 -1.3
v 0.9 0.5 -1.1
v 0.9 0.5 -1.2
v 0.9 0.6 -1.1
v 0.9 0.6 -1.2
v 1.1 0.5 1.8
v 1.1 0.5 1.4
v 1.1 0.5 0.6
v 1.1 0.5 0.3
v 1.1 0.6 1.8
v 1.1 0.6 1.4
v 1.1 0.6 0.6
v 1.1 0.6 0.3
v 1.2 0.5 3.2
v 1.2 0.5 3
v 1.2 0.5 2.6
v 1.2 0.5 1.8
v 1.2 0.5 1.4
v 1.2 0.5 0.6
v 1.2 0.5 0.3
v 1.2 0.5 -1.1
v 1.2 0.6 3.2
v 1.2 0.6 3
v 1.2 0.6 2.6
v 1.2 0.6 1.8
v 1.2 0.6 1.4
v 1.2 0.6 0.6
v 1.2 0.6 0.3
v 1.2 0.6 -1.1
v 1.3 0.5 3
v 1.3 0.5 2.6
v 1.3 0.6 3
v 1.3 0.6 2.6
v -2.4 0.5 1.2
v -2.4 0.5 1.1
v -2.4 0.6 1.2
v -2.4 0.6 1.1
v -2.2 0.5 1.3
v -2.2 0.5 1.2
v -2.2 0.6 1.3
v -2.2 0.6 1.2
v -1.9 0.5 -1.1
v -1.9 0.5 -1.2
v -1.9 0.6 -1.1
v -1.9 0.6 -1.2
v -1.4 0.5 1.3
v -1.4 0.5 1.2
v -1.4 0.6 1.3
v -1.4 0.6 1.2
v -1.3 0.5 2.7
v -1.3 0.5 2.2
v -1.3 0.5 1.4
v -1.3 0.5 1.3
v -1.3 0.6 2.7
v -1.3 0.6 2.2
v -1.3 0.6 1.4
v -1.3 0.6 1.3
v -1.2 0.5 3.2
v -1.2 0.5 2.7
v -1.2 0.5 2.2
v -1.2 0.5 1.4
v -1.2 0.6 3.2
v -1.2 0.6 2.7
v -1.2 0.6 2.2
v -1.2 0.6 1.4
v -1 0.5 -1.1
v -1 0.5 -1.2
v -1 0.6 -1.1
v -1 0.6 -1.2
v -0.0999999 0.5 -1.2
v -0.0999999 0.5 -1.3
v -0.0999999 0.6 -1.2
v -0.0999999 0.6 -1.3
v 3.2 0 3.2
v 3.2 0 -3.2
v 3.2 0.3 3.2
v 3.2 0.3 -3.2
v 3.2 0.6 3.2
v 3.2 0.6 -3.2
v -3.2 0 3.2
v -3.2 0.3 3.2
v -3.2 0.6 3.2
v -1.4 0.4 3.2
v -1.4 0.6 3.2
v -1.2 0.5 3.2
v -1.2 0.6 3.2
v 1.2 0.5 3.2
v 1.2 0.6 3.2
v 1.4 0.4 3.2
v 1.4 0.6 3.2
v 3.2 0 3.2
v 3.2 0.3 3.2
v 3.2 0.6 3.2
v 1.2 0.5 2.6
v 1.2 0.6 2.6
v 1.3 0.5 2.6
v 1.3 0.6 2.6
v -1.3 0.5 2.2
v -1.3 0.6 2.2
v -1.2 0.5 2.2
v -1.2 0.6 2.2
v 1.1 0.5 1.8
v 1.1 0.6 1.8
v 1.2 0.5 1.8
v 1.2 0.6 1.8
v 1.1 0.5 0.6
v 1.1 0.6 0.6
v 1.2 0.5 0.6
v 1.2 0.6 0.6
v -2.3 0.5 -1.1
v -2.3 0.6 -1.1
v -1.9 0.5 -1.1
v -1.9 0.6 -1.1
v -1.3 0.5 -1.1
v -1.3 0.6 -1.1
v -1 0.5 -1.1
v -1 0.6 -1.1
v 0.9 0.5 -1.1
v 0.9 0.6 -1.1
v 1.2 0.5 -1.1
v 1.2 0.6 -1.1
v -3.2 0.5 -1.2
v -3.2 0.6 -1.2
v -2.3 0.5 -1.2
v -2.3 0.6 -1.2
v -1.9 0.5 -1.2
v -1.9 0.6 -1.2
v -1.3 0.5 -1.2
v -1.3 0.6 -1.2
v -1 0.5 -1.2
v -1 0.6 -1.2
v -0.0999999 0.5 -1.2
v -0.0999999 0.6 -1.2
v 0.3 0.5 -1.2
v 0.3 0.6 -1.2
v 0.9 0.5 -1.2
v 0.9 0.6 -1.2
v -0.0999999 0.5 -1.3
v -0.0999999 0.6 -1.3
v 0.3 0.5 -1.3
v 0.3 0.6 -1.3
v 1.2 0.5 3
v 1.2 0.6 3
v 1.3 0.5 3
v 1.3 0.6 3
v -1.3 0.5 2.7
v -1.3 0.6 2.7
v -1.2 0.5 2.7
v -1.2 0.6 2.7
v -1.3 0.5 1.4
v -1.3 0.6 1.4
v -1.2 0.5 1.4
v -1.2 0.6 1.4
v 1.1 0.5 1.4
v 1.1 0.6 1.4
v 1.2 0.5 1.4
v 1.2 0.6 1.4
v -2.2 0.5 1.3
v -2.2 0.6 1.3
v -1.9 0.5 1.3
v -1.9 0.6 1.3
v -1.4 0.5 1.3
v -1.4 0.6 1.3
v -1.3 0.5 1.3
v -1.3 0.6 1.3
v -3.2 0.5 1.2
v -3.2 0.6 1.2
v -2.6 0.5 1.2
v -2.6 0.6 1.2
v -2.4 0.5 1.2
v -2.4 0.6 1.2
v -2.2 0.5 1.2
v -2.2 0.6 1.2
v -1.9 0.5 1.2
v -1.9 0.6 1.2
v -1.4 0.5 1.2
v -1.4 0.6 1.2
v -2.6 0.5 1.1
v -2.6 0.6 1.1
v -2.4 0.5 1.1
v -2.4 0.6 1.1
v 1.1 0.5 0.3
v 1.1 0.6 0.3
v 1.2 0.5 0.3
v 1.2 0.6 0.3
v -3.2 0 -3.2
v -3.2 0.3 -3.2
v -3.2 0.6 -3.2
v 3.2 0 -3.2
v 3.2 0.3 -3.2
v 3.2 0.6 -3.2
v -3.2 0 3.2
v 3.2 0 3.2
v -3.2 0 -3.2
v 3.2 0 -3.2
v -1.2 0.5 3.2
v 1.2 0.5 3.2
v 1.2 0.5 3
v 1.3 0.5 3
v -1.3 0.5 2.7
v -1.2 0.5 2.7
v 1.2 0.5 2.6
v 1.3 0.5 2.6
v -1.3 0.5 2.2
v -1.2 0.5 2.2
v 1.1 0.5 1.8
v 1.2 0.5 1.8
v -1.3 0.5 1.4
v -1.2 0.5 1.4
v 1.1 0.5 1.4
v 1.2 0.5 1.4
v -2.2 0.5 1.3
v -1.9 0.5 1.3
v -1.4 0.5 1.3
v -1.3 0.5 1.3
v -3.2 0.5 1.2
v -2.6 0.5 1.2
v -2.4 0.5 1.2
v -2.2 0.5 1.2
v -1.9 0.5 1.2
v -1.4 0.5 1.2
v -2.6 0.5 1.1
v -2.4 0.5 1.1
v 1.1 0.5 0.6
v 1.2 0.5 0.6
v 1.1 0.5 0.3
v 1.2 0.5 0.3
v -2.3 0.5 -1.1
v -1.9 0.5 -1.1
v -1.3 0.5 -1.1
v -1 0.5 -1.1
v 0.9 0.5 -1.1
v 1.2 0.5 -1.1
v -3.2 0.5 -1.2
v -2.3 0.5 -1.2
v -1.9 0.5 -1.2
v -1.3 0.5 -1.2
v -1 0.5 -1.2
v -0.0999999 0.5 -1.2
v 0.3 0.5 -1.2
v 0.9 0.5 -1.2
v -0.0999999 0.5 -1.3
v 0.3 0.5 -1.3
v -3.2 0.6 3.2
v -1.4 0.6 3.2
v -1.2 0.6 3.2
v 1.2 0.6 3.2
v 1.4 0.6 3.2
v 3.2 0.6 3.2
v 1.2 0.6 3
v 1.3 0.6 3
v -1.3 0.6 2.7
v -1.2 0.6 2.7
v 1.2 0.6 2.6
v 1.3 0.6 2.6
v -1.3 0.6 2.2
v -1.2 0.6 2.2
v 1.1 0.6 1.8
v 1.2 0.6 1.8
v -1.5 0.6 1.5
v -1.4 0.6 1.5
v -3.2 0.6 1.4
v -1.5 0.6 1.4
v -1.3 0.6 1.4
v -1.2 0.6 1.4
v 1.1 0.6 1.4
v 1.2 0.6 1.4
v -2.2 0.6 1.3
v -1.9 0.6 1.3
v -1.4 0.6 1.3
v -1.3 0.6 1.3
v -3.2 0.6 1.2
v -2.6 0.6 1.2
v -2.4 0.6 1.2
v -2.2 0.6 1.2
v -1.9 0.6 1.2
v -1.4 0.6 1.2
v -2.6 0.6 1.1
v -2.4 0.6 1.1
v 1.1 0.6 0.6
v 1.2 0.6 0.6
v 1.1 0.6 0.3
v 1.2 0.6 0.3
v -2.3 0.6 -1.1
v -1.9 0.6 -1.1
v -1.3 0.6 -1.1
v -1 0.6 -1.1
v 0.9 0.6 -1.1
v 1.2 0.6 -1.1
v -3.2 0.6 -1.2
v -2.3 0.6 -1.2
v -1.9 0.6 -1.2
v -1.3 0.6 -1.2
v -1 0.6 -1.2
v -0.0999999 0.6 -1.2
v 0.3 0.6 -1.2
v 0.9 0.6 -1.2
v -0.0999999 0.6 -1.3
v 0.3 0.6 -1.3
v 1.3 0.6 -1.3
v 1.4 0.6 -1.3
v -3.2 0.6 -1.4
v 1.3 0.6 -1.4
v -3.2 0.6 -3.2
v 3.2 0.6 -3.2

# faces
f 3/1/1 2/1/1 1/1/1
f 4/1/1 2/1/1 3/1/1
f 5/2/1 4/2/1 3/2/1
f 6/2/1 4/2/1 5/2/1
f 7/3/1 6/3/1 5/3/1
f 8/3/1 6/3/1 7/3/1
f 9/2/1 5/2/1 3/2/1
f 10/3/1 7/3/1 5/3/1
f 10/2/1 5/2/1 9/2/1
f 11/3/1 7/3/1 10/3/1
f 12/3/1 6/3/1 8/3/1
f 13/2/1 4/2/1 6/2/1
f 13/3/1 6/3/1 12/3/1
f 14/2/1 4/2/1 13/2/1
f 17/3/1 16/3/1 15/3/1
f 18/3/1 16/3/1 17/3/1
f 21/3/1 20/3/1 19/3/1
f 22/3/1 20/3/1 21/3/1
f 25/3/1 24/3/1 23/3/1
f 26/3/1 24/3/1 25/3/1
f 29/3/1 28/3/1 27/3/1
f 30/3/1 28/3/1 29/3/1
f 33/3/1 32/3/1 31/3/1
f 34/3/1 32/3/1 33/3/1
f 37/3/1 36/3/1 35/3/1
f 38/3/1 36/3/1 37/3/1
f 43/3/1 40/3/1 39/3/1
f 44/3/1 40/3/1 43/3/1
f 45/3/1 42/3/1 41/3/1
f 46/3/1 42/3/1 45/3/1
f 55/3/1 48/3/1 47/3/1
f 56/3/1 48/3/1 55/3/1
f 57/3/1 50/3/1 49/3/1
f 58/3/1 50/3/1 57/3/1
f 59/3/1 52/3/1 51/3/1
f 60/3/1 52/3/1 59/3/1
f 61/3/1 54/3/1 53/3/1
f 62/3/1 54/3/1 61/3/1
f 65/3/1 64/3/1 63/3/1
f 66/3/1 64/3/1 65/3/1
f 67/3/2 68/3/2 69/3/2
f 69/3/2 68/3/2 70/3/2
f 71/3/2 72/3/2 73/3/2
f 73/3/2 72/3/2 74/3/2
f 75/3/2 76/3/2 77/3/2
f 77/3/2 76/3/2 78/3/2
f 79/3/2 80/3/2 81/3/2
f 81/3/2 80/3/2 82/3/2
f 83/3/2 84/3/2 87/3/2
f 87/3/2 84/3/2 88/3/2
f 85/3/2 86/3/2 89/3/2
f 89/3/2 86/3/2 90/3/2
f 91/3/2 92/3/2 95/3/2
f 95/3/2 92/3/2 96/3/2
f 93/3/2 94/3/2 97/3/2
f 97/3/2 94/3/2 98/3/2
f 99/3/2 100/3/2 101/3/2
f 101/3/2 100/3/2 102/3/2
f 103/3/2 104/3/2 105/3/2
f 105/3/2 104/3/2 106/3/2
f 107/1/2 108/1/2 109/1/2
f 109/1/2 108/1/2 110/1/2
f 109/2/2 110/2/2 111/2/2
f 111/2/2 110/2/2 112/2/2
f 116/2/3 115/2/3 114/2/3
f 117/2/3 115/2/3 116/2/3
f 118/3/3 117/3/3 116/3/3
f 119/3/3 117/3/3 118/3/3
f 120/3/3 118/3/3 116/3/3
f 122/2/3 116/2/3 114/2/3
f 122/3/3 121/3/3 120/3/3
f 122/3/3 120/3/3 116/3/3
f 123/3/3 121/3/3 122/3/3
f 124/1/3 114/1/3 113/1/3
f 125/2/3 122/2/3 114/2/3
f 125/1/3 114/1/3 124/1/3
f 125/2/3 123/2/3 122/2/3
f 126/2/3 123/2/3 125/2/3
f 129/3/3 128/3/3 127/3/3
f 130/3/3 128/3/3 129/3/3
f 133/3/3 132/3/3 131/3/3
f 134/3/3 132/3/3 133/3/3
f 137/3/3 136/3/3 135/3/3
f 138/3/3 136/3/3 137/3/3
f 141/3/3 140/3/3 139/3/3
f 142/3/3 140/3/3 141/3/3
f 145/3/3 144/3/3 143/3/3
f 146/3/3 144/3/3 145/3/3
f 149/3/3 148/3/3 147/3/3
f 150/3/3 148/3/3 149/3/3
f 153/3/3 152/3/3 151/3/3
f 154/3/3 152/3/3 153/3/3
f 157/3/3 156/3/3 155/3/3
f 158/3/3 156/3/3 157/3/3
f 161/3/3 160/3/3 159/3/3
f 162/3/3 160/3/3 161/3/3
f 165/3/3 164/3/3 163/3/3
f 166/3/3 164/3/3 165/3/3
f 169/3/3 168/3/3 167/3/3
f 170/3/3 168/3/3 169/3/3
f 173/3/3 172/3/3 171/3/3
f 174/3/3 172/3/3 173/3/3
f 175/3/4 176/3/4 177/3/4
f 177/3/4 176/3/4 178/3/4
f 179/3/4 180/3/4 181/3/4
f 181/3/4 180/3/4 182/3/4
f 183/3/4 184/3/4 185/3/4
f 185/3/4 184/3/4 186/3/4
f 187/3/4 188/3/4 189/3/4
f 189/3/4 188/3/4 190/3/4
f 191/3/4 192/3/4 193/3/4
f 193/3/4 192/3/4 194/3/4
f 195/3/4 196/3/4 197/3/4
f 197/3/4 196/3/4 198/3/4
f 199/3/4 200/3/4 201/3/4
f 201/3/4 200/3/4 202/3/4
f 203/3/4 204/3/4 205/3/4
f 205/3/4 204/3/4 206/3/4
f 207/3/4 208/3/4 209/3/4
f 209/3/4 208/3/4 210/3/4
f 211/3/4 212/3/4 213/3/4
f 213/3/4 212/3/4 214/3/4
f 215/3/4 216/3/4 217/3/4
f 217/3/4 216/3/4 218/3/4
f 219/1/4 220/1/4 222/1/4
f 220/2/4 221/2/4 223/2/4
f 222/1/4 220/1/4 223/1/4
f 223/2/4 221/2/4 224/2/4
f 227/1/5 226/1/5 225/1/5
f 228/1/5 226/1/5 227/1/5
f 229/3/6 230/3/6 231/3/6
f 229/3/6 231/3/6 234/3/6
f 231/3/6 232/3/6 234/3/6
f 234/3/6 232/3/6 235/3/6
f 233/3/6 234/3/6 235/3/6
f 235/3/6 232/3/6 236/3/6
f 233/3/6 235/3/6 237/3/6
f 237/3/6 235/3/6 238/3/6
f 238/3/6 235/3/6 239/3/6
f 239/3/6 235/3/6 240/3/6
f 238/3/6 239/3/6 242/3/6
f 242/3/6 239/3/6 243/3/6
f 241/3/6 242/3/6 248/3/6
f 242/3/6 243/3/6 248/3/6
f 243/3/6 244/3/6 248/3/6
f 245/3/6 246/3/6 252/3/6
f 252/3/6 246/3/6 253/3/6
f 247/3/6 248/3/6 254/3/6
f 249/3/6 250/3/6 255/3/6
f 253/3/6 254/3/6 256/3/6
f 252/3/6 253/3/6 256/3/6
f 251/3/6 252/3/6 256/3/6
f 248/3/6 244/3/6 257/3/6
f 255/3/6 256/3/6 257/3/6
f 256/3/6 254/3/6 257/3/6
f 254/3/6 248/3/6 257/3/6
f 257/3/6 244/3/6 258/3/6
f 255/3/6 257/3/6 259/3/6
f 255/3/6 259/3/6 261/3/6
f 259/3/6 260/3/6 261/3/6
f 261/3/6 260/3/6 262/3/6
f 262/3/6 260/3/6 263/3/6
f 263/3/6 260/3/6 264/3/6
f 264/3/6 260/3/6 265/3/6
f 265/3/6 260/3/6 266/3/6
f 249/3/6 255/3/6 267/3/6
f 255/3/6 261/3/6 267/3/6
f 267/3/6 261/3/6 268/3/6
f 262/3/6 263/3/6 269/3/6
f 269/3/6 263/3/6 270/3/6
f 264/3/6 265/3/6 271/3/6
f 271/3/6 265/3/6 272/3/6
f 272/3/6 265/3/6 273/3/6
f 273/3/6 265/3/6 274/3/6
f 272/3/6 273/3/6 275/3/6
f 275/3/6 273/3/6 276/3/6
f 280/3/6 281/3/6 283/3/6
f 283/3/6 281/3/6 284/3/6
f 278/3/6 279/3/6 285/3/6
f 285/3/6 279/3/6 286/3/6
f 284/3/6 281/3/6 288/3/6
f 278/3/6 285/3/6 289/3/6
f 287/3/6 288/3/6 292/3/6
f 277/2/6 278/2/6 293/2/6
f 289/3/6 290/3/6 294/3/6
f 293/2/6 278/2/6 294/2/6
f 278/3/6 289/3/6 294/3/6
f 277/2/6 293/2/6 295/2/6
f 293/3/6 294/3/6 296/3/6
f 295/2/6 293/2/6 296/2/6
f 294/3/6 290/3/6 297/3/6
f 296/3/6 294/3/6 297/3/6
f 297/3/6 290/3/6 298/3/6
f 291/3/6 292/3/6 299/3/6
f 292/3/6 288/3/6 300/3/6
f 299/3/6 292/3/6 300/3/6
f 295/3/6 296/3/6 301/3/6
f 296/3/6 297/3/6 301/3/6
f 301/3/6 297/3/6 302/3/6
f 302/3/6 297/3/6 303/3/6
f 303/3/6 297/3/6 304/3/6
f 295/3/6 301/3/6 305/3/6
f 305/3/6 301/3/6 306/3/6
f 306/3/6 301/3/6 307/3/6
f 307/3/6 301/3/6 308/3/6
f 302/3/6 303/3/6 309/3/6
f 309/3/6 303/3/6 310/3/6
f 306/3/6 307/3/6 311/3/6
f 311/3/6 307/3/6 312/3/6
f 300/3/6 288/3/6 314/3/6
f 313/3/6 314/3/6 315/3/6
f 314/3/6 288/3/6 316/3/6
f 315/3/6 314/3/6 316/3/6
f 316/3/6 288/3/6 322/3/6
f 317/3/6 318/3/6 324/3/6
f 324/3/6 318/3/6 325/3/6
f 319/3/6 320/3/6 326/3/6
f 326/3/6 320/3/6 327/3/6
f 321/3/6 322/3/6 330/3/6
f 324/3/6 325/3/6 331/3/6
f 327/3/6 328/3/6 331/3/6
f 323/3/6 324/3/6 331/3/6
f 325/3/6 326/3/6 331/3/6
f 326/3/6 327/3/6 331/3/6
f 329/3/6 330/3/6 332/3/6
f 288/3/6 281/3/6 333/3/6
f 330/3/6 322/3/6 333/3/6
f 332/3/6 330/3/6 333/3/6
f 322/3/6 288/3/6 333/3/6
f 281/2/6 282/2/6 334/2/6
f 333/3/6 281/3/6 334/3/6
f 332/3/6 333/3/6 335/3/6
f 331/3/6 332/3/6 335/3/6
f 323/3/6 331/3/6 335/3/6
f 333/2/6 334/2/6 336/2/6
f 335/3/6 333/3/6 336/3/6
f 335/2/6 336/2/6 337/2/6
f 334/2/6 282/2/6 338/2/6
f 337/2/6 336/2/6 338/2/6
f 336/2/6 334/2/6 338/2/6
