# MagicaVoxel @ Ephtracy

# group
o 

# material
mtllib Block_WoodRoadGrass_01.mtl
usemtl palette

# normals
vn -1 0 0
vn 1 0 0
vn 0 0 1
vn 0 0 -1
vn 0 -1 0
vn 0 1 0

# texcoords
vt 0.279297 0.5
vt 0.572266 0.5
vt 0.583984 0.5

# verts
v -3.2 0 3.2
v -3.2 0 -3.2
v -3.2 0.3 3.2
v -3.2 0.3 -3.2
v -3.2 0.6 3.2
v -3.2 0.6 -3.2
v 3.2 0 3.2
v 3.2 0 -3.2
v 3.2 0.3 3.2
v 3.2 0.3 -3.2
v 3.2 0.5 0.4
v 3.2 0.5 -0.4
v 3.2 0.6 3.2
v 3.2 0.6 0.4
v 3.2 0.6 -0.4
v 3.2 0.6 -3.2
v -3.2 0 3.2
v -3.2 0.3 3.2
v -3.2 0.6 3.2
v -0.4 0.5 3.2
v -0.4 0.6 3.2
v 0.4 0.5 3.2
v 0.4 0.6 3.2
v 3.2 0 3.2
v 3.2 0.3 3.2
v 3.2 0.6 3.2
v -3.2 0 -3.2
v -3.2 0.3 -3.2
v -3.2 0.6 -3.2
v 3.2 0 -3.2
v 3.2 0.3 -3.2
v 3.2 0.6 -3.2
v -3.2 0 3.2
v 3.2 0 3.2
v -3.2 0 -3.2
v 3.2 0 -3.2
v -3.2 0.6 3.2
v -0.4 0.6 3.2
v 0.4 0.6 3.2
v 3.2 0.6 3.2
v 0.4 0.6 3
v 0.5 0.6 3
v 0.5 0.6 2.8
v 0.6 0.6 2.8
v -0.4 0.6 2.6
v -0.3 0.6 2.6
v 0.6 0.6 2.6
v 0.7 0.6 2.6
v -0.3 0.6 2.3
v -0.2 0.6 2.3
v 0.7 0.6 2.3
v 0.8 0.6 2.3
v -0.2 0.6 1.9
v -0.0999999 0.6 1.9
v -0.2 0.6 1.6
v -0.0999999 0.6 1.6
v 0.7 0.6 1.4
v 0.8 0.6 1.4
v -0.3 0.6 1.3
v -0.2 0.6 1.3
v -0.4 0.6 1
v -0.3 0.6 1
v 0.6 0.6 1
v 0.7 0.6 1
v -0.5 0.6 0.9
v -0.4 0.6 0.9
v -0.6 0.6 0.8
v -0.5 0.6 0.8
v -0.7 0.6 0.7
v -0.6 0.6 0.7
v 0.5 0.6 0.7
v 0.6 0.6 0.7
v -0.8 0.6 0.6
v -0.7 0.6 0.6
v -0.9 0.6 0.5
v -0.8 0.6 0.5
v 0.4 0.6 0.5
v 0.5 0.6 0.5
v 0.3 0.6 0.4
v 0.4 0.6 0.4
v 2.3 0.6 0.4
v 3.2 0.6 0.4
v -1 0.6 0.3
v -0.9 0.6 0.3
v 2.1 0.6 0.3
v 2.3 0.6 0.3
v 0.2 0.6 0.2
v 0.3 0.6 0.2
v 2 0.6 0.2
v 2.1 0.6 0.2
v 0.1 0.6 0.0999999
v 0.2 0.6 0.0999999
v 1.9 0.6 0.0999999
v 2 0.6 0.0999999
v 1.8 0.6 0
v 1.9 0.6 0
v -1.1 0.6 -0.1
v -1 0.6 -0.1
v 1.7 0.6 -0.1
v 1.8 0.6 -0.1
v 0 0.6 -0.2
v 0.1 0.6 -0.2
v 1.6 0.6 -0.3
v 1.7 0.6 -0.3
v 1.5 0.6 -0.4
v 1.6 0.6 -0.4
v 3.1 0.6 -0.4
v 3.2 0.6 -0.4
v -1.1 0.6 -0.5
v -1 0.6 -0.5
v 1.4 0.6 -0.5
v 1.5 0.6 -0.5
v 2.7 0.6 -0.5
v 3.1 0.6 -0.5
v 1.3 0.6 -0.6
v 1.4 0.6 -0.6
v 2.6 0.6 -0.6
v 2.7 0.6 -0.6
v 0 0.6 -0.7
v 0.1 0.6 -0.7
v 2.5 0.6 -0.7
v 2.6 0.6 -0.7
v 0.1 0.6 -0.8
v 0.2 0.6 -0.8
v 1.2 0.6 -0.8
v 1.3 0.6 -0.8
v 2.4 0.6 -0.8
v 2.5 0.6 -0.8
v 0.2 0.6 -0.9
v 0.3 0.6 -0.9
v 1 0.6 -0.9
v 1.2 0.6 -0.9
v 2.3 0.6 -0.9
v 2.4 0.6 -0.9
v -1 0.6 -1
v -0.9 0.6 -1
v 0.3 0.6 -1
v 0.4 0.6 -1
v 0.9 0.6 -1
v 1 0.6 -1
v 2.2 0.6 -1
v 2.3 0.6 -1
v 0.4 0.6 -1.1
v 0.9 0.6 -1.1
v -0.9 0.6 -1.2
v -0.8 0.6 -1.2
v 2.1 0.6 -1.2
v 2.2 0.6 -1.2
v -0.8 0.6 -1.3
v -0.7 0.6 -1.3
v 2 0.6 -1.3
v 2.1 0.6 -1.3
v -0.7 0.6 -1.4
v -0.6 0.6 -1.4
v 1.9 0.6 -1.4
v 2 0.6 -1.4
v -0.6 0.6 -1.5
v -0.5 0.6 -1.5
v 1.7 0.6 -1.5
v 1.9 0.6 -1.5
v -0.5 0.6 -1.6
v -0.4 0.6 -1.6
v 1.6 0.6 -1.6
v 1.7 0.6 -1.6
v -0.4 0.6 -1.7
v -0.3 0.6 -1.7
v 1.4 0.6 -1.7
v 1.6 0.6 -1.7
v -0.3 0.6 -1.8
v 0 0.6 -1.8
v 1.2 0.6 -1.8
v 1.4 0.6 -1.8
v 0 0.6 -1.9
v 1.2 0.6 -1.9
v -3.2 0.6 -3.2
v 3.2 0.6 -3.2

# faces
f 3/1/1 2/1/1 1/1/1
f 4/1/1 2/1/1 3/1/1
f 5/3/1 4/3/1 3/3/1
f 6/3/1 4/3/1 5/3/1
f 7/1/2 8/1/2 9/1/2
f 9/1/2 8/1/2 10/1/2
f 9/3/2 10/3/2 11/3/2
f 11/3/2 10/3/2 12/3/2
f 9/3/2 11/3/2 13/3/2
f 11/2/2 12/2/2 14/2/2
f 13/3/2 11/3/2 14/3/2
f 12/3/2 10/3/2 15/3/2
f 14/2/2 12/2/2 15/2/2
f 15/3/2 10/3/2 16/3/2
f 20/3/3 19/3/3 18/3/3
f 21/3/3 19/3/3 20/3/3
f 22/3/3 20/3/3 18/3/3
f 22/2/3 21/2/3 20/2/3
f 23/2/3 21/2/3 22/2/3
f 24/1/3 18/1/3 17/1/3
f 25/3/3 22/3/3 18/3/3
f 25/1/3 18/1/3 24/1/3
f 25/3/3 23/3/3 22/3/3
f 26/3/3 23/3/3 25/3/3
f 27/1/4 28/1/4 30/1/4
f 28/3/4 29/3/4 31/3/4
f 30/1/4 28/1/4 31/1/4
f 31/3/4 29/3/4 32/3/4
f 35/1/5 34/1/5 33/1/5
f 36/1/5 34/1/5 35/1/5
f 38/2/6 39/2/6 41/2/6
f 39/3/6 40/3/6 41/3/6
f 41/3/6 40/3/6 42/3/6
f 41/2/6 42/2/6 43/2/6
f 42/3/6 40/3/6 43/3/6
f 43/3/6 40/3/6 44/3/6
f 37/3/6 38/3/6 45/3/6
f 38/2/6 41/2/6 45/2/6
f 43/2/6 44/2/6 45/2/6
f 41/2/6 43/2/6 45/2/6
f 45/2/6 44/2/6 46/2/6
f 44/3/6 40/3/6 47/3/6
f 46/2/6 44/2/6 47/2/6
f 47/3/6 40/3/6 48/3/6
f 45/3/6 46/3/6 49/3/6
f 46/2/6 47/2/6 49/2/6
f 47/2/6 48/2/6 49/2/6
f 49/2/6 48/2/6 50/2/6
f 48/3/6 40/3/6 51/3/6
f 50/2/6 48/2/6 51/2/6
f 51/3/6 40/3/6 52/3/6
f 49/3/6 50/3/6 53/3/6
f 50/2/6 51/2/6 53/2/6
f 51/2/6 52/2/6 53/2/6
f 53/2/6 52/2/6 54/2/6
f 49/3/6 53/3/6 55/3/6
f 53/3/6 54/3/6 55/3/6
f 54/2/6 52/2/6 56/2/6
f 55/3/6 54/3/6 56/3/6
f 55/2/6 56/2/6 57/2/6
f 56/2/6 52/2/6 57/2/6
f 52/3/6 40/3/6 58/3/6
f 57/2/6 52/2/6 58/2/6
f 45/3/6 49/3/6 59/3/6
f 49/3/6 55/3/6 59/3/6
f 55/2/6 57/2/6 60/2/6
f 59/3/6 55/3/6 60/3/6
f 45/3/6 59/3/6 61/3/6
f 37/3/6 45/3/6 61/3/6
f 59/2/6 60/2/6 62/2/6
f 61/3/6 59/3/6 62/3/6
f 60/2/6 57/2/6 63/2/6
f 62/2/6 60/2/6 63/2/6
f 57/3/6 58/3/6 64/3/6
f 63/2/6 57/2/6 64/2/6
f 37/3/6 61/3/6 65/3/6
f 61/2/6 62/2/6 66/2/6
f 65/3/6 61/3/6 66/3/6
f 62/2/6 63/2/6 66/2/6
f 37/3/6 65/3/6 67/3/6
f 65/2/6 66/2/6 68/2/6
f 67/3/6 65/3/6 68/3/6
f 37/3/6 67/3/6 69/3/6
f 67/2/6 68/2/6 70/2/6
f 69/3/6 67/3/6 70/3/6
f 66/2/6 63/2/6 71/2/6
f 70/2/6 68/2/6 71/2/6
f 68/2/6 66/2/6 71/2/6
f 63/3/6 64/3/6 72/3/6
f 71/2/6 63/2/6 72/2/6
f 37/3/6 69/3/6 73/3/6
f 69/2/6 70/2/6 74/2/6
f 73/3/6 69/3/6 74/3/6
f 70/2/6 71/2/6 74/2/6
f 37/3/6 73/3/6 75/3/6
f 73/2/6 74/2/6 76/2/6
f 75/3/6 73/3/6 76/3/6
f 74/2/6 71/2/6 77/2/6
f 76/2/6 74/2/6 77/2/6
f 71/3/6 72/3/6 78/3/6
f 77/2/6 71/2/6 78/2/6
f 75/2/6 76/2/6 79/2/6
f 76/2/6 77/2/6 79/2/6
f 77/3/6 78/3/6 80/3/6
f 79/2/6 77/2/6 80/2/6
f 78/3/6 72/3/6 81/3/6
f 80/3/6 78/3/6 81/3/6
f 64/3/6 58/3/6 81/3/6
f 58/3/6 40/3/6 81/3/6
f 72/3/6 64/3/6 81/3/6
f 81/3/6 40/3/6 82/3/6
f 37/3/6 75/3/6 83/3/6
f 75/2/6 79/2/6 84/2/6
f 83/3/6 75/3/6 84/3/6
f 79/3/6 80/3/6 85/3/6
f 80/3/6 81/3/6 85/3/6
f 81/2/6 82/2/6 86/2/6
f 85/3/6 81/3/6 86/3/6
f 84/2/6 79/2/6 87/2/6
f 83/2/6 84/2/6 87/2/6
f 79/3/6 85/3/6 88/3/6
f 87/2/6 79/2/6 88/2/6
f 88/3/6 85/3/6 89/3/6
f 85/2/6 86/2/6 90/2/6
f 89/3/6 85/3/6 90/3/6
f 83/2/6 87/2/6 91/2/6
f 88/3/6 89/3/6 92/3/6
f 91/2/6 87/2/6 92/2/6
f 87/3/6 88/3/6 92/3/6
f 92/3/6 89/3/6 93/3/6
f 89/2/6 90/2/6 94/2/6
f 93/3/6 89/3/6 94/3/6
f 92/3/6 93/3/6 95/3/6
f 91/3/6 92/3/6 95/3/6
f 93/2/6 94/2/6 96/2/6
f 95/3/6 93/3/6 96/3/6
f 37/3/6 83/3/6 97/3/6
f 83/2/6 91/2/6 98/2/6
f 97/3/6 83/3/6 98/3/6
f 91/3/6 95/3/6 99/3/6
f 95/2/6 96/2/6 100/2/6
f 99/3/6 95/3/6 100/3/6
f 98/2/6 91/2/6 101/2/6
f 97/2/6 98/2/6 101/2/6
f 91/3/6 99/3/6 102/3/6
f 101/2/6 91/2/6 102/2/6
f 101/3/6 102/3/6 103/3/6
f 102/3/6 99/3/6 103/3/6
f 99/2/6 100/2/6 104/2/6
f 103/3/6 99/3/6 104/3/6
f 101/3/6 103/3/6 105/3/6
f 103/2/6 104/2/6 106/2/6
f 105/3/6 103/3/6 106/3/6
f 86/2/6 82/2/6 107/2/6
f 106/2/6 104/2/6 107/2/6
f 96/2/6 94/2/6 107/2/6
f 90/2/6 86/2/6 107/2/6
f 104/2/6 100/2/6 107/2/6
f 94/2/6 90/2/6 107/2/6
f 100/2/6 96/2/6 107/2/6
f 107/2/6 82/2/6 108/2/6
f 37/3/6 97/3/6 109/3/6
f 97/2/6 101/2/6 109/2/6
f 109/2/6 101/2/6 110/2/6
f 101/3/6 105/3/6 111/3/6
f 105/2/6 106/2/6 112/2/6
f 111/3/6 105/3/6 112/3/6
f 106/2/6 107/2/6 112/2/6
f 112/2/6 107/2/6 113/2/6
f 107/3/6 108/3/6 114/3/6
f 113/2/6 107/2/6 114/2/6
f 101/3/6 111/3/6 115/3/6
f 112/2/6 113/2/6 116/2/6
f 115/3/6 111/3/6 116/3/6
f 111/2/6 112/2/6 116/2/6
f 116/2/6 113/2/6 117/2/6
f 113/3/6 114/3/6 118/3/6
f 117/2/6 113/2/6 118/2/6
f 110/2/6 101/2/6 119/2/6
f 101/3/6 115/3/6 119/3/6
f 119/3/6 115/3/6 120/3/6
f 116/2/6 117/2/6 121/2/6
f 115/2/6 116/2/6 121/2/6
f 117/3/6 118/3/6 122/3/6
f 121/2/6 117/2/6 122/2/6
f 120/3/6 115/3/6 123/3/6
f 119/2/6 120/2/6 123/2/6
f 123/3/6 115/3/6 124/3/6
f 124/3/6 115/3/6 125/3/6
f 115/2/6 121/2/6 126/2/6
f 125/3/6 115/3/6 126/3/6
f 126/2/6 121/2/6 127/2/6
f 121/3/6 122/3/6 128/3/6
f 127/2/6 121/2/6 128/2/6
f 124/3/6 125/3/6 129/3/6
f 123/2/6 124/2/6 129/2/6
f 129/3/6 125/3/6 130/3/6
f 130/3/6 125/3/6 131/3/6
f 126/2/6 127/2/6 132/2/6
f 131/3/6 125/3/6 132/3/6
f 125/2/6 126/2/6 132/2/6
f 132/2/6 127/2/6 133/2/6
f 127/3/6 128/3/6 134/3/6
f 133/2/6 127/2/6 134/2/6
f 109/3/6 110/3/6 135/3/6
f 110/2/6 119/2/6 135/2/6
f 119/2/6 123/2/6 135/2/6
f 129/2/6 130/2/6 135/2/6
f 123/2/6 129/2/6 135/2/6
f 135/2/6 130/2/6 136/2/6
f 130/3/6 131/3/6 137/3/6
f 136/2/6 130/2/6 137/2/6
f 137/3/6 131/3/6 138/3/6
f 138/3/6 131/3/6 139/3/6
f 131/2/6 132/2/6 140/2/6
f 139/3/6 131/3/6 140/3/6
f 132/2/6 133/2/6 140/2/6
f 140/2/6 133/2/6 141/2/6
f 133/3/6 134/3/6 142/3/6
f 141/2/6 133/2/6 142/2/6
f 138/3/6 139/3/6 143/3/6
f 137/2/6 138/2/6 143/2/6
f 136/2/6 137/2/6 143/2/6
f 140/2/6 141/2/6 144/2/6
f 143/3/6 139/3/6 144/3/6
f 139/2/6 140/2/6 144/2/6
f 135/3/6 136/3/6 145/3/6
f 136/2/6 143/2/6 145/2/6
f 143/2/6 144/2/6 145/2/6
f 145/2/6 144/2/6 146/2/6
f 144/2/6 141/2/6 147/2/6
f 146/2/6 144/2/6 147/2/6
f 141/3/6 142/3/6 148/3/6
f 147/2/6 141/2/6 148/2/6
f 145/3/6 146/3/6 149/3/6
f 146/2/6 147/2/6 149/2/6
f 149/2/6 147/2/6 150/2/6
f 150/2/6 147/2/6 151/2/6
f 147/3/6 148/3/6 152/3/6
f 151/2/6 147/2/6 152/2/6
f 150/2/6 151/2/6 153/2/6
f 149/3/6 150/3/6 153/3/6
f 153/2/6 151/2/6 154/2/6
f 154/2/6 151/2/6 155/2/6
f 151/3/6 152/3/6 156/3/6
f 155/2/6 151/2/6 156/2/6
f 154/2/6 155/2/6 157/2/6
f 153/3/6 154/3/6 157/3/6
f 157/2/6 155/2/6 158/2/6
f 158/2/6 155/2/6 159/2/6
f 155/3/6 156/3/6 160/3/6
f 159/2/6 155/2/6 160/2/6
f 158/2/6 159/2/6 161/2/6
f 157/3/6 158/3/6 161/3/6
f 161/2/6 159/2/6 162/2/6
f 162/2/6 159/2/6 163/2/6
f 159/3/6 160/3/6 164/3/6
f 163/2/6 159/2/6 164/2/6
f 162/2/6 163/2/6 165/2/6
f 161/3/6 162/3/6 165/3/6
f 165/2/6 163/2/6 166/2/6
f 166/2/6 163/2/6 167/2/6
f 163/3/6 164/3/6 168/3/6
f 167/2/6 163/2/6 168/2/6
f 166/2/6 167/2/6 169/2/6
f 165/3/6 166/3/6 169/3/6
f 169/2/6 167/2/6 170/2/6
f 170/2/6 167/2/6 171/2/6
f 167/3/6 168/3/6 172/3/6
f 171/2/6 167/2/6 172/2/6
f 170/2/6 171/2/6 173/2/6
f 169/3/6 170/3/6 173/3/6
f 171/3/6 172/3/6 174/3/6
f 173/2/6 171/2/6 174/2/6
f 37/3/6 109/3/6 175/3/6
f 109/3/6 135/3/6 175/3/6
f 173/3/6 174/3/6 175/3/6
f 169/3/6 173/3/6 175/3/6
f 165/3/6 169/3/6 175/3/6
f 135/3/6 145/3/6 175/3/6
f 161/3/6 165/3/6 175/3/6
f 145/3/6 149/3/6 175/3/6
f 157/3/6 161/3/6 175/3/6
f 149/3/6 153/3/6 175/3/6
f 153/3/6 157/3/6 175/3/6
f 114/3/6 108/3/6 176/3/6
f 175/3/6 174/3/6 176/3/6
f 118/3/6 114/3/6 176/3/6
f 160/3/6 156/3/6 176/3/6
f 156/3/6 152/3/6 176/3/6
f 164/3/6 160/3/6 176/3/6
f 168/3/6 164/3/6 176/3/6
f 152/3/6 148/3/6 176/3/6
f 142/3/6 134/3/6 176/3/6
f 172/3/6 168/3/6 176/3/6
f 148/3/6 142/3/6 176/3/6
f 122/3/6 118/3/6 176/3/6
f 174/3/6 172/3/6 176/3/6
f 134/3/6 128/3/6 176/3/6
f 128/3/6 122/3/6 176/3/6
