# MagicaVoxel @ Ephtracy

# group
o 

# material
mtllib Nature_Flowers_02.mtl
usemtl palette

# normals
vn -1 0 0
vn 1 0 0
vn 0 0 1
vn 0 0 -1
vn 0 -1 0
vn 0 1 0

# texcoords
vt 0.146484 0.5
vt 0.404297 0.5
vt 0.556641 0.5

# verts
v -0.3 0 0.2
v -0.3 0 0.1
v -0.3 0.1 0.2
v -0.3 0.1 0.1
v -0.3 0.2 0.2
v -0.3 0.2 0.1
v -0.1 0 -0.2
v -0.1 0 -0.3
v -0.1 0.1 -0.2
v -0.1 0.1 -0.3
v -0.1 0.2 -0.2
v -0.1 0.2 -0.3
v 0.1 0 0.2
v 0.1 0 0.1
v 0.1 0.2 0.2
v 0.1 0.2 0.1
v 0.1 0.3 0.2
v 0.1 0.3 0.1
v -0.2 0 0.2
v -0.2 0 0.1
v -0.2 0.1 0.2
v -0.2 0.1 0.1
v -0.2 0.2 0.2
v -0.2 0.2 0.1
v 0 0 -0.2
v 0 0 -0.3
v 0 0.1 -0.2
v 0 0.1 -0.3
v 0 0.2 -0.2
v 0 0.2 -0.3
v 0.2 0 0.2
v 0.2 0 0.1
v 0.2 0.2 0.2
v 0.2 0.2 0.1
v 0.2 0.3 0.2
v 0.2 0.3 0.1
v -0.3 0 0.2
v -0.3 0.1 0.2
v -0.3 0.2 0.2
v -0.2 0 0.2
v -0.2 0.1 0.2
v -0.2 0.2 0.2
v 0.1 0 0.2
v 0.1 0.2 0.2
v 0.1 0.3 0.2
v 0.2 0 0.2
v 0.2 0.2 0.2
v 0.2 0.3 0.2
v -0.1 0 -0.2
v -0.1 0.1 -0.2
v -0.1 0.2 -0.2
v 0 0 -0.2
v 0 0.1 -0.2
v 0 0.2 -0.2
v -0.3 0 0.1
v -0.3 0.1 0.1
v -0.3 0.2 0.1
v -0.2 0 0.1
v -0.2 0.1 0.1
v -0.2 0.2 0.1
v 0.1 0 0.1
v 0.1 0.2 0.1
v 0.1 0.3 0.1
v 0.2 0 0.1
v 0.2 0.2 0.1
v 0.2 0.3 0.1
v -0.1 0 -0.3
v -0.1 0.1 -0.3
v -0.1 0.2 -0.3
v 0 0 -0.3
v 0 0.1 -0.3
v 0 0.2 -0.3
v -0.3 0 0.2
v -0.2 0 0.2
v 0.1 0 0.2
v 0.2 0 0.2
v -0.3 0 0.1
v -0.2 0 0.1
v 0.1 0 0.1
v 0.2 0 0.1
v -0.1 0 -0.2
v 0 0 -0.2
v -0.1 0 -0.3
v 0 0 -0.3
v -0.3 0.2 0.2
v -0.2 0.2 0.2
v -0.3 0.2 0.1
v -0.2 0.2 0.1
v -0.1 0.2 -0.2
v 0 0.2 -0.2
v -0.1 0.2 -0.3
v 0 0.2 -0.3
v 0.1 0.3 0.2
v 0.2 0.3 0.2
v 0.1 0.3 0.1
v 0.2 0.3 0.1

# faces
f 3/3/1 2/3/1 1/3/1
f 4/3/1 2/3/1 3/3/1
f 5/2/1 4/2/1 3/2/1
f 6/2/1 4/2/1 5/2/1
f 9/3/1 8/3/1 7/3/1
f 10/3/1 8/3/1 9/3/1
f 11/1/1 10/1/1 9/1/1
f 12/1/1 10/1/1 11/1/1
f 15/3/1 14/3/1 13/3/1
f 16/3/1 14/3/1 15/3/1
f 17/2/1 16/2/1 15/2/1
f 18/2/1 16/2/1 17/2/1
f 19/3/2 20/3/2 21/3/2
f 21/3/2 20/3/2 22/3/2
f 21/2/2 22/2/2 23/2/2
f 23/2/2 22/2/2 24/2/2
f 25/3/2 26/3/2 27/3/2
f 27/3/2 26/3/2 28/3/2
f 27/1/2 28/1/2 29/1/2
f 29/1/2 28/1/2 30/1/2
f 31/3/2 32/3/2 33/3/2
f 33/3/2 32/3/2 34/3/2
f 33/2/2 34/2/2 35/2/2
f 35/2/2 34/2/2 36/2/2
f 40/3/3 38/3/3 37/3/3
f 41/2/3 39/2/3 38/2/3
f 41/3/3 38/3/3 40/3/3
f 42/2/3 39/2/3 41/2/3
f 46/3/3 44/3/3 43/3/3
f 47/2/3 45/2/3 44/2/3
f 47/3/3 44/3/3 46/3/3
f 48/2/3 45/2/3 47/2/3
f 52/3/3 50/3/3 49/3/3
f 53/1/3 51/1/3 50/1/3
f 53/3/3 50/3/3 52/3/3
f 54/1/3 51/1/3 53/1/3
f 55/3/4 56/3/4 58/3/4
f 56/2/4 57/2/4 59/2/4
f 58/3/4 56/3/4 59/3/4
f 59/2/4 57/2/4 60/2/4
f 61/3/4 62/3/4 64/3/4
f 62/2/4 63/2/4 65/2/4
f 64/3/4 62/3/4 65/3/4
f 65/2/4 63/2/4 66/2/4
f 67/3/4 68/3/4 70/3/4
f 68/1/4 69/1/4 71/1/4
f 70/3/4 68/3/4 71/3/4
f 71/1/4 69/1/4 72/1/4
f 77/3/5 74/3/5 73/3/5
f 78/3/5 74/3/5 77/3/5
f 79/3/5 76/3/5 75/3/5
f 80/3/5 76/3/5 79/3/5
f 83/3/5 82/3/5 81/3/5
f 84/3/5 82/3/5 83/3/5
f 85/2/6 86/2/6 87/2/6
f 87/2/6 86/2/6 88/2/6
f 89/1/6 90/1/6 91/1/6
f 91/1/6 90/1/6 92/1/6
f 93/2/6 94/2/6 95/2/6
f 95/2/6 94/2/6 96/2/6
