# MagicaVoxel @ Ephtracy

# group
o 

# material
mtllib Building_Castle_02.mtl
usemtl palette

# normals
vn -1 0 0
vn 1 0 0
vn 0 0 1
vn 0 0 -1
vn 0 -1 0
vn 0 1 0

# texcoords
vt 0.958984 0.5
vt 0.982422 0.5

# verts
v -0.4 0 0.4
v -0.4 0 -0.4
v -0.4 0.2 0.4
v -0.4 0.2 0.2
v -0.4 0.3 0.3
v -0.4 0.3 0.2
v -0.4 0.5 0.3
v -0.4 0.5 0.2
v -0.4 2.8 0.4
v -0.4 2.8 0.2
v -0.4 4 0.4
v -0.4 4 -0.4
v -0.2 4 0.2
v -0.2 4 -0.2
v -0.2 4.1 0.2
v -0.2 4.1 -0.2
v -0.1 4.1 0.1
v -0.1 4.1 -0.1
v -0.1 4.2 0.1
v -0.1 4.2 -0.1
v -0.3 0.3 0.3
v -0.3 0.3 0.2
v -0.3 0.5 0.3
v -0.3 0.5 0.2
v 0 0.2 0.2
v 0 0.2 0
v 0 2.8 0.4
v 0 2.8 0.2
v 0 2.9 0.2
v 0 2.9 0
v 0 4 0.4
v 0 4 0.2
v 0.1 4.1 0.1
v 0.1 4.1 -0.1
v 0.1 4.2 0.1
v 0.1 4.2 -0.1
v 0.2 0 0.4
v 0.2 0 0.2
v 0.2 0.2 0.4
v 0.2 0.2 0.2
v 0.2 0.2 0
v 0.2 0.2 -0.4
v 0.2 0.3 -0.3
v 0.2 0.3 -0.4
v 0.2 0.5 -0.3
v 0.2 0.5 -0.4
v 0.2 2.8 0
v 0.2 2.8 -0.4
v 0.2 2.9 0.2
v 0.2 2.9 0
v 0.2 4 0
v 0.2 4 -0.2
v 0.2 4.1 0.2
v 0.2 4.1 -0.2
v 0.3 0.3 -0.3
v 0.3 0.3 -0.4
v 0.3 0.5 -0.3
v 0.3 0.5 -0.4
v 0.4 0 0.2
v 0.4 0 -0.4
v 0.4 0.2 0.2
v 0.4 0.2 -0.4
v 0.4 2.8 0
v 0.4 2.8 -0.4
v 0.4 4 0
v 0.4 4 -0.4
v -0.4 0 0.4
v -0.4 0.2 0.4
v -0.4 2.8 0.4
v -0.4 4 0.4
v 0 2.8 0.4
v 0 4 0.4
v 0.2 0 0.4
v 0.2 0.2 0.4
v -0.4 0.3 0.3
v -0.4 0.5 0.3
v -0.3 0.3 0.3
v -0.3 0.5 0.3
v -0.4 0.2 0.2
v -0.4 0.3 0.2
v -0.4 0.5 0.2
v -0.4 2.8 0.2
v -0.3 0.3 0.2
v -0.3 0.5 0.2
v -0.2 4 0.2
v -0.2 4.1 0.2
v 0 0.2 0.2
v 0 2.8 0.2
v 0 2.9 0.2
v 0 4 0.2
v 0.2 0 0.2
v 0.2 0.2 0.2
v 0.2 2.9 0.2
v 0.2 4.1 0.2
v 0.4 0 0.2
v 0.4 0.2 0.2
v -0.1 4.1 0.1
v -0.1 4.2 0.1
v 0.1 4.1 0.1
v 0.1 4.2 0.1
v 0 0.2 0
v 0 2.9 0
v 0.2 0.2 0
v 0.2 2.8 0
v 0.2 2.9 0
v 0.2 4 0
v 0.4 2.8 0
v 0.4 4 0
v 0.2 0.3 -0.3
v 0.2 0.5 -0.3
v 0.3 0.3 -0.3
v 0.3 0.5 -0.3
v -0.1 4.1 -0.1
v -0.1 4.2 -0.1
v 0.1 4.1 -0.1
v 0.1 4.2 -0.1
v -0.2 4 -0.2
v -0.2 4.1 -0.2
v 0.2 4 -0.2
v 0.2 4.1 -0.2
v -0.4 0 -0.4
v -0.4 4 -0.4
v 0.2 0.2 -0.4
v 0.2 0.3 -0.4
v 0.2 0.5 -0.4
v 0.2 2.8 -0.4
v 0.3 0.3 -0.4
v 0.3 0.5 -0.4
v 0.4 0 -0.4
v 0.4 0.2 -0.4
v 0.4 2.8 -0.4
v 0.4 4 -0.4
v -0.4 0 0.4
v 0.2 0 0.4
v 0.2 0 0.2
v 0.4 0 0.2
v -0.4 0 -0.4
v 0.4 0 -0.4
v -0.4 0.3 0.3
v -0.3 0.3 0.3
v -0.4 0.3 0.2
v -0.3 0.3 0.2
v 0.2 0.3 -0.3
v 0.3 0.3 -0.3
v 0.2 0.3 -0.4
v 0.3 0.3 -0.4
v -0.4 2.8 0.4
v 0 2.8 0.4
v -0.4 2.8 0.2
v 0 2.8 0.2
v 0.2 2.8 0
v 0.4 2.8 0
v 0.2 2.8 -0.4
v 0.4 2.8 -0.4
v 0 2.9 0.2
v 0.2 2.9 0.2
v 0 2.9 0
v 0.2 2.9 0
v -0.4 0.2 0.4
v 0.2 0.2 0.4
v -0.4 0.2 0.2
v 0 0.2 0.2
v 0.2 0.2 0.2
v 0.4 0.2 0.2
v 0 0.2 0
v 0.2 0.2 0
v 0.2 0.2 -0.4
v 0.4 0.2 -0.4
v -0.4 0.5 0.3
v -0.3 0.5 0.3
v -0.4 0.5 0.2
v -0.3 0.5 0.2
v 0.2 0.5 -0.3
v 0.3 0.5 -0.3
v 0.2 0.5 -0.4
v 0.3 0.5 -0.4
v -0.4 4 0.4
v 0 4 0.4
v -0.2 4 0.2
v 0 4 0.2
v 0.2 4 0
v 0.4 4 0
v -0.2 4 -0.2
v 0.2 4 -0.2
v -0.4 4 -0.4
v 0.4 4 -0.4
v -0.2 4.1 0.2
v 0.2 4.1 0.2
v -0.1 4.1 0.1
v 0.1 4.1 0.1
v -0.1 4.1 -0.1
v 0.1 4.1 -0.1
v -0.2 4.1 -0.2
v 0.2 4.1 -0.2
v -0.1 4.2 0.1
v 0.1 4.2 0.1
v -0.1 4.2 -0.1
v 0.1 4.2 -0.1

# faces
f 3/2/1 2/2/1 1/2/1
f 4/2/1 2/2/1 3/2/1
f 6/2/1 2/2/1 4/2/1
f 7/1/1 6/1/1 5/1/1
f 8/2/1 2/2/1 6/2/1
f 8/1/1 6/1/1 7/1/1
f 10/2/1 2/2/1 8/2/1
f 11/2/1 10/2/1 9/2/1
f 12/2/1 2/2/1 10/2/1
f 12/2/1 10/2/1 11/2/1
f 15/2/1 14/2/1 13/2/1
f 16/2/1 14/2/1 15/2/1
f 19/2/1 18/2/1 17/2/1
f 20/2/1 18/2/1 19/2/1
f 21/1/2 22/1/2 23/1/2
f 23/1/2 22/1/2 24/1/2
f 25/2/2 26/2/2 28/2/2
f 28/2/2 26/2/2 29/2/2
f 27/2/2 28/2/2 29/2/2
f 29/2/2 26/2/2 30/2/2
f 27/2/2 29/2/2 31/2/2
f 31/2/2 29/2/2 32/2/2
f 33/2/2 34/2/2 35/2/2
f 35/2/2 34/2/2 36/2/2
f 37/2/2 38/2/2 39/2/2
f 39/2/2 38/2/2 40/2/2
f 41/2/2 42/2/2 43/2/2
f 43/2/2 42/2/2 44/2/2
f 41/2/2 43/2/2 45/2/2
f 41/2/2 45/2/2 47/2/2
f 45/2/2 46/2/2 47/2/2
f 47/2/2 46/2/2 48/2/2
f 49/2/2 50/2/2 51/2/2
f 49/2/2 51/2/2 53/2/2
f 51/2/2 52/2/2 53/2/2
f 53/2/2 52/2/2 54/2/2
f 55/1/2 56/1/2 57/1/2
f 57/1/2 56/1/2 58/1/2
f 59/2/2 60/2/2 61/2/2
f 61/2/2 60/2/2 62/2/2
f 63/2/2 64/2/2 65/2/2
f 65/2/2 64/2/2 66/2/2
f 71/2/3 70/2/3 69/2/3
f 72/2/3 70/2/3 71/2/3
f 73/2/3 68/2/3 67/2/3
f 74/2/3 68/2/3 73/2/3
f 77/1/3 76/1/3 75/1/3
f 78/1/3 76/1/3 77/1/3
f 83/2/3 80/2/3 79/2/3
f 84/2/3 82/2/3 81/2/3
f 87/2/3 83/2/3 79/2/3
f 87/2/3 84/2/3 83/2/3
f 88/2/3 82/2/3 84/2/3
f 88/2/3 84/2/3 87/2/3
f 90/2/3 86/2/3 85/2/3
f 93/2/3 90/2/3 89/2/3
f 94/2/3 86/2/3 90/2/3
f 94/2/3 90/2/3 93/2/3
f 95/2/3 92/2/3 91/2/3
f 96/2/3 92/2/3 95/2/3
f 99/2/3 98/2/3 97/2/3
f 100/2/3 98/2/3 99/2/3
f 103/2/3 102/2/3 101/2/3
f 104/2/3 102/2/3 103/2/3
f 105/2/3 102/2/3 104/2/3
f 107/2/3 106/2/3 105/2/3
f 107/2/3 105/2/3 104/2/3
f 108/2/3 106/2/3 107/2/3
f 111/1/3 110/1/3 109/1/3
f 112/1/3 110/1/3 111/1/3
f 113/2/4 114/2/4 115/2/4
f 115/2/4 114/2/4 116/2/4
f 117/2/4 118/2/4 119/2/4
f 119/2/4 118/2/4 120/2/4
f 121/2/4 122/2/4 123/2/4
f 123/2/4 122/2/4 124/2/4
f 124/2/4 122/2/4 125/2/4
f 125/2/4 122/2/4 126/2/4
f 124/1/4 125/1/4 127/1/4
f 127/1/4 125/1/4 128/1/4
f 121/2/4 123/2/4 129/2/4
f 129/2/4 123/2/4 130/2/4
f 126/2/4 122/2/4 131/2/4
f 131/2/4 122/2/4 132/2/4
f 135/2/5 134/2/5 133/2/5
f 137/2/5 135/2/5 133/2/5
f 137/2/5 136/2/5 135/2/5
f 138/2/5 136/2/5 137/2/5
f 141/1/5 140/1/5 139/1/5
f 142/1/5 140/1/5 141/1/5
f 145/1/5 144/1/5 143/1/5
f 146/1/5 144/1/5 145/1/5
f 149/2/5 148/2/5 147/2/5
f 150/2/5 148/2/5 149/2/5
f 153/2/5 152/2/5 151/2/5
f 154/2/5 152/2/5 153/2/5
f 157/2/5 156/2/5 155/2/5
f 158/2/5 156/2/5 157/2/5
f 159/2/6 160/2/6 161/2/6
f 161/2/6 160/2/6 162/2/6
f 162/2/6 160/2/6 163/2/6
f 163/2/6 164/2/6 165/2/6
f 162/2/6 163/2/6 165/2/6
f 165/2/6 164/2/6 166/2/6
f 166/2/6 164/2/6 167/2/6
f 167/2/6 164/2/6 168/2/6
f 169/1/6 170/1/6 171/1/6
f 171/1/6 170/1/6 172/1/6
f 173/1/6 174/1/6 175/1/6
f 175/1/6 174/1/6 176/1/6
f 177/2/6 178/2/6 179/2/6
f 179/2/6 178/2/6 180/2/6
f 177/2/6 179/2/6 183/2/6
f 181/2/6 182/2/6 184/2/6
f 177/2/6 183/2/6 185/2/6
f 183/2/6 184/2/6 185/2/6
f 184/2/6 182/2/6 186/2/6
f 185/2/6 184/2/6 186/2/6
f 187/2/6 188/2/6 189/2/6
f 189/2/6 188/2/6 190/2/6
f 187/2/6 189/2/6 191/2/6
f 190/2/6 188/2/6 192/2/6
f 187/2/6 191/2/6 193/2/6
f 191/2/6 192/2/6 193/2/6
f 192/2/6 188/2/6 194/2/6
f 193/2/6 192/2/6 194/2/6
f 195/2/6 196/2/6 197/2/6
f 197/2/6 196/2/6 198/2/6
