# MagicaVoxel @ Ephtracy

# group
o 

# material
mtllib Enemy_01.mtl
usemtl palette

# normals
vn -1 0 0
vn 1 0 0
vn 0 0 1
vn 0 0 -1
vn 0 -1 0
vn 0 1 0

# texcoords
vt 0.115234 0.5
vt 0.119141 0.5
vt 0.677734 0.5

# verts
v -0.3 0.3 0.1
v -0.3 0.3 -0.2
v -0.3 0.8 0.1
v -0.3 0.8 -0.2
v -0.2 0 0.1
v -0.2 0 -0.1
v -0.2 0.1 0.1
v -0.2 0.1 0
v -0.2 0.2 0
v -0.2 0.2 -0.1
v -0.2 0.3 0
v -0.2 0.3 -0.1
v -0.2 0.4 0.2
v -0.2 0.4 0.1
v -0.2 0.6 0.2
v -0.2 0.6 0.1
v -0.2 0.8 -0.1
v -0.2 0.8 -0.2
v -0.2 0.9 -0.1
v -0.2 0.9 -0.2
v -0.1 0.3 0.2
v -0.1 0.3 0.1
v -0.1 0.4 0.2
v -0.1 0.4 0.1
v -0.1 0.8 0
v -0.1 0.8 -0.1
v -0.1 0.9 0
v -0.1 0.9 -0.1
v 0 0.2 0.2
v 0 0.2 0.1
v 0 0.3 0.2
v 0 0.3 0.1
v 0 0.8 -0.1
v 0 0.8 -0.2
v 0 0.9 0
v 0 0.9 -0.1
v 0 0.9 -0.2
v 0 1 0
v 0 1 -0.1
v 0.1 0 0.1
v 0.1 0 -0.1
v 0.1 0.1 0.1
v 0.1 0.1 0
v 0.1 0.2 0
v 0.1 0.2 -0.1
v 0.1 0.3 0
v 0.1 0.3 -0.1
v 0.1 0.8 0.1
v 0.1 0.8 0
v 0.1 0.9 0.1
v 0.1 0.9 0
v -0.1 0 0.1
v -0.1 0 -0.1
v -0.1 0.1 0.1
v -0.1 0.1 0
v -0.1 0.2 0
v -0.1 0.2 -0.1
v -0.1 0.3 0
v -0.1 0.3 -0.1
v -0.1 0.8 -0.1
v -0.1 0.8 -0.2
v -0.1 0.9 -0.1
v -0.1 0.9 -0.2
v 0.1 0.2 0.2
v 0.1 0.2 0.1
v 0.1 0.3 0.1
v 0.1 0.4 0.2
v 0.1 0.4 0.1
v 0.1 0.8 0
v 0.1 0.8 -0.2
v 0.1 0.9 0
v 0.1 0.9 -0.1
v 0.1 0.9 -0.2
v 0.1 1 0
v 0.1 1 -0.1
v 0.2 0 0.1
v 0.2 0 -0.1
v 0.2 0.1 0.1
v 0.2 0.1 0
v 0.2 0.2 0
v 0.2 0.2 -0.1
v 0.2 0.3 0
v 0.2 0.3 -0.1
v 0.2 0.4 0.2
v 0.2 0.4 0.1
v 0.2 0.6 0.2
v 0.2 0.6 0.1
v 0.2 0.8 0.1
v 0.2 0.8 0
v 0.2 0.9 0.1
v 0.2 0.9 0
v 0.3 0.3 0.1
v 0.3 0.3 -0.2
v 0.3 0.8 0.1
v 0.3 0.8 -0.2
v -0.2 0.4 0.2
v -0.2 0.6 0.2
v -0.1 0.3 0.2
v -0.1 0.4 0.2
v -0.1 0.5 0.2
v 0 0.2 0.2
v 0 0.3 0.2
v 0 0.4 0.2
v 0.1 0.2 0.2
v 0.1 0.4 0.2
v 0.1 0.5 0.2
v 0.2 0.4 0.2
v 0.2 0.6 0.2
v -0.3 0.3 0.1
v -0.3 0.8 0.1
v -0.2 0 0.1
v -0.2 0.1 0.1
v -0.2 0.4 0.1
v -0.2 0.6 0.1
v -0.2 0.7 0.1
v -0.1 0 0.1
v -0.1 0.1 0.1
v -0.1 0.3 0.1
v -0.1 0.4 0.1
v -0.1 0.6 0.1
v -0.1 0.7 0.1
v -0.1 0.8 0.1
v 0.1 0 0.1
v 0.1 0.1 0.1
v 0.1 0.3 0.1
v 0.1 0.4 0.1
v 0.1 0.6 0.1
v 0.1 0.7 0.1
v 0.1 0.8 0.1
v 0.1 0.9 0.1
v 0.2 0 0.1
v 0.2 0.1 0.1
v 0.2 0.4 0.1
v 0.2 0.6 0.1
v 0.2 0.7 0.1
v 0.2 0.8 0.1
v 0.2 0.9 0.1
v 0.3 0.3 0.1
v 0.3 0.8 0.1
v -0.2 0.1 0
v -0.2 0.2 0
v -0.2 0.3 0
v -0.1 0.1 0
v -0.1 0.2 0
v -0.1 0.3 0
v -0.1 0.8 0
v -0.1 0.9 0
v 0 0.9 0
v 0 1 0
v 0.1 0.1 0
v 0.1 0.2 0
v 0.1 0.3 0
v 0.1 0.8 0
v 0.1 0.9 0
v 0.1 1 0
v 0.2 0.1 0
v 0.2 0.2 0
v 0.2 0.3 0
v -0.2 0.8 -0.1
v -0.2 0.9 -0.1
v -0.1 0.8 -0.1
v -0.1 0.9 -0.1
v 0 0.2 0.1
v 0 0.3 0.1
v 0.1 0.2 0.1
v 0.1 0.3 0.1
v 0.1 0.8 0
v 0.1 0.9 0
v 0.2 0.8 0
v 0.2 0.9 0
v -0.2 0 -0.1
v -0.2 0.2 -0.1
v -0.2 0.3 -0.1
v -0.1 0 -0.1
v -0.1 0.2 -0.1
v -0.1 0.3 -0.1
v -0.1 0.8 -0.1
v -0.1 0.9 -0.1
v 0 0.8 -0.1
v 0 0.9 -0.1
v 0 1 -0.1
v 0.1 0 -0.1
v 0.1 0.2 -0.1
v 0.1 0.3 -0.1
v 0.1 0.9 -0.1
v 0.1 1 -0.1
v 0.2 0 -0.1
v 0.2 0.2 -0.1
v 0.2 0.3 -0.1
v -0.3 0.3 -0.2
v -0.3 0.8 -0.2
v -0.2 0.8 -0.2
v -0.2 0.9 -0.2
v -0.1 0.4 -0.2
v -0.1 0.5 -0.2
v -0.1 0.7 -0.2
v -0.1 0.8 -0.2
v -0.1 0.9 -0.2
v 0 0.4 -0.2
v 0 0.5 -0.2
v 0 0.6 -0.2
v 0 0.8 -0.2
v 0 0.9 -0.2
v 0.1 0.4 -0.2
v 0.1 0.5 -0.2
v 0.1 0.7 -0.2
v 0.1 0.8 -0.2
v 0.1 0.9 -0.2
v 0.2 0.4 -0.2
v 0.2 0.6 -0.2
v 0.3 0.3 -0.2
v 0.3 0.8 -0.2
v -0.2 0 0.1
v -0.1 0 0.1
v 0.1 0 0.1
v 0.2 0 0.1
v -0.2 0 -0.1
v -0.1 0 -0.1
v 0.1 0 -0.1
v 0.2 0 -0.1
v 0 0.2 0.2
v 0.1 0.2 0.2
v 0 0.2 0.1
v 0.1 0.2 0.1
v -0.1 0.3 0.2
v 0 0.3 0.2
v -0.3 0.3 0.1
v -0.1 0.3 0.1
v 0 0.3 0.1
v 0.1 0.3 0.1
v 0.3 0.3 0.1
v -0.2 0.3 0
v -0.1 0.3 0
v 0.1 0.3 0
v 0.2 0.3 0
v -0.2 0.3 -0.1
v -0.1 0.3 -0.1
v 0.1 0.3 -0.1
v 0.2 0.3 -0.1
v -0.3 0.3 -0.2
v 0.3 0.3 -0.2
v -0.2 0.4 0.2
v -0.1 0.4 0.2
v 0.1 0.4 0.2
v 0.2 0.4 0.2
v -0.2 0.4 0.1
v -0.1 0.4 0.1
v 0.1 0.4 0.1
v 0.2 0.4 0.1
v -0.2 0.1 0.1
v -0.1 0.1 0.1
v 0.1 0.1 0.1
v 0.2 0.1 0.1
v -0.2 0.1 0
v -0.1 0.1 0
v 0.1 0.1 0
v 0.2 0.1 0
v -0.2 0.6 0.2
v 0.2 0.6 0.2
v -0.2 0.6 0.1
v -0.1 0.6 0.1
v 0.1 0.6 0.1
v 0.2 0.6 0.1
v -0.3 0.8 0.1
v -0.1 0.8 0.1
v 0.1 0.8 0.1
v 0.2 0.8 0.1
v 0.3 0.8 0.1
v -0.1 0.8 0
v 0.1 0.8 0
v 0.2 0.8 0
v -0.2 0.8 -0.1
v -0.1 0.8 -0.1
v 0 0.8 -0.1
v -0.3 0.8 -0.2
v -0.2 0.8 -0.2
v -0.1 0.8 -0.2
v 0 0.8 -0.2
v 0.1 0.8 -0.2
v 0.3 0.8 -0.2
v 0.1 0.9 0.1
v 0.2 0.9 0.1
v -0.1 0.9 0
v 0 0.9 0
v 0.1 0.9 0
v 0.2 0.9 0
v -0.2 0.9 -0.1
v -0.1 0.9 -0.1
v 0 0.9 -0.1
v 0.1 0.9 -0.1
v -0.2 0.9 -0.2
v -0.1 0.9 -0.2
v 0 0.9 -0.2
v 0.1 0.9 -0.2
v 0 1 0
v 0.1 1 0
v 0 1 -0.1
v 0.1 1 -0.1

# faces
f 3/2/1 2/2/1 1/2/1
f 4/2/1 2/2/1 3/2/1
f 7/1/1 6/1/1 5/1/1
f 8/1/1 6/1/1 7/1/1
f 9/1/1 6/1/1 8/1/1
f 10/1/1 6/1/1 9/1/1
f 11/2/1 10/2/1 9/2/1
f 12/2/1 10/2/1 11/2/1
f 15/2/1 14/2/1 13/2/1
f 16/2/1 14/2/1 15/2/1
f 19/1/1 18/1/1 17/1/1
f 20/1/1 18/1/1 19/1/1
f 23/2/1 22/2/1 21/2/1
f 24/2/1 22/2/1 23/2/1
f 27/1/1 26/1/1 25/1/1
f 28/1/1 26/1/1 27/1/1
f 31/1/1 30/1/1 29/1/1
f 32/1/1 30/1/1 31/1/1
f 36/1/1 34/1/1 33/1/1
f 37/1/1 34/1/1 36/1/1
f 38/1/1 36/1/1 35/1/1
f 39/1/1 36/1/1 38/1/1
f 42/1/1 41/1/1 40/1/1
f 43/1/1 41/1/1 42/1/1
f 44/1/1 41/1/1 43/1/1
f 45/1/1 41/1/1 44/1/1
f 46/2/1 45/2/1 44/2/1
f 47/2/1 45/2/1 46/2/1
f 50/1/1 49/1/1 48/1/1
f 51/1/1 49/1/1 50/1/1
f 52/1/2 53/1/2 54/1/2
f 54/1/2 53/1/2 55/1/2
f 55/1/2 53/1/2 56/1/2
f 56/1/2 53/1/2 57/1/2
f 56/2/2 57/2/2 58/2/2
f 58/2/2 57/2/2 59/2/2
f 60/1/2 61/1/2 62/1/2
f 62/1/2 61/1/2 63/1/2
f 64/1/2 65/1/2 66/1/2
f 64/1/2 66/1/2 67/1/2
f 67/1/2 66/1/2 68/1/2
f 69/1/2 70/1/2 71/1/2
f 71/1/2 70/1/2 72/1/2
f 72/1/2 70/1/2 73/1/2
f 71/1/2 72/1/2 74/1/2
f 74/1/2 72/1/2 75/1/2
f 76/1/2 77/1/2 78/1/2
f 78/1/2 77/1/2 79/1/2
f 79/1/2 77/1/2 80/1/2
f 80/1/2 77/1/2 81/1/2
f 80/2/2 81/2/2 82/2/2
f 82/2/2 81/2/2 83/2/2
f 84/2/2 85/2/2 86/2/2
f 86/2/2 85/2/2 87/2/2
f 88/1/2 89/1/2 90/1/2
f 90/1/2 89/1/2 91/1/2
f 92/2/2 93/2/2 94/2/2
f 94/2/2 93/2/2 95/2/2
f 99/2/3 97/2/3 96/2/3
f 100/2/3 97/2/3 99/2/3
f 102/2/3 99/2/3 98/2/3
f 103/1/3 100/1/3 99/1/3
f 103/2/3 99/2/3 102/2/3
f 104/1/3 102/1/3 101/1/3
f 104/1/3 103/1/3 102/1/3
f 105/1/3 100/1/3 103/1/3
f 105/1/3 103/1/3 104/1/3
f 106/2/3 97/2/3 100/2/3
f 106/1/3 100/1/3 105/1/3
f 107/2/3 106/2/3 105/2/3
f 108/2/3 97/2/3 106/2/3
f 108/2/3 106/2/3 107/2/3
f 113/2/3 110/2/3 109/2/3
f 114/2/3 110/2/3 113/2/3
f 115/2/3 110/2/3 114/2/3
f 116/1/3 112/1/3 111/1/3
f 117/1/3 112/1/3 116/1/3
f 118/2/3 113/2/3 109/2/3
f 119/2/3 113/2/3 118/2/3
f 120/3/3 115/3/3 114/3/3
f 121/2/3 110/2/3 115/2/3
f 121/3/3 115/3/3 120/3/3
f 122/2/3 110/2/3 121/2/3
f 127/2/3 121/2/3 120/2/3
f 128/1/3 122/1/3 121/1/3
f 128/2/3 121/2/3 127/2/3
f 129/1/3 122/1/3 128/1/3
f 131/1/3 124/1/3 123/1/3
f 132/1/3 124/1/3 131/1/3
f 133/2/3 126/2/3 125/2/3
f 134/3/3 128/3/3 127/3/3
f 135/2/3 129/2/3 128/2/3
f 135/3/3 128/3/3 134/3/3
f 136/1/3 130/1/3 129/1/3
f 136/2/3 129/2/3 135/2/3
f 137/1/3 130/1/3 136/1/3
f 138/2/3 134/2/3 133/2/3
f 138/2/3 136/2/3 135/2/3
f 138/2/3 135/2/3 134/2/3
f 138/2/3 133/2/3 125/2/3
f 139/2/3 136/2/3 138/2/3
f 143/1/3 141/1/3 140/1/3
f 144/2/3 142/2/3 141/2/3
f 144/1/3 141/1/3 143/1/3
f 145/2/3 142/2/3 144/2/3
f 148/1/3 147/1/3 146/1/3
f 153/1/3 148/1/3 146/1/3
f 153/1/3 149/1/3 148/1/3
f 154/1/3 149/1/3 153/1/3
f 155/1/3 149/1/3 154/1/3
f 156/1/3 151/1/3 150/1/3
f 157/2/3 152/2/3 151/2/3
f 157/1/3 151/1/3 156/1/3
f 158/2/3 152/2/3 157/2/3
f 161/1/3 160/1/3 159/1/3
f 162/1/3 160/1/3 161/1/3
f 163/1/4 164/1/4 165/1/4
f 165/1/4 164/1/4 166/1/4
f 167/1/4 168/1/4 169/1/4
f 169/1/4 168/1/4 170/1/4
f 171/1/4 172/1/4 174/1/4
f 172/2/4 173/2/4 175/2/4
f 174/1/4 172/1/4 175/1/4
f 175/2/4 173/2/4 176/2/4
f 177/1/4 178/1/4 179/1/4
f 179/1/4 178/1/4 180/1/4
f 180/1/4 181/1/4 185/1/4
f 185/1/4 181/1/4 186/1/4
f 182/1/4 183/1/4 187/1/4
f 183/2/4 184/2/4 188/2/4
f 187/1/4 183/1/4 188/1/4
f 188/2/4 184/2/4 189/2/4
f 190/2/4 191/2/4 192/2/4
f 190/2/4 192/2/4 194/2/4
f 194/2/4 192/2/4 195/2/4
f 195/2/4 192/2/4 196/2/4
f 192/1/4 193/1/4 197/1/4
f 196/2/4 192/2/4 197/2/4
f 197/1/4 193/1/4 198/1/4
f 190/2/4 194/2/4 199/2/4
f 194/1/4 195/1/4 199/1/4
f 195/2/4 196/2/4 200/2/4
f 199/1/4 195/1/4 200/1/4
f 200/2/4 196/2/4 201/2/4
f 196/1/4 197/1/4 202/1/4
f 190/2/4 199/2/4 204/2/4
f 199/2/4 200/2/4 204/2/4
f 200/1/4 201/1/4 205/1/4
f 204/2/4 200/2/4 205/2/4
f 202/1/4 203/1/4 206/1/4
f 201/2/4 196/2/4 206/2/4
f 196/1/4 202/1/4 206/1/4
f 206/1/4 203/1/4 207/1/4
f 207/1/4 203/1/4 208/1/4
f 204/1/4 205/1/4 209/1/4
f 190/2/4 204/2/4 209/2/4
f 205/1/4 201/1/4 210/1/4
f 209/1/4 205/1/4 210/1/4
f 206/2/4 207/2/4 210/2/4
f 201/2/4 206/2/4 210/2/4
f 190/2/4 209/2/4 211/2/4
f 209/2/4 210/2/4 211/2/4
f 210/2/4 207/2/4 212/2/4
f 211/2/4 210/2/4 212/2/4
f 217/1/5 214/1/5 213/1/5
f 218/1/5 214/1/5 217/1/5
f 219/1/5 216/1/5 215/1/5
f 220/1/5 216/1/5 219/1/5
f 223/1/5 222/1/5 221/1/5
f 224/1/5 222/1/5 223/1/5
f 228/2/5 226/2/5 225/2/5
f 229/2/5 226/2/5 228/2/5
f 232/2/5 228/2/5 227/2/5
f 232/2/5 231/2/5 230/2/5
f 232/2/5 230/2/5 229/2/5
f 232/2/5 229/2/5 228/2/5
f 233/2/5 231/2/5 232/2/5
f 234/2/5 231/2/5 233/2/5
f 235/2/5 231/2/5 234/2/5
f 236/2/5 232/2/5 227/2/5
f 237/2/5 234/2/5 233/2/5
f 238/2/5 234/2/5 237/2/5
f 239/2/5 231/2/5 235/2/5
f 240/2/5 238/2/5 237/2/5
f 240/2/5 239/2/5 238/2/5
f 240/2/5 236/2/5 227/2/5
f 240/2/5 237/2/5 236/2/5
f 241/2/5 231/2/5 239/2/5
f 241/2/5 239/2/5 240/2/5
f 246/2/5 243/2/5 242/2/5
f 247/2/5 243/2/5 246/2/5
f 248/2/5 245/2/5 244/2/5
f 249/2/5 245/2/5 248/2/5
f 250/1/6 251/1/6 254/1/6
f 254/1/6 251/1/6 255/1/6
f 252/1/6 253/1/6 256/1/6
f 256/1/6 253/1/6 257/1/6
f 258/2/6 259/2/6 260/2/6
f 260/2/6 259/2/6 261/2/6
f 261/2/6 259/2/6 262/2/6
f 262/2/6 259/2/6 263/2/6
f 264/2/6 265/2/6 269/2/6
f 265/1/6 266/1/6 269/1/6
f 269/1/6 266/1/6 270/1/6
f 267/2/6 268/2/6 271/2/6
f 264/2/6 269/2/6 272/2/6
f 272/2/6 269/2/6 273/2/6
f 264/2/6 272/2/6 275/2/6
f 275/2/6 272/2/6 276/2/6
f 273/1/6 274/1/6 277/1/6
f 277/1/6 274/1/6 278/1/6
f 270/2/6 271/2/6 279/2/6
f 271/2/6 268/2/6 280/2/6
f 279/2/6 271/2/6 280/2/6
f 281/1/6 282/1/6 285/1/6
f 285/1/6 282/1/6 286/1/6
f 283/1/6 284/1/6 288/1/6
f 288/1/6 284/1/6 289/1/6
f 287/1/6 288/1/6 291/1/6
f 291/1/6 288/1/6 292/1/6
f 289/1/6 290/1/6 293/1/6
f 293/1/6 290/1/6 294/1/6
f 295/1/6 296/1/6 297/1/6
f 297/1/6 296/1/6 298/1/6
