# MagicaVoxel @ Ephtracy

# group
o 

# material
mtllib Block_Netr_GT_04.mtl
usemtl palette

# normals
vn -1 0 0
vn 1 0 0
vn 0 0 1
vn 0 0 -1
vn 0 -1 0
vn 0 1 0

# texcoords
vt 0.279297 0.5
vt 0.353516 0.5
vt 0.501953 0.5

# verts
v -3.2 0 3.2
v -3.2 0 -3.2
v -3.2 0.1 3.2
v -3.2 0.1 2.2
v -3.2 0.1 -3.2
v -3.2 3.2 3.2
v -3.2 3.2 2.2
v -3.2 3.2 -3.2
v 3.2 0 3.2
v 3.2 0 -3.2
v 3.2 0.1 3.2
v 3.2 0.1 -3.2
v 3.2 3.2 3.2
v 3.2 3.2 -3.2
v -3.2 0 3.2
v -3.2 0.1 3.2
v -3.2 3.2 3.2
v -2.2 0.1 3.2
v -2.2 3.2 3.2
v 3.2 0 3.2
v 3.2 0.1 3.2
v 3.2 3.2 3.2
v -3.2 0 -3.2
v -3.2 0.1 -3.2
v -3.2 3.2 -3.2
v 3.2 0 -3.2
v 3.2 0.1 -3.2
v 3.2 3.2 -3.2
v -3.2 0 3.2
v 3.2 0 3.2
v -3.2 0 -3.2
v 3.2 0 -3.2
v -3.2 3.2 3.2
v -2.2 3.2 3.2
v 3.2 3.2 3.2
v -2.5 3.2 3.1
v -2.3 3.2 3.1
v -2.1 3.2 3.1
v -1.9 3.2 3.1
v -2.5 3.2 2.9
v -2.3 3.2 2.9
v -2.1 3.2 2.9
v -1.9 3.2 2.9
v -2.5 3.2 2.8
v -2.2 3.2 2.8
v -3.1 3.2 2.5
v -2.9 3.2 2.5
v -2.8 3.2 2.5
v -2.5 3.2 2.5
v -2.7 3.2 2.4
v -2.5 3.2 2.4
v -3.1 3.2 2.3
v -2.9 3.2 2.3
v -3.2 3.2 2.2
v -2.8 3.2 2.2
v -2.7 3.2 2.2
v -2.5 3.2 2.2
v -3.1 3.2 2.1
v -2.9 3.2 2.1
v -3.1 3.2 1.9
v -2.9 3.2 1.9
v -3.2 3.2 -3.2
v 3.2 3.2 -3.2

# faces
f 3/1/1 2/1/1 1/1/1
f 4/1/1 2/1/1 3/1/1
f 5/1/1 2/1/1 4/1/1
f 6/2/1 4/2/1 3/2/1
f 7/3/1 5/3/1 4/3/1
f 7/2/1 4/2/1 6/2/1
f 8/3/1 5/3/1 7/3/1
f 9/1/2 10/1/2 11/1/2
f 11/1/2 10/1/2 12/1/2
f 11/3/2 12/3/2 13/3/2
f 13/3/2 12/3/2 14/3/2
f 18/1/3 16/1/3 15/1/3
f 18/2/3 17/2/3 16/2/3
f 19/2/3 17/2/3 18/2/3
f 20/1/3 18/1/3 15/1/3
f 21/3/3 19/3/3 18/3/3
f 21/1/3 18/1/3 20/1/3
f 22/3/3 19/3/3 21/3/3
f 23/1/4 24/1/4 26/1/4
f 24/3/4 25/3/4 27/3/4
f 26/1/4 24/1/4 27/1/4
f 27/3/4 25/3/4 28/3/4
f 31/1/5 30/1/5 29/1/5
f 32/1/5 30/1/5 31/1/5
f 33/2/6 34/2/6 36/2/6
f 36/2/6 34/2/6 37/2/6
f 34/3/6 35/3/6 38/3/6
f 38/3/6 35/3/6 39/3/6
f 33/2/6 36/2/6 40/2/6
f 36/3/6 37/3/6 40/3/6
f 37/2/6 34/2/6 41/2/6
f 40/3/6 37/3/6 41/3/6
f 38/2/6 39/2/6 42/2/6
f 34/3/6 38/3/6 42/3/6
f 39/3/6 35/3/6 43/3/6
f 42/2/6 39/2/6 43/2/6
f 33/2/6 40/2/6 44/2/6
f 40/2/6 41/2/6 44/2/6
f 34/3/6 42/3/6 45/3/6
f 44/2/6 41/2/6 45/2/6
f 41/2/6 34/2/6 45/2/6
f 42/3/6 43/3/6 45/3/6
f 33/2/6 44/2/6 46/2/6
f 46/2/6 44/2/6 47/2/6
f 47/2/6 44/2/6 48/2/6
f 44/3/6 45/3/6 49/3/6
f 48/2/6 44/2/6 49/2/6
f 48/3/6 49/3/6 50/3/6
f 49/3/6 45/3/6 51/3/6
f 50/3/6 49/3/6 51/3/6
f 33/2/6 46/2/6 52/2/6
f 46/3/6 47/3/6 52/3/6
f 47/2/6 48/2/6 53/2/6
f 52/3/6 47/3/6 53/3/6
f 33/2/6 52/2/6 54/2/6
f 52/2/6 53/2/6 54/2/6
f 53/2/6 48/2/6 55/2/6
f 54/2/6 53/2/6 55/2/6
f 48/3/6 50/3/6 55/3/6
f 50/2/6 51/2/6 56/2/6
f 55/3/6 50/3/6 56/3/6
f 51/3/6 45/3/6 57/3/6
f 56/2/6 51/2/6 57/2/6
f 55/3/6 56/3/6 58/3/6
f 54/3/6 55/3/6 58/3/6
f 56/3/6 57/3/6 58/3/6
f 58/3/6 57/3/6 59/3/6
f 54/3/6 58/3/6 60/3/6
f 58/2/6 59/2/6 60/2/6
f 59/3/6 57/3/6 61/3/6
f 60/2/6 59/2/6 61/2/6
f 54/3/6 60/3/6 62/3/6
f 60/3/6 61/3/6 62/3/6
f 43/3/6 35/3/6 63/3/6
f 62/3/6 61/3/6 63/3/6
f 45/3/6 43/3/6 63/3/6
f 61/3/6 57/3/6 63/3/6
f 57/3/6 45/3/6 63/3/6
