# MagicaVoxel @ Ephtracy

# group
o 

# material
mtllib Block_Netr_GZ_04.mtl
usemtl palette

# normals
vn -1 0 0
vn 1 0 0
vn 0 0 1
vn 0 0 -1
vn 0 -1 0
vn 0 1 0

# texcoords
vt 0.279297 0.5
vt 0.501953 0.5
vt 0.646484 0.5
vt 0.970703 0.5

# verts
v -3.2 0 3.2
v -3.2 0 -3.2
v -3.2 0.1 3.2
v -3.2 0.1 2.2
v -3.2 0.1 -3.2
v -3.2 3.2 3.2
v -3.2 3.2 2.2
v -3.2 3.2 -3.2
v 3.2 0 3.2
v 3.2 0 -3.2
v 3.2 0.1 3.2
v 3.2 0.1 -3.2
v 3.2 3.2 3.2
v 3.2 3.2 -3.2
v -3.2 0 3.2
v -3.2 0.1 3.2
v -3.2 3.2 3.2
v -2.2 0.1 3.2
v -2.2 3.2 3.2
v 3.2 0 3.2
v 3.2 0.1 3.2
v 3.2 3.2 3.2
v -3.2 0 -3.2
v -3.2 0.1 -3.2
v -3.2 3.2 -3.2
v 3.2 0 -3.2
v 3.2 0.1 -3.2
v 3.2 3.2 -3.2
v -3.2 0 3.2
v 3.2 0 3.2
v -3.2 0 -3.2
v 3.2 0 -3.2
v -3.2 3.2 3.2
v -2.2 3.2 3.2
v 3.2 3.2 3.2
v -2.5 3.2 3.1
v -2.3 3.2 3.1
v -2.1 3.2 3.1
v -1.9 3.2 3.1
v -2.5 3.2 2.9
v -2.3 3.2 2.9
v -2.1 3.2 2.9
v -1.9 3.2 2.9
v -2.5 3.2 2.8
v -2.2 3.2 2.8
v -3.1 3.2 2.5
v -2.9 3.2 2.5
v -2.8 3.2 2.5
v -2.5 3.2 2.5
v -2.7 3.2 2.4
v -2.5 3.2 2.4
v -3.1 3.2 2.3
v -2.9 3.2 2.3
v -3.2 3.2 2.2
v -2.8 3.2 2.2
v -2.7 3.2 2.2
v -2.5 3.2 2.2
v -3.1 3.2 2.1
v -2.9 3.2 2.1
v -3.1 3.2 1.9
v -2.9 3.2 1.9
v -3.2 3.2 -3.2
v 3.2 3.2 -3.2

# faces
f 3/1/1 2/1/1 1/1/1
f 4/1/1 2/1/1 3/1/1
f 5/1/1 2/1/1 4/1/1
f 6/2/1 4/2/1 3/2/1
f 7/4/1 5/4/1 4/4/1
f 7/2/1 4/2/1 6/2/1
f 8/4/1 5/4/1 7/4/1
f 9/1/2 10/1/2 11/1/2
f 11/1/2 10/1/2 12/1/2
f 11/4/2 12/4/2 13/4/2
f 13/4/2 12/4/2 14/4/2
f 18/1/3 16/1/3 15/1/3
f 18/2/3 17/2/3 16/2/3
f 19/2/3 17/2/3 18/2/3
f 20/1/3 18/1/3 15/1/3
f 21/4/3 19/4/3 18/4/3
f 21/1/3 18/1/3 20/1/3
f 22/4/3 19/4/3 21/4/3
f 23/1/4 24/1/4 26/1/4
f 24/4/4 25/4/4 27/4/4
f 26/1/4 24/1/4 27/1/4
f 27/4/4 25/4/4 28/4/4
f 31/1/5 30/1/5 29/1/5
f 32/1/5 30/1/5 31/1/5
f 33/2/6 34/2/6 36/2/6
f 36/2/6 34/2/6 37/2/6
f 34/4/6 35/4/6 38/4/6
f 38/4/6 35/4/6 39/4/6
f 33/2/6 36/2/6 40/2/6
f 36/4/6 37/4/6 40/4/6
f 37/2/6 34/2/6 41/2/6
f 40/4/6 37/4/6 41/4/6
f 38/2/6 39/2/6 42/2/6
f 34/4/6 38/4/6 42/4/6
f 39/4/6 35/4/6 43/4/6
f 42/2/6 39/2/6 43/2/6
f 33/2/6 40/2/6 44/2/6
f 40/2/6 41/2/6 44/2/6
f 34/4/6 42/4/6 45/4/6
f 44/2/6 41/2/6 45/2/6
f 41/2/6 34/2/6 45/2/6
f 42/4/6 43/4/6 45/4/6
f 33/2/6 44/2/6 46/2/6
f 46/2/6 44/2/6 47/2/6
f 47/2/6 44/2/6 48/2/6
f 44/4/6 45/4/6 49/4/6
f 48/2/6 44/2/6 49/2/6
f 48/4/6 49/4/6 50/4/6
f 49/4/6 45/4/6 51/4/6
f 50/4/6 49/4/6 51/4/6
f 33/2/6 46/2/6 52/2/6
f 46/4/6 47/4/6 52/4/6
f 47/2/6 48/2/6 53/2/6
f 52/4/6 47/4/6 53/4/6
f 33/2/6 52/2/6 54/2/6
f 52/2/6 53/2/6 54/2/6
f 53/2/6 48/2/6 55/2/6
f 54/2/6 53/2/6 55/2/6
f 48/4/6 50/4/6 55/4/6
f 50/2/6 51/2/6 56/2/6
f 55/4/6 50/4/6 56/4/6
f 51/4/6 45/4/6 57/4/6
f 56/2/6 51/2/6 57/2/6
f 55/4/6 56/4/6 58/4/6
f 54/4/6 55/4/6 58/4/6
f 56/4/6 57/4/6 58/4/6
f 58/4/6 57/4/6 59/4/6
f 54/4/6 58/4/6 60/4/6
f 58/2/6 59/2/6 60/2/6
f 59/4/6 57/4/6 61/4/6
f 60/2/6 59/2/6 61/2/6
f 54/4/6 60/4/6 62/4/6
f 60/4/6 61/4/6 62/4/6
f 43/4/6 35/4/6 63/4/6
f 62/4/6 61/4/6 63/4/6
f 45/4/6 43/4/6 63/4/6
f 61/4/6 57/4/6 63/4/6
f 57/4/6 45/4/6 63/4/6
