# MagicaVoxel @ Ephtracy

# group
o 

# material
mtllib Block_Netr_GZ_03.mtl
usemtl palette

# normals
vn -1 0 0
vn 1 0 0
vn 0 0 1
vn 0 0 -1
vn 0 -1 0
vn 0 1 0

# texcoords
vt 0.279297 0.5
vt 0.501953 0.5
vt 0.646484 0.5
vt 0.970703 0.5

# verts
v -3.2 0 3.2
v -3.2 0 -3.2
v -3.2 0.1 3.2
v -3.2 0.1 2.2
v -3.2 0.1 -3.2
v -3.2 3.2 3.2
v -3.2 3.2 2.2
v -3.2 3.2 -3.2
v 3.2 0 3.2
v 3.2 0 -3.2
v 3.2 0.1 3.2
v 3.2 0.1 2.2
v 3.2 0.1 -3.2
v 3.2 3.2 3.2
v 3.2 3.2 2.2
v 3.2 3.2 -3.2
v -3.2 0 3.2
v -3.2 0.1 3.2
v -3.2 3.2 3.2
v 3.2 0 3.2
v 3.2 0.1 3.2
v 3.2 3.2 3.2
v -3.2 0 -3.2
v -3.2 0.1 -3.2
v -3.2 3.2 -3.2
v 3.2 0 -3.2
v 3.2 0.1 -3.2
v 3.2 3.2 -3.2
v -3.2 0 3.2
v 3.2 0 3.2
v -3.2 0 -3.2
v 3.2 0 -3.2
v -3.2 3.2 3.2
v 3.2 3.2 3.2
v -1.1 3.2 3.1
v -0.9 3.2 3.1
v -1.9 3.2 3
v -1.7 3.2 3
v 0 3.2 3
v 0.4 3.2 3
v 0.9 3.2 3
v 1.1 3.2 3
v -2.4 3.2 2.9
v -2 3.2 2.9
v -1.1 3.2 2.9
v -0.9 3.2 2.9
v 0.1 3.2 2.9
v 0.3 3.2 2.9
v 1.7 3.2 2.9
v 1.9 3.2 2.9
v -2.7 3.2 2.8
v -2.5 3.2 2.8
v -2.3 3.2 2.8
v -2.1 3.2 2.8
v -1.9 3.2 2.8
v -1.7 3.2 2.8
v -1.2 3.2 2.8
v -0.8 3.2 2.8
v 0.5 3.2 2.8
v 0.7 3.2 2.8
v 0.9 3.2 2.8
v 1.1 3.2 2.8
v 2 3.2 2.8
v 2.4 3.2 2.8
v 2.5 3.2 2.8
v 2.7 3.2 2.8
v -2 3.2 2.7
v -1.6 3.2 2.7
v 0.1 3.2 2.7
v 0.3 3.2 2.7
v 0.8 3.2 2.7
v 1.2 3.2 2.7
v 1.7 3.2 2.7
v 1.9 3.2 2.7
v 2.1 3.2 2.7
v 2.3 3.2 2.7
v -2.7 3.2 2.6
v -2.5 3.2 2.6
v -2.3 3.2 2.6
v -2.1 3.2 2.6
v -1.9 3.2 2.6
v -1.7 3.2 2.6
v 0.5 3.2 2.6
v 0.7 3.2 2.6
v 1.6 3.2 2.6
v 2 3.2 2.6
v 2.5 3.2 2.6
v 2.7 3.2 2.6
v -2.8 3.2 2.5
v -2.4 3.2 2.5
v -0.8 3.2 2.5
v -0.4 3.2 2.5
v -0.3 3.2 2.5
v -0.0999999 3.2 2.5
v 0.4 3.2 2.5
v 0.8 3.2 2.5
v 2.1 3.2 2.5
v 2.3 3.2 2.5
v 2.4 3.2 2.5
v 2.8 3.2 2.5
v -1.9 3.2 2.4
v -1.7 3.2 2.4
v -1.6 3.2 2.4
v -1.2 3.2 2.4
v -0.7 3.2 2.4
v -0.5 3.2 2.4
v 1.2 3.2 2.4
v 1.6 3.2 2.4
v -0.3 3.2 2.3
v -0.0999999 3.2 2.3
v 1.3 3.2 2.3
v 1.5 3.2 2.3
v -3.2 3.2 2.2
v -2.8 3.2 2.2
v -0.7 3.2 2.2
v -0.5 3.2 2.2
v -0.4 3.2 2.2
v 0 3.2 2.2
v 2.8 3.2 2.2
v 3.2 3.2 2.2
v -3.1 3.2 2.1
v -2.9 3.2 2.1
v -0.3 3.2 2.1
v -0.0999999 3.2 2.1
v 1.3 3.2 2.1
v 1.5 3.2 2.1
v 2.9 3.2 2.1
v 3.1 3.2 2.1
v -3.1 3.2 1.9
v -2.9 3.2 1.9
v -0.3 3.2 1.9
v -0.0999999 3.2 1.9
v 2.9 3.2 1.9
v 3.1 3.2 1.9
v -3.2 3.2 -3.2
v 3.2 3.2 -3.2

# faces
f 3/1/1 2/1/1 1/1/1
f 4/1/1 2/1/1 3/1/1
f 5/1/1 2/1/1 4/1/1
f 6/2/1 4/2/1 3/2/1
f 7/4/1 5/4/1 4/4/1
f 7/2/1 4/2/1 6/2/1
f 8/4/1 5/4/1 7/4/1
f 9/1/2 10/1/2 11/1/2
f 11/1/2 10/1/2 12/1/2
f 12/1/2 10/1/2 13/1/2
f 11/2/2 12/2/2 14/2/2
f 12/4/2 13/4/2 15/4/2
f 14/2/2 12/2/2 15/2/2
f 15/4/2 13/4/2 16/4/2
f 20/1/3 18/1/3 17/1/3
f 21/2/3 19/2/3 18/2/3
f 21/1/3 18/1/3 20/1/3
f 22/2/3 19/2/3 21/2/3
f 23/1/4 24/1/4 26/1/4
f 24/4/4 25/4/4 27/4/4
f 26/1/4 24/1/4 27/1/4
f 27/4/4 25/4/4 28/4/4
f 31/1/5 30/1/5 29/1/5
f 32/1/5 30/1/5 31/1/5
f 33/2/6 34/2/6 35/2/6
f 35/2/6 34/2/6 36/2/6
f 33/2/6 35/2/6 37/2/6
f 37/2/6 35/2/6 38/2/6
f 36/2/6 34/2/6 39/2/6
f 39/2/6 34/2/6 40/2/6
f 40/2/6 34/2/6 41/2/6
f 41/2/6 34/2/6 42/2/6
f 33/2/6 37/2/6 43/2/6
f 43/2/6 37/2/6 44/2/6
f 38/2/6 35/2/6 45/2/6
f 35/4/6 36/4/6 45/4/6
f 36/2/6 39/2/6 46/2/6
f 45/4/6 36/4/6 46/4/6
f 39/4/6 40/4/6 47/4/6
f 47/4/6 40/4/6 48/4/6
f 42/2/6 34/2/6 49/2/6
f 49/2/6 34/2/6 50/2/6
f 33/2/6 43/2/6 51/2/6
f 51/2/6 43/2/6 52/2/6
f 43/4/6 44/4/6 53/4/6
f 53/4/6 44/4/6 54/4/6
f 44/2/6 37/2/6 55/2/6
f 37/4/6 38/4/6 55/4/6
f 38/2/6 45/2/6 56/2/6
f 55/4/6 38/4/6 56/4/6
f 45/2/6 46/2/6 56/2/6
f 56/2/6 46/2/6 57/2/6
f 46/2/6 39/2/6 58/2/6
f 57/2/6 46/2/6 58/2/6
f 40/2/6 41/2/6 59/2/6
f 59/2/6 41/2/6 60/2/6
f 41/4/6 42/4/6 61/4/6
f 60/2/6 41/2/6 61/2/6
f 42/2/6 49/2/6 62/2/6
f 61/4/6 42/4/6 62/4/6
f 50/2/6 34/2/6 63/2/6
f 63/2/6 34/2/6 64/2/6
f 64/2/6 34/2/6 65/2/6
f 65/2/6 34/2/6 66/2/6
f 54/4/6 44/4/6 67/4/6
f 44/2/6 55/2/6 67/2/6
f 56/2/6 57/2/6 67/2/6
f 55/2/6 56/2/6 67/2/6
f 67/2/6 57/2/6 68/2/6
f 39/4/6 47/4/6 69/4/6
f 47/2/6 48/2/6 69/2/6
f 48/4/6 40/4/6 70/4/6
f 69/2/6 48/2/6 70/2/6
f 60/2/6 61/2/6 71/2/6
f 61/2/6 62/2/6 71/2/6
f 62/2/6 49/2/6 72/2/6
f 71/2/6 62/2/6 72/2/6
f 49/4/6 50/4/6 73/4/6
f 72/2/6 49/2/6 73/2/6
f 50/2/6 63/2/6 74/2/6
f 73/4/6 50/4/6 74/4/6
f 63/4/6 64/4/6 75/4/6
f 75/4/6 64/4/6 76/4/6
f 33/2/6 51/2/6 77/2/6
f 51/4/6 52/4/6 77/4/6
f 52/2/6 43/2/6 78/2/6
f 77/4/6 52/4/6 78/4/6
f 53/2/6 54/2/6 79/2/6
f 43/4/6 53/4/6 79/4/6
f 67/4/6 68/4/6 80/4/6
f 79/2/6 54/2/6 80/2/6
f 54/4/6 67/4/6 80/4/6
f 80/4/6 68/4/6 81/4/6
f 81/4/6 68/4/6 82/4/6
f 59/4/6 60/4/6 83/4/6
f 40/2/6 59/2/6 83/2/6
f 60/2/6 71/2/6 84/2/6
f 83/4/6 60/4/6 84/4/6
f 72/2/6 73/2/6 85/2/6
f 73/2/6 74/2/6 85/2/6
f 74/2/6 63/2/6 86/2/6
f 85/2/6 74/2/6 86/2/6
f 63/4/6 75/4/6 86/4/6
f 65/4/6 66/4/6 87/4/6
f 64/2/6 65/2/6 87/2/6
f 66/2/6 34/2/6 88/2/6
f 87/4/6 66/4/6 88/4/6
f 33/2/6 77/2/6 89/2/6
f 77/2/6 78/2/6 89/2/6
f 78/2/6 43/2/6 90/2/6
f 89/2/6 78/2/6 90/2/6
f 43/4/6 79/4/6 90/4/6
f 79/4/6 80/4/6 90/4/6
f 80/4/6 81/4/6 90/4/6
f 58/2/6 39/2/6 91/2/6
f 57/4/6 58/4/6 91/4/6
f 91/2/6 39/2/6 92/2/6
f 92/2/6 39/2/6 93/2/6
f 93/2/6 39/2/6 94/2/6
f 40/2/6 83/2/6 95/2/6
f 83/2/6 84/2/6 95/2/6
f 70/4/6 40/4/6 95/4/6
f 69/4/6 70/4/6 95/4/6
f 71/4/6 72/4/6 96/4/6
f 95/2/6 84/2/6 96/2/6
f 84/2/6 71/2/6 96/2/6
f 86/4/6 75/4/6 97/4/6
f 85/4/6 86/4/6 97/4/6
f 75/2/6 76/2/6 97/2/6
f 76/4/6 64/4/6 98/4/6
f 97/2/6 76/2/6 98/2/6
f 64/2/6 87/2/6 99/2/6
f 98/4/6 64/4/6 99/4/6
f 87/2/6 88/2/6 99/2/6
f 88/2/6 34/2/6 100/2/6
f 99/2/6 88/2/6 100/2/6
f 90/4/6 81/4/6 101/4/6
f 89/4/6 90/4/6 101/4/6
f 81/2/6 82/2/6 101/2/6
f 82/4/6 68/4/6 102/4/6
f 101/2/6 82/2/6 102/2/6
f 68/2/6 57/2/6 103/2/6
f 102/4/6 68/4/6 103/4/6
f 91/4/6 92/4/6 104/4/6
f 103/2/6 57/2/6 104/2/6
f 57/4/6 91/4/6 104/4/6
f 104/4/6 92/4/6 105/4/6
f 105/4/6 92/4/6 106/4/6
f 96/4/6 72/4/6 107/4/6
f 95/4/6 96/4/6 107/4/6
f 72/2/6 85/2/6 107/2/6
f 97/4/6 98/4/6 108/4/6
f 107/2/6 85/2/6 108/2/6
f 98/4/6 99/4/6 108/4/6
f 85/4/6 97/4/6 108/4/6
f 99/4/6 100/4/6 108/4/6
f 93/4/6 94/4/6 109/4/6
f 92/2/6 93/2/6 109/2/6
f 94/2/6 39/2/6 110/2/6
f 109/4/6 94/4/6 110/4/6
f 107/4/6 108/4/6 111/4/6
f 111/4/6 108/4/6 112/4/6
f 33/2/6 89/2/6 113/2/6
f 103/4/6 104/4/6 114/4/6
f 113/2/6 89/2/6 114/2/6
f 89/4/6 101/4/6 114/4/6
f 102/4/6 103/4/6 114/4/6
f 101/4/6 102/4/6 114/4/6
f 104/4/6 105/4/6 114/4/6
f 105/2/6 106/2/6 115/2/6
f 114/4/6 105/4/6 115/4/6
f 106/4/6 92/4/6 116/4/6
f 115/2/6 106/2/6 116/2/6
f 92/2/6 109/2/6 117/2/6
f 116/4/6 92/4/6 117/4/6
f 109/2/6 110/2/6 117/2/6
f 95/4/6 107/4/6 118/4/6
f 117/2/6 110/2/6 118/2/6
f 39/4/6 69/4/6 118/4/6
f 110/2/6 39/2/6 118/2/6
f 107/4/6 111/4/6 118/4/6
f 69/4/6 95/4/6 118/4/6
f 108/4/6 100/4/6 119/4/6
f 112/4/6 108/4/6 119/4/6
f 100/2/6 34/2/6 119/2/6
f 119/2/6 34/2/6 120/2/6
f 116/4/6 117/4/6 121/4/6
f 117/4/6 118/4/6 121/4/6
f 114/4/6 115/4/6 121/4/6
f 113/4/6 114/4/6 121/4/6
f 115/4/6 116/4/6 121/4/6
f 121/4/6 118/4/6 122/4/6
f 122/4/6 118/4/6 123/4/6
f 123/4/6 118/4/6 124/4/6
f 118/4/6 111/4/6 125/4/6
f 124/4/6 118/4/6 125/4/6
f 111/2/6 112/2/6 125/2/6
f 119/4/6 120/4/6 126/4/6
f 125/2/6 112/2/6 126/2/6
f 112/4/6 119/4/6 126/4/6
f 126/4/6 120/4/6 127/4/6
f 127/4/6 120/4/6 128/4/6
f 121/2/6 122/2/6 129/2/6
f 113/4/6 121/4/6 129/4/6
f 122/4/6 123/4/6 130/4/6
f 129/2/6 122/2/6 130/2/6
f 123/2/6 124/2/6 131/2/6
f 130/4/6 123/4/6 131/4/6
f 124/4/6 125/4/6 132/4/6
f 131/2/6 124/2/6 132/2/6
f 125/4/6 126/4/6 132/4/6
f 126/4/6 127/4/6 132/4/6
f 127/2/6 128/2/6 133/2/6
f 132/4/6 127/4/6 133/4/6
f 128/4/6 120/4/6 134/4/6
f 133/2/6 128/2/6 134/2/6
f 129/4/6 130/4/6 135/4/6
f 130/4/6 131/4/6 135/4/6
f 133/4/6 134/4/6 135/4/6
f 131/4/6 132/4/6 135/4/6
f 113/4/6 129/4/6 135/4/6
f 132/4/6 133/4/6 135/4/6
f 134/4/6 120/4/6 136/4/6
f 135/4/6 134/4/6 136/4/6
