# MagicaVoxel @ Ephtracy

# group
o 

# material
mtllib Decor_CastleWall_03.mtl
usemtl palette

# normals
vn -1 0 0
vn 1 0 0
vn 0 0 1
vn 0 0 -1
vn 0 -1 0
vn 0 1 0

# texcoords
vt 0.958984 0.5
vt 0.970703 0.5
vt 0.974609 0.5
vt 0.982422 0.5

# verts
v -0.8 0 0.8
v -0.8 0 -0.8
v -0.8 3.7 0.8
v -0.8 3.7 -0.8
v -0.8 3.8 0.8
v -0.8 3.8 -0.8
v 0 3.8 0.8
v 0 3.8 0.4
v 0 4.8 0.8
v 0 4.8 0.4
v 0.4 0.2 0.4
v 0.4 0.2 0.2
v 0.4 3.6 0.4
v 0.4 3.6 0.2
v 0.4 3.8 0.4
v 0.4 3.8 0
v 0.4 4.8 0.4
v 0.4 4.8 0
v 0.3 0.2 0.4
v 0.3 0.2 0.2
v 0.3 3.6 0.4
v 0.3 3.6 0.2
v 0.6 0 0.8
v 0.6 0 0.6
v 0.6 2.1 0.8
v 0.6 2.1 0.6
v 0.6 3.5 0.8
v 0.6 3.5 0.6
v 0.6 3.6 0.8
v 0.6 3.6 0.6
v 0.7 2.1 0.8
v 0.7 2.1 0.7
v 0.7 3.5 0.8
v 0.7 3.5 0.7
v 0.8 0 0.6
v 0.8 0 0.2
v 0.8 0 -0.8
v 0.8 2.1 0.7
v 0.8 2.1 0.6
v 0.8 3.5 0.7
v 0.8 3.5 0.6
v 0.8 3.6 0.8
v 0.8 3.6 0.6
v 0.8 3.7 0.2
v 0.8 3.7 0
v 0.8 3.7 -0.8
v 0.8 3.8 0
v 0.8 3.8 -0.8
v 0.8 4.8 0.8
v 0.8 4.8 0
v -0.8 0 0.8
v -0.8 3.7 0.8
v -0.8 3.8 0.8
v 0 3.7 0.8
v 0 3.8 0.8
v 0 4.8 0.8
v 0.3 0 0.8
v 0.3 3.7 0.8
v 0.6 0 0.8
v 0.6 2.1 0.8
v 0.6 3.5 0.8
v 0.6 3.6 0.8
v 0.7 2.1 0.8
v 0.7 3.5 0.8
v 0.8 3.6 0.8
v 0.8 4.8 0.8
v 0.7 2.1 0.7
v 0.7 3.5 0.7
v 0.8 2.1 0.7
v 0.8 3.5 0.7
v 0.6 0 0.6
v 0.6 2.1 0.6
v 0.6 3.5 0.6
v 0.6 3.6 0.6
v 0.8 0 0.6
v 0.8 2.1 0.6
v 0.8 3.5 0.6
v 0.8 3.6 0.6
v 0.3 0.2 0.2
v 0.3 3.6 0.2
v 0.4 0.2 0.2
v 0.4 3.6 0.2
v 0 3.8 0.4
v 0 4.8 0.4
v 0.3 0.2 0.4
v 0.3 3.6 0.4
v 0.4 0.2 0.4
v 0.4 3.6 0.4
v 0.4 3.8 0.4
v 0.4 4.8 0.4
v 0.4 3.8 0
v 0.4 4.8 0
v 0.8 3.8 0
v 0.8 4.8 0
v -0.8 0 -0.8
v -0.8 3.7 -0.8
v -0.8 3.8 -0.8
v 0.8 0 -0.8
v 0.8 3.7 -0.8
v 0.8 3.8 -0.8
v -0.8 0 0.8
v 0.3 0 0.8
v 0.6 0 0.8
v 0.6 0 0.6
v 0.8 0 0.6
v 0.3 0 0.2
v 0.8 0 0.2
v -0.8 0 -0.8
v 0.8 0 -0.8
v 0.6 2.1 0.8
v 0.7 2.1 0.8
v 0.7 2.1 0.7
v 0.8 2.1 0.7
v 0.6 2.1 0.6
v 0.8 2.1 0.6
v 0.6 3.6 0.8
v 0.8 3.6 0.8
v 0.6 3.6 0.6
v 0.8 3.6 0.6
v 0.3 3.6 0.4
v 0.4 3.6 0.4
v 0.3 3.6 0.2
v 0.4 3.6 0.2
v 0.3 0.2 0.4
v 0.4 0.2 0.4
v 0.3 0.2 0.2
v 0.4 0.2 0.2
v 0.6 3.5 0.8
v 0.7 3.5 0.8
v 0.7 3.5 0.7
v 0.8 3.5 0.7
v 0.6 3.5 0.6
v 0.8 3.5 0.6
v -0.8 3.8 0.8
v 0 3.8 0.8
v 0 3.8 0.4
v 0.4 3.8 0.4
v 0 3.8 0
v 0.4 3.8 0
v 0.8 3.8 0
v -0.8 3.8 -0.8
v 0.8 3.8 -0.8
v 0 4.8 0.8
v 0.8 4.8 0.8
v 0 4.8 0.4
v 0.4 4.8 0.4
v 0.4 4.8 0
v 0.8 4.8 0

# faces
f 3/3/1 2/3/1 1/3/1
f 4/3/1 2/3/1 3/3/1
f 5/2/1 4/2/1 3/2/1
f 6/2/1 4/2/1 5/2/1
f 9/4/1 8/4/1 7/4/1
f 10/4/1 8/4/1 9/4/1
f 13/4/1 12/4/1 11/4/1
f 14/4/1 12/4/1 13/4/1
f 17/4/1 16/4/1 15/4/1
f 18/4/1 16/4/1 17/4/1
f 19/3/2 20/3/2 21/3/2
f 21/3/2 20/3/2 22/3/2
f 23/4/2 24/4/2 25/4/2
f 25/4/2 24/4/2 26/4/2
f 27/4/2 28/4/2 29/4/2
f 29/4/2 28/4/2 30/4/2
f 31/1/2 32/1/2 33/1/2
f 33/1/2 32/1/2 34/1/2
f 35/4/2 36/4/2 39/4/2
f 38/1/2 39/1/2 40/1/2
f 39/4/2 36/4/2 41/4/2
f 40/1/2 39/1/2 41/1/2
f 41/4/2 36/4/2 43/4/2
f 36/3/2 37/3/2 44/3/2
f 42/4/2 43/4/2 44/4/2
f 43/4/2 36/4/2 44/4/2
f 44/3/2 37/3/2 45/3/2
f 45/3/2 37/3/2 46/3/2
f 44/4/2 45/4/2 47/4/2
f 45/2/2 46/2/2 47/2/2
f 47/2/2 46/2/2 48/2/2
f 42/4/2 44/4/2 49/4/2
f 44/4/2 47/4/2 49/4/2
f 49/4/2 47/4/2 50/4/2
f 54/3/3 52/3/3 51/3/3
f 54/2/3 53/2/3 52/2/3
f 55/2/3 53/2/3 54/2/3
f 57/3/3 54/3/3 51/3/3
f 58/4/3 56/4/3 55/4/3
f 58/3/3 54/3/3 57/3/3
f 58/4/3 55/4/3 54/4/3
f 59/4/3 58/4/3 57/4/3
f 60/4/3 58/4/3 59/4/3
f 61/4/3 58/4/3 60/4/3
f 62/4/3 58/4/3 61/4/3
f 63/1/3 61/1/3 60/1/3
f 64/1/3 61/1/3 63/1/3
f 65/4/3 58/4/3 62/4/3
f 66/4/3 56/4/3 58/4/3
f 66/4/3 58/4/3 65/4/3
f 69/1/3 68/1/3 67/1/3
f 70/1/3 68/1/3 69/1/3
f 75/4/3 72/4/3 71/4/3
f 76/4/3 72/4/3 75/4/3
f 77/4/3 74/4/3 73/4/3
f 78/4/3 74/4/3 77/4/3
f 81/3/3 80/3/3 79/3/3
f 82/3/3 80/3/3 81/3/3
f 85/4/4 86/4/4 87/4/4
f 87/4/4 86/4/4 88/4/4
f 83/4/4 84/4/4 89/4/4
f 89/4/4 84/4/4 90/4/4
f 91/4/4 92/4/4 93/4/4
f 93/4/4 92/4/4 94/4/4
f 95/3/4 96/3/4 98/3/4
f 96/2/4 97/2/4 99/2/4
f 98/3/4 96/3/4 99/3/4
f 99/2/4 97/2/4 100/2/4
f 104/4/5 103/4/5 102/4/5
f 106/3/5 102/3/5 101/3/5
f 106/4/5 105/4/5 104/4/5
f 106/4/5 104/4/5 102/4/5
f 107/4/5 105/4/5 106/4/5
f 108/3/5 106/3/5 101/3/5
f 108/3/5 107/3/5 106/3/5
f 109/3/5 107/3/5 108/3/5
f 112/1/5 111/1/5 110/1/5
f 114/1/5 112/1/5 110/1/5
f 114/1/5 113/1/5 112/1/5
f 115/1/5 113/1/5 114/1/5
f 118/4/5 117/4/5 116/4/5
f 119/4/5 117/4/5 118/4/5
f 122/4/5 121/4/5 120/4/5
f 123/4/5 121/4/5 122/4/5
f 124/4/6 125/4/6 126/4/6
f 126/4/6 125/4/6 127/4/6
f 128/1/6 129/1/6 130/1/6
f 128/1/6 130/1/6 132/1/6
f 130/1/6 131/1/6 132/1/6
f 132/1/6 131/1/6 133/1/6
f 134/2/6 135/2/6 136/2/6
f 134/2/6 136/2/6 138/2/6
f 136/4/6 137/4/6 138/4/6
f 138/4/6 137/4/6 139/4/6
f 134/2/6 138/2/6 141/2/6
f 139/2/6 140/2/6 141/2/6
f 138/2/6 139/2/6 141/2/6
f 141/2/6 140/2/6 142/2/6
f 143/4/6 144/4/6 145/4/6
f 145/4/6 144/4/6 146/4/6
f 146/4/6 144/4/6 147/4/6
f 147/4/6 144/4/6 148/4/6
