# MagicaVoxel @ Ephtracy

# group
o 

# material
mtllib AttackCollide.mtl
usemtl palette

# normals
vn -1 0 0
vn 1 0 0
vn 0 0 1
vn 0 0 -1
vn 0 -1 0
vn 0 1 0

# texcoords
vt 0.958984 0.5
vt 0.966797 0.5
vt 0.978516 0.5

# verts
v -0.5 0.2 -0.3
v -0.5 0.2 -0.4
v -0.5 0.2 -0.5
v -0.5 0.3 -0.3
v -0.5 0.3 -0.4
v -0.5 0.3 -0.5
v -0.4 0.2 -0.2
v -0.4 0.2 -0.3
v -0.4 0.3 -0.2
v -0.4 0.3 -0.3
v -0.3 0.1 -0.3
v -0.3 0.1 -0.4
v -0.3 0.2 -0.1
v -0.3 0.2 -0.2
v -0.3 0.2 -0.3
v -0.3 0.2 -0.4
v -0.3 0.3 -0.1
v -0.3 0.3 -0.2
v -0.3 0.3 -0.3
v -0.3 0.3 -0.4
v -0.3 0.4 -0.3
v -0.3 0.4 -0.4
v -0.2 0.1 -0.2
v -0.2 0.1 -0.3
v -0.2 0.2 -0.2
v -0.2 0.2 -0.3
v -0.2 0.3 -0.2
v -0.2 0.3 -0.3
v -0.2 0.4 -0.2
v -0.2 0.4 -0.3
v 0 0.2 0.5
v 0 0.2 0.4
v 0 0.2 0
v 0 0.3 0.5
v 0 0.3 0.4
v 0 0.3 0
v 0.1 0.1 0.3
v 0.1 0.1 0
v 0.1 0.2 0.3
v 0.1 0.2 0
v 0.1 0.2 -0.2
v 0.1 0.3 0.3
v 0.1 0.3 0
v 0.1 0.3 -0.2
v 0.1 0.4 0.3
v 0.1 0.4 0
v 0.2 0.1 0
v 0.2 0.1 -0.2
v 0.2 0.2 0
v 0.2 0.2 -0.2
v 0.2 0.3 0
v 0.2 0.3 -0.2
v 0.2 0.4 0
v 0.2 0.4 -0.2
v 0 0.2 -0.1
v 0 0.2 -0.2
v 0 0.3 -0.1
v 0 0.3 -0.2
v 0.1 0.2 0.5
v 0.1 0.2 0.4
v 0.1 0.3 0.5
v 0.1 0.3 0.4
v 0.2 0.1 0.3
v 0.2 0.1 0
v 0.2 0.2 0.4
v 0.2 0.2 0.3
v 0.2 0.2 0
v 0.2 0.3 0.4
v 0.2 0.3 0.3
v 0.2 0.3 0
v 0.2 0.4 0.3
v 0.2 0.4 0
v 0.3 0.1 0
v 0.3 0.1 -0.2
v 0.3 0.2 0.3
v 0.3 0.2 0.1
v 0.3 0.2 0
v 0.3 0.2 -0.2
v 0.3 0.3 0.3
v 0.3 0.3 0.1
v 0.3 0.3 0
v 0.3 0.3 -0.2
v 0.3 0.4 0
v 0.3 0.4 -0.2
v 0.4 0.1 -0.2
v 0.4 0.1 -0.4
v 0.4 0.2 0.1
v 0.4 0.2 -0.2
v 0.4 0.2 -0.4
v 0.4 0.3 0.1
v 0.4 0.3 -0.2
v 0.4 0.3 -0.4
v 0.4 0.4 -0.2
v 0.4 0.4 -0.4
v 0.5 0.2 -0.2
v 0.5 0.2 -0.5
v 0.5 0.3 -0.2
v 0.5 0.3 -0.5
v 0 0.2 0.5
v 0 0.3 0.5
v 0.1 0.2 0.5
v 0.1 0.3 0.5
v 0.1 0.2 0.4
v 0.1 0.3 0.4
v 0.2 0.2 0.4
v 0.2 0.3 0.4
v 0.1 0.1 0.3
v 0.1 0.2 0.3
v 0.1 0.3 0.3
v 0.1 0.4 0.3
v 0.2 0.1 0.3
v 0.2 0.2 0.3
v 0.2 0.3 0.3
v 0.2 0.4 0.3
v 0.3 0.2 0.3
v 0.3 0.3 0.3
v 0.3 0.2 0.1
v 0.3 0.3 0.1
v 0.4 0.2 0.1
v 0.4 0.3 0.1
v 0.2 0.1 0
v 0.2 0.2 0
v 0.2 0.3 0
v 0.2 0.4 0
v 0.3 0.1 0
v 0.3 0.2 0
v 0.3 0.3 0
v 0.3 0.4 0
v -0.3 0.2 -0.1
v -0.3 0.3 -0.1
v 0 0.2 -0.1
v 0 0.3 -0.1
v -0.4 0.2 -0.2
v -0.4 0.3 -0.2
v -0.3 0.2 -0.2
v -0.3 0.3 -0.2
v -0.2 0.1 -0.2
v -0.2 0.2 -0.2
v -0.2 0.3 -0.2
v -0.2 0.4 -0.2
v 0 0.2 -0.2
v 0 0.3 -0.2
v 0.1 0.1 -0.2
v 0.1 0.2 -0.2
v 0.1 0.3 -0.2
v 0.1 0.4 -0.2
v 0.2 0.1 -0.2
v 0.2 0.2 -0.2
v 0.2 0.3 -0.2
v 0.2 0.4 -0.2
v 0.3 0.1 -0.2
v 0.3 0.2 -0.2
v 0.3 0.3 -0.2
v 0.3 0.4 -0.2
v 0.4 0.1 -0.2
v 0.4 0.2 -0.2
v 0.4 0.3 -0.2
v 0.4 0.4 -0.2
v 0.5 0.2 -0.2
v 0.5 0.3 -0.2
v -0.5 0.2 -0.3
v -0.5 0.3 -0.3
v -0.4 0.2 -0.3
v -0.4 0.3 -0.3
v -0.3 0.1 -0.3
v -0.3 0.2 -0.3
v -0.3 0.3 -0.3
v -0.3 0.4 -0.3
v -0.2 0.1 -0.3
v -0.2 0.2 -0.3
v -0.2 0.3 -0.3
v -0.2 0.4 -0.3
v 0 0.2 0
v 0 0.3 0
v 0.1 0.1 0
v 0.1 0.2 0
v 0.1 0.3 0
v 0.1 0.4 0
v 0.2 0.1 0
v 0.2 0.2 0
v 0.2 0.3 0
v 0.2 0.4 0
v -0.3 0.1 -0.4
v -0.3 0.2 -0.4
v -0.3 0.3 -0.4
v -0.3 0.4 -0.4
v 0.2 0.1 -0.4
v 0.2 0.2 -0.4
v 0.2 0.3 -0.4
v 0.2 0.4 -0.4
v 0.4 0.1 -0.4
v 0.4 0.2 -0.4
v 0.4 0.3 -0.4
v 0.4 0.4 -0.4
v -0.5 0.2 -0.5
v -0.5 0.3 -0.5
v 0.5 0.2 -0.5
v 0.5 0.3 -0.5
v 0.1 0.1 0.3
v 0.2 0.1 0.3
v 0.1 0.1 0
v 0.2 0.1 0
v 0.3 0.1 0
v -0.2 0.1 -0.2
v 0.1 0.1 -0.2
v 0.2 0.1 -0.2
v 0.3 0.1 -0.2
v 0.4 0.1 -0.2
v -0.3 0.1 -0.3
v -0.2 0.1 -0.3
v 0.1 0.1 -0.3
v 0.2 0.1 -0.3
v 0.3 0.1 -0.3
v -0.3 0.1 -0.4
v 0.2 0.1 -0.4
v 0.4 0.1 -0.4
v 0 0.2 0.5
v 0.1 0.2 0.5
v 0 0.2 0.4
v 0.1 0.2 0.4
v 0.2 0.2 0.4
v 0.1 0.2 0.3
v 0.2 0.2 0.3
v 0.3 0.2 0.3
v 0.3 0.2 0.1
v 0.4 0.2 0.1
v 0 0.2 0
v 0.1 0.2 0
v 0.2 0.2 0
v 0.3 0.2 0
v -0.3 0.2 -0.1
v 0 0.2 -0.1
v -0.4 0.2 -0.2
v -0.3 0.2 -0.2
v -0.2 0.2 -0.2
v 0 0.2 -0.2
v 0.1 0.2 -0.2
v 0.2 0.2 -0.2
v 0.3 0.2 -0.2
v 0.4 0.2 -0.2
v 0.5 0.2 -0.2
v -0.5 0.2 -0.3
v -0.4 0.2 -0.3
v -0.3 0.2 -0.3
v -0.2 0.2 -0.3
v -0.5 0.2 -0.4
v -0.4 0.2 -0.4
v -0.3 0.2 -0.4
v 0.2 0.2 -0.4
v 0.4 0.2 -0.4
v -0.5 0.2 -0.5
v 0.5 0.2 -0.5
v 0 0.3 0.5
v 0.1 0.3 0.5
v 0 0.3 0.4
v 0.1 0.3 0.4
v 0.2 0.3 0.4
v 0.1 0.3 0.3
v 0.2 0.3 0.3
v 0.3 0.3 0.3
v 0.3 0.3 0.1
v 0.4 0.3 0.1
v 0 0.3 0
v 0.1 0.3 0
v 0.2 0.3 0
v 0.3 0.3 0
v -0.3 0.3 -0.1
v 0 0.3 -0.1
v -0.4 0.3 -0.2
v -0.3 0.3 -0.2
v -0.2 0.3 -0.2
v 0 0.3 -0.2
v 0.1 0.3 -0.2
v 0.2 0.3 -0.2
v 0.3 0.3 -0.2
v 0.4 0.3 -0.2
v 0.5 0.3 -0.2
v -0.5 0.3 -0.3
v -0.4 0.3 -0.3
v -0.3 0.3 -0.3
v -0.2 0.3 -0.3
v -0.5 0.3 -0.4
v -0.4 0.3 -0.4
v -0.3 0.3 -0.4
v 0.2 0.3 -0.4
v 0.4 0.3 -0.4
v -0.5 0.3 -0.5
v 0.5 0.3 -0.5
v 0.1 0.4 0.3
v 0.2 0.4 0.3
v 0.1 0.4 0
v 0.2 0.4 0
v 0.3 0.4 0
v -0.2 0.4 -0.2
v 0.1 0.4 -0.2
v 0.2 0.4 -0.2
v 0.3 0.4 -0.2
v 0.4 0.4 -0.2
v -0.3 0.4 -0.3
v -0.2 0.4 -0.3
v 0.1 0.4 -0.3
v 0.2 0.4 -0.3
v 0.3 0.4 -0.3
v -0.3 0.4 -0.4
v 0.2 0.4 -0.4
v 0.4 0.4 -0.4

# faces
f 4/3/1 2/3/1 1/3/1
f 5/1/1 3/1/1 2/1/1
f 5/3/1 2/3/1 4/3/1
f 6/1/1 3/1/1 5/1/1
f 9/3/1 8/3/1 7/3/1
f 10/3/1 8/3/1 9/3/1
f 15/2/1 12/2/1 11/2/1
f 16/2/1 12/2/1 15/2/1
f 17/3/1 14/3/1 13/3/1
f 18/3/1 14/3/1 17/3/1
f 21/2/1 20/2/1 19/2/1
f 22/2/1 20/2/1 21/2/1
f 25/3/1 24/3/1 23/3/1
f 26/3/1 24/3/1 25/3/1
f 29/3/1 28/3/1 27/3/1
f 30/3/1 28/3/1 29/3/1
f 34/1/1 32/1/1 31/1/1
f 35/3/1 33/3/1 32/3/1
f 35/1/1 32/1/1 34/1/1
f 36/3/1 33/3/1 35/3/1
f 39/2/1 38/2/1 37/2/1
f 40/2/1 38/2/1 39/2/1
f 43/3/1 41/3/1 40/3/1
f 44/3/1 41/3/1 43/3/1
f 45/2/1 43/2/1 42/2/1
f 46/2/1 43/2/1 45/2/1
f 49/2/1 48/2/1 47/2/1
f 50/2/1 48/2/1 49/2/1
f 53/2/1 52/2/1 51/2/1
f 54/2/1 52/2/1 53/2/1
f 55/3/2 56/3/2 57/3/2
f 57/3/2 56/3/2 58/3/2
f 59/1/2 60/1/2 61/1/2
f 61/1/2 60/1/2 62/1/2
f 63/2/2 64/2/2 66/2/2
f 66/2/2 64/2/2 67/2/2
f 65/1/2 66/1/2 68/1/2
f 68/1/2 66/1/2 69/1/2
f 69/2/2 70/2/2 71/2/2
f 71/2/2 70/2/2 72/2/2
f 73/2/2 74/2/2 77/2/2
f 77/2/2 74/2/2 78/2/2
f 75/1/2 76/1/2 79/1/2
f 79/1/2 76/1/2 80/1/2
f 81/2/2 82/2/2 83/2/2
f 83/2/2 82/2/2 84/2/2
f 85/1/2 86/1/2 88/1/2
f 88/1/2 86/1/2 89/1/2
f 87/1/2 88/1/2 90/1/2
f 90/1/2 88/1/2 91/1/2
f 91/1/2 92/1/2 93/1/2
f 93/1/2 92/1/2 94/1/2
f 95/1/2 96/1/2 97/1/2
f 97/1/2 96/1/2 98/1/2
f 101/1/3 100/1/3 99/1/3
f 102/1/3 100/1/3 101/1/3
f 105/1/3 104/1/3 103/1/3
f 106/1/3 104/1/3 105/1/3
f 111/2/3 108/2/3 107/2/3
f 112/2/3 108/2/3 111/2/3
f 113/2/3 110/2/3 109/2/3
f 114/2/3 110/2/3 113/2/3
f 115/1/3 113/1/3 112/1/3
f 116/1/3 113/1/3 115/1/3
f 119/1/3 118/1/3 117/1/3
f 120/1/3 118/1/3 119/1/3
f 125/2/3 122/2/3 121/2/3
f 126/2/3 122/2/3 125/2/3
f 127/2/3 124/2/3 123/2/3
f 128/2/3 124/2/3 127/2/3
f 131/3/3 130/3/3 129/3/3
f 132/3/3 130/3/3 131/3/3
f 135/3/3 134/3/3 133/3/3
f 136/3/3 134/3/3 135/3/3
f 141/3/3 138/3/3 137/3/3
f 142/3/3 140/3/3 139/3/3
f 143/3/3 141/3/3 137/3/3
f 144/2/3 142/2/3 141/2/3
f 144/3/3 141/3/3 143/3/3
f 145/3/3 140/3/3 142/3/3
f 145/2/3 142/2/3 144/2/3
f 146/3/3 140/3/3 145/3/3
f 147/2/3 144/2/3 143/2/3
f 148/2/3 144/2/3 147/2/3
f 149/2/3 146/2/3 145/2/3
f 150/2/3 146/2/3 149/2/3
f 155/1/3 152/1/3 151/1/3
f 156/1/3 152/1/3 155/1/3
f 157/1/3 154/1/3 153/1/3
f 158/1/3 154/1/3 157/1/3
f 159/1/3 157/1/3 156/1/3
f 160/1/3 157/1/3 159/1/3
f 163/3/3 162/3/3 161/3/3
f 164/3/3 162/3/3 163/3/3
f 169/2/3 166/2/3 165/2/3
f 170/2/3 166/2/3 169/2/3
f 171/2/3 168/2/3 167/2/3
f 172/2/3 168/2/3 171/2/3
f 173/3/4 174/3/4 176/3/4
f 176/3/4 174/3/4 177/3/4
f 175/2/4 176/2/4 179/2/4
f 179/2/4 176/2/4 180/2/4
f 177/2/4 178/2/4 181/2/4
f 181/2/4 178/2/4 182/2/4
f 183/2/4 184/2/4 187/2/4
f 187/2/4 184/2/4 188/2/4
f 185/2/4 186/2/4 189/2/4
f 189/2/4 186/2/4 190/2/4
f 187/1/4 188/1/4 191/1/4
f 191/1/4 188/1/4 192/1/4
f 189/1/4 190/1/4 193/1/4
f 193/1/4 190/1/4 194/1/4
f 195/1/4 196/1/4 197/1/4
f 197/1/4 196/1/4 198/1/4
f 201/2/5 200/2/5 199/2/5
f 202/2/5 200/2/5 201/2/5
f 206/2/5 203/2/5 202/2/5
f 207/2/5 203/2/5 206/2/5
f 210/3/5 205/3/5 204/3/5
f 211/2/5 206/2/5 205/2/5
f 211/2/5 207/2/5 206/2/5
f 211/3/5 205/3/5 210/3/5
f 212/2/5 207/2/5 211/2/5
f 213/1/5 208/1/5 207/1/5
f 213/2/5 207/2/5 212/2/5
f 214/2/5 212/2/5 211/2/5
f 214/2/5 210/2/5 209/2/5
f 214/2/5 211/2/5 210/2/5
f 215/1/5 213/1/5 212/1/5
f 215/2/5 212/2/5 214/2/5
f 216/1/5 208/1/5 213/1/5
f 216/1/5 213/1/5 215/1/5
f 219/1/5 218/1/5 217/1/5
f 220/1/5 218/1/5 219/1/5
f 222/3/5 220/3/5 219/3/5
f 222/1/5 221/1/5 220/1/5
f 223/1/5 221/1/5 222/1/5
f 225/1/5 224/1/5 223/1/5
f 227/3/5 222/3/5 219/3/5
f 228/3/5 222/3/5 227/3/5
f 229/1/5 226/1/5 225/1/5
f 229/1/5 225/1/5 223/1/5
f 230/1/5 226/1/5 229/1/5
f 234/3/5 232/3/5 231/3/5
f 235/3/5 232/3/5 234/3/5
f 236/3/5 232/3/5 235/3/5
f 237/3/5 229/3/5 228/3/5
f 238/3/5 229/3/5 237/3/5
f 239/1/5 226/1/5 230/1/5
f 240/1/5 226/1/5 239/1/5
f 243/3/5 234/3/5 233/3/5
f 244/2/5 235/2/5 234/2/5
f 244/3/5 234/3/5 243/3/5
f 245/2/5 235/2/5 244/2/5
f 246/3/5 243/3/5 242/3/5
f 247/2/5 244/2/5 243/2/5
f 247/3/5 243/3/5 246/3/5
f 248/2/5 244/2/5 247/2/5
f 250/1/5 241/1/5 240/1/5
f 251/1/5 249/1/5 248/1/5
f 251/1/5 250/1/5 249/1/5
f 251/1/5 248/1/5 247/1/5
f 251/1/5 247/1/5 246/1/5
f 252/1/5 241/1/5 250/1/5
f 252/1/5 250/1/5 251/1/5
f 253/1/6 254/1/6 255/1/6
f 255/1/6 254/1/6 256/1/6
f 255/3/6 256/3/6 258/3/6
f 256/1/6 257/1/6 258/1/6
f 258/1/6 257/1/6 259/1/6
f 259/1/6 260/1/6 261/1/6
f 255/3/6 258/3/6 263/3/6
f 263/3/6 258/3/6 264/3/6
f 261/1/6 262/1/6 265/1/6
f 259/1/6 261/1/6 265/1/6
f 265/1/6 262/1/6 266/1/6
f 267/3/6 268/3/6 270/3/6
f 270/3/6 268/3/6 271/3/6
f 271/3/6 268/3/6 272/3/6
f 264/3/6 265/3/6 273/3/6
f 273/3/6 265/3/6 274/3/6
f 266/1/6 262/1/6 275/1/6
f 275/1/6 262/1/6 276/1/6
f 269/3/6 270/3/6 279/3/6
f 270/2/6 271/2/6 280/2/6
f 279/3/6 270/3/6 280/3/6
f 280/2/6 271/2/6 281/2/6
f 278/3/6 279/3/6 282/3/6
f 279/2/6 280/2/6 283/2/6
f 282/3/6 279/3/6 283/3/6
f 283/2/6 280/2/6 284/2/6
f 276/1/6 277/1/6 286/1/6
f 284/1/6 285/1/6 287/1/6
f 285/1/6 286/1/6 287/1/6
f 283/1/6 284/1/6 287/1/6
f 282/1/6 283/1/6 287/1/6
f 286/1/6 277/1/6 288/1/6
f 287/1/6 286/1/6 288/1/6
f 289/2/6 290/2/6 291/2/6
f 291/2/6 290/2/6 292/2/6
f 292/2/6 293/2/6 296/2/6
f 296/2/6 293/2/6 297/2/6
f 294/3/6 295/3/6 300/3/6
f 295/2/6 296/2/6 301/2/6
f 296/2/6 297/2/6 301/2/6
f 300/3/6 295/3/6 301/3/6
f 301/2/6 297/2/6 302/2/6
f 297/1/6 298/1/6 303/1/6
f 302/2/6 297/2/6 303/2/6
f 301/2/6 302/2/6 304/2/6
f 299/2/6 300/2/6 304/2/6
f 300/2/6 301/2/6 304/2/6
f 302/1/6 303/1/6 305/1/6
f 304/2/6 302/2/6 305/2/6
f 303/1/6 298/1/6 306/1/6
f 305/1/6 303/1/6 306/1/6
