# MagicaVoxel @ Ephtracy

# group
o 

# material
mtllib Block_RiverinGrass_01.mtl
usemtl palette

# normals
vn -1 0 0
vn 1 0 0
vn 0 0 1
vn 0 0 -1
vn 0 -1 0
vn 0 1 0

# texcoords
vt 0.279297 0.5
vt 0.498047 0.5
vt 0.556641 0.5
vt 0.583984 0.5

# verts
v -3.2 0 3.2
v -3.2 0 -3.2
v -3.2 0.3 3.2
v -3.2 0.3 -3.2
v -3.2 0.6 3.2
v -3.2 0.6 -3.2
v 0.8 0.1 3.2
v 0.8 0.1 -3.2
v 0.8 0.2 2.8
v 0.8 0.2 2.4
v 0.8 0.2 -0.8
v 0.8 0.2 -1.4
v 0.8 0.3 3.2
v 0.8 0.3 2.8
v 0.8 0.3 2.4
v 0.8 0.3 -0.8
v 0.8 0.3 -1.4
v 0.8 0.3 -3.2
v 0.9 0.2 2.8
v 0.9 0.2 2.4
v 0.9 0.2 -0.8
v 0.9 0.2 -1.4
v 0.9 0.3 3.2
v 0.9 0.3 2.8
v 0.9 0.3 2.4
v 0.9 0.3 -0.8
v 0.9 0.3 -1.4
v 0.9 0.3 -3.2
v 0.9 0.5 2.9
v 0.9 0.5 2.7
v 0.9 0.5 1.1
v 0.9 0.5 0.0999999
v 0.9 0.5 -2.5
v 0.9 0.5 -3.1
v 0.9 0.6 3.2
v 0.9 0.6 2.9
v 0.9 0.6 2.7
v 0.9 0.6 1.1
v 0.9 0.6 0.0999999
v 0.9 0.6 -2.5
v 0.9 0.6 -3.1
v 0.9 0.6 -3.2
v 1 0.5 2.9
v 1 0.5 2.7
v 1 0.5 1.1
v 1 0.5 0.0999999
v 1 0.5 -2.5
v 1 0.5 -3.1
v 1 0.6 2.9
v 1 0.6 2.7
v 1 0.6 1.1
v 1 0.6 0.0999999
v 1 0.6 -2.5
v 1 0.6 -3.1
v -1 0.5 2.5
v -1 0.5 1.4
v -1 0.5 0
v -1 0.5 -1
v -1 0.6 2.5
v -1 0.6 1.4
v -1 0.6 0
v -1 0.6 -1
v -0.9 0.2 1.3
v -0.9 0.2 1
v -0.9 0.2 0.0999999
v -0.9 0.2 -0.4
v -0.9 0.3 3.2
v -0.9 0.3 1.3
v -0.9 0.3 1
v -0.9 0.3 0.0999999
v -0.9 0.3 -0.4
v -0.9 0.3 -3.2
v -0.9 0.5 2.5
v -0.9 0.5 1.4
v -0.9 0.5 0
v -0.9 0.5 -1
v -0.9 0.6 3.2
v -0.9 0.6 2.5
v -0.9 0.6 1.4
v -0.9 0.6 0
v -0.9 0.6 -1
v -0.9 0.6 -3.2
v -0.8 0.1 3.2
v -0.8 0.1 -3.2
v -0.8 0.2 1.3
v -0.8 0.2 1
v -0.8 0.2 0.0999999
v -0.8 0.2 -0.4
v -0.8 0.3 3.2
v -0.8 0.3 1.3
v -0.8 0.3 1
v -0.8 0.3 0.0999999
v -0.8 0.3 -0.4
v -0.8 0.3 -3.2
v 3.2 0 3.2
v 3.2 0 -3.2
v 3.2 0.3 3.2
v 3.2 0.3 -3.2
v 3.2 0.6 3.2
v 3.2 0.6 -3.2
v -3.2 0 3.2
v -3.2 0.3 3.2
v -3.2 0.6 3.2
v -1.3 0.5 3.2
v -1.3 0.6 3.2
v -1.2 0.4 3.2
v -1.2 0.5 3.2
v -1.1 0.3 3.2
v -1.1 0.4 3.2
v -1 0.2 3.2
v -1 0.3 3.2
v -0.9 0.1 3.2
v -0.9 0.2 3.2
v -0.9 0.3 3.2
v -0.9 0.6 3.2
v -0.8 0 3.2
v -0.8 0.1 3.2
v -0.8 0.3 3.2
v 0.8 0 3.2
v 0.8 0.1 3.2
v 0.8 0.3 3.2
v 0.9 0.1 3.2
v 0.9 0.2 3.2
v 0.9 0.3 3.2
v 0.9 0.6 3.2
v 1 0.2 3.2
v 1 0.3 3.2
v 1.1 0.3 3.2
v 1.1 0.4 3.2
v 1.2 0.4 3.2
v 1.2 0.5 3.2
v 1.3 0.5 3.2
v 1.3 0.6 3.2
v 3.2 0 3.2
v 3.2 0.3 3.2
v 3.2 0.6 3.2
v 0.9 0.5 2.7
v 0.9 0.6 2.7
v 1 0.5 2.7
v 1 0.6 2.7
v 0.8 0.2 2.4
v 0.8 0.3 2.4
v 0.9 0.2 2.4
v 0.9 0.3 2.4
v -1 0.5 1.4
v -1 0.6 1.4
v -0.9 0.5 1.4
v -0.9 0.6 1.4
v -0.9 0.2 1
v -0.9 0.3 1
v -0.8 0.2 1
v -0.8 0.3 1
v 0.9 0.5 0.0999999
v 0.9 0.6 0.0999999
v 1 0.5 0.0999999
v 1 0.6 0.0999999
v -0.9 0.2 -0.4
v -0.9 0.3 -0.4
v -0.8 0.2 -0.4
v -0.8 0.3 -0.4
v -1 0.5 -1
v -1 0.6 -1
v -0.9 0.5 -1
v -0.9 0.6 -1
v 0.8 0.2 -1.4
v 0.8 0.3 -1.4
v 0.9 0.2 -1.4
v 0.9 0.3 -1.4
v 0.9 0.5 -3.1
v 0.9 0.6 -3.1
v 1 0.5 -3.1
v 1 0.6 -3.1
v 0.9 0.5 2.9
v 0.9 0.6 2.9
v 1 0.5 2.9
v 1 0.6 2.9
v 0.8 0.2 2.8
v 0.8 0.3 2.8
v 0.9 0.2 2.8
v 0.9 0.3 2.8
v -1 0.5 2.5
v -1 0.6 2.5
v -0.9 0.5 2.5
v -0.9 0.6 2.5
v -0.9 0.2 1.3
v -0.9 0.3 1.3
v -0.8 0.2 1.3
v -0.8 0.3 1.3
v 0.9 0.5 1.1
v 0.9 0.6 1.1
v 1 0.5 1.1
v 1 0.6 1.1
v -0.9 0.2 0.0999999
v -0.9 0.3 0.0999999
v -0.8 0.2 0.0999999
v -0.8 0.3 0.0999999
v -1 0.5 0
v -1 0.6 0
v -0.9 0.5 0
v -0.9 0.6 0
v 0.8 0.2 -0.8
v 0.8 0.3 -0.8
v 0.9 0.2 -0.8
v 0.9 0.3 -0.8
v 0.9 0.5 -2.5
v 0.9 0.6 -2.5
v 1 0.5 -2.5
v 1 0.6 -2.5
v -3.2 0 -3.2
v -3.2 0.3 -3.2
v -3.2 0.6 -3.2
v -1.3 0.5 -3.2
v -1.3 0.6 -3.2
v -1.2 0.4 -3.2
v -1.2 0.5 -3.2
v -1.1 0.3 -3.2
v -1.1 0.4 -3.2
v -1 0.2 -3.2
v -1 0.3 -3.2
v -0.9 0.1 -3.2
v -0.9 0.2 -3.2
v -0.9 0.3 -3.2
v -0.9 0.6 -3.2
v -0.8 0 -3.2
v -0.8 0.1 -3.2
v -0.8 0.3 -3.2
v 0.8 0 -3.2
v 0.8 0.1 -3.2
v 0.8 0.3 -3.2
v 0.9 0.1 -3.2
v 0.9 0.2 -3.2
v 0.9 0.3 -3.2
v 0.9 0.6 -3.2
v 1 0.2 -3.2
v 1 0.3 -3.2
v 1.1 0.3 -3.2
v 1.1 0.4 -3.2
v 1.2 0.4 -3.2
v 1.2 0.5 -3.2
v 1.3 0.5 -3.2
v 1.3 0.6 -3.2
v 3.2 0 -3.2
v 3.2 0.3 -3.2
v 3.2 0.6 -3.2
v -3.2 0 3.2
v -0.8 0 3.2
v 0.8 0 3.2
v 3.2 0 3.2
v -3.2 0 -3.2
v -0.8 0 -3.2
v 0.8 0 -3.2
v 3.2 0 -3.2
v -0.8 0.1 3.2
v 0.8 0.1 3.2
v -0.8 0.1 -3.2
v 0.8 0.1 -3.2
v 0.8 0.2 2.8
v 0.9 0.2 2.8
v 0.8 0.2 2.4
v 0.9 0.2 2.4
v -0.9 0.2 1.3
v -0.8 0.2 1.3
v -0.9 0.2 1
v -0.8 0.2 1
v -0.9 0.2 0.0999999
v -0.8 0.2 0.0999999
v -0.9 0.2 -0.4
v -0.8 0.2 -0.4
v 0.8 0.2 -0.8
v 0.9 0.2 -0.8
v 0.8 0.2 -1.4
v 0.9 0.2 -1.4
v -0.9 0.3 3.2
v -0.8 0.3 3.2
v 0.8 0.3 3.2
v 0.9 0.3 3.2
v 0.8 0.3 2.8
v 0.9 0.3 2.8
v 0.8 0.3 2.4
v 0.9 0.3 2.4
v -0.9 0.3 1.3
v -0.8 0.3 1.3
v -0.9 0.3 1
v -0.8 0.3 1
v -0.9 0.3 0.0999999
v -0.8 0.3 0.0999999
v -0.9 0.3 -0.4
v -0.8 0.3 -0.4
v 0.8 0.3 -0.8
v 0.9 0.3 -0.8
v 0.8 0.3 -1.4
v 0.9 0.3 -1.4
v -0.9 0.3 -3.2
v -0.8 0.3 -3.2
v 0.8 0.3 -3.2
v 0.9 0.3 -3.2
v 0.9 0.5 2.9
v 1 0.5 2.9
v 0.9 0.5 2.7
v 1 0.5 2.7
v -1 0.5 2.5
v -0.9 0.5 2.5
v -1 0.5 1.4
v -0.9 0.5 1.4
v 0.9 0.5 1.1
v 1 0.5 1.1
v 0.9 0.5 0.0999999
v 1 0.5 0.0999999
v -1 0.5 0
v -0.9 0.5 0
v -1 0.5 -1
v -0.9 0.5 -1
v 0.9 0.5 -2.5
v 1 0.5 -2.5
v 0.9 0.5 -3.1
v 1 0.5 -3.1
v -3.2 0.6 3.2
v -1.3 0.6 3.2
v -0.9 0.6 3.2
v 0.9 0.6 3.2
v 1.3 0.6 3.2
v 3.2 0.6 3.2
v 0.9 0.6 2.9
v 1 0.6 2.9
v 0.9 0.6 2.7
v 1 0.6 2.7
v -1 0.6 2.5
v -0.9 0.6 2.5
v -1 0.6 1.4
v -0.9 0.6 1.4
v 0.9 0.6 1.1
v 1 0.6 1.1
v 0.9 0.6 0.0999999
v 1 0.6 0.0999999
v -1 0.6 0
v -0.9 0.6 0
v -1 0.6 -1
v -0.9 0.6 -1
v 0.9 0.6 -2.5
v 1 0.6 -2.5
v 0.9 0.6 -3.1
v 1 0.6 -3.1
v -3.2 0.6 -3.2
v -1.3 0.6 -3.2
v -0.9 0.6 -3.2
v 0.9 0.6 -3.2
v 1.3 0.6 -3.2
v 3.2 0.6 -3.2

# faces
f 3/1/1 2/1/1 1/1/1
f 4/1/1 2/1/1 3/1/1
f 5/4/1 4/4/1 3/4/1
f 6/4/1 4/4/1 5/4/1
f 9/2/1 8/2/1 7/2/1
f 10/2/1 8/2/1 9/2/1
f 11/2/1 8/2/1 10/2/1
f 12/2/1 8/2/1 11/2/1
f 13/2/1 9/2/1 7/2/1
f 14/2/1 9/2/1 13/2/1
f 15/2/1 11/2/1 10/2/1
f 16/2/1 11/2/1 15/2/1
f 17/2/1 8/2/1 12/2/1
f 18/2/1 8/2/1 17/2/1
f 24/2/1 20/2/1 19/2/1
f 25/2/1 20/2/1 24/2/1
f 26/2/1 22/2/1 21/2/1
f 27/2/1 22/2/1 26/2/1
f 29/2/1 25/2/1 24/2/1
f 29/2/1 28/2/1 27/2/1
f 29/2/1 27/2/1 26/2/1
f 29/2/1 26/2/1 25/2/1
f 29/2/1 24/2/1 23/2/1
f 30/2/1 28/2/1 29/2/1
f 31/2/1 28/2/1 30/2/1
f 32/2/1 28/2/1 31/2/1
f 33/2/1 28/2/1 32/2/1
f 34/2/1 28/2/1 33/2/1
f 35/2/1 29/2/1 23/2/1
f 36/2/1 29/2/1 35/2/1
f 37/2/1 31/2/1 30/2/1
f 38/2/1 31/2/1 37/2/1
f 39/2/1 33/2/1 32/2/1
f 40/2/1 33/2/1 39/2/1
f 41/2/1 28/2/1 34/2/1
f 42/2/1 28/2/1 41/2/1
f 49/2/1 44/2/1 43/2/1
f 50/2/1 44/2/1 49/2/1
f 51/2/1 46/2/1 45/2/1
f 52/2/1 46/2/1 51/2/1
f 53/2/1 48/2/1 47/2/1
f 54/2/1 48/2/1 53/2/1
f 55/2/2 56/2/2 59/2/2
f 59/2/2 56/2/2 60/2/2
f 57/2/2 58/2/2 61/2/2
f 61/2/2 58/2/2 62/2/2
f 63/2/2 64/2/2 68/2/2
f 68/2/2 64/2/2 69/2/2
f 65/2/2 66/2/2 70/2/2
f 70/2/2 66/2/2 71/2/2
f 68/2/2 69/2/2 73/2/2
f 71/2/2 72/2/2 73/2/2
f 70/2/2 71/2/2 73/2/2
f 69/2/2 70/2/2 73/2/2
f 67/2/2 68/2/2 73/2/2
f 73/2/2 72/2/2 74/2/2
f 74/2/2 72/2/2 75/2/2
f 75/2/2 72/2/2 76/2/2
f 67/2/2 73/2/2 77/2/2
f 77/2/2 73/2/2 78/2/2
f 74/2/2 75/2/2 79/2/2
f 79/2/2 75/2/2 80/2/2
f 76/2/2 72/2/2 81/2/2
f 81/2/2 72/2/2 82/2/2
f 83/2/2 84/2/2 85/2/2
f 85/2/2 84/2/2 86/2/2
f 86/2/2 84/2/2 87/2/2
f 87/2/2 84/2/2 88/2/2
f 83/2/2 85/2/2 89/2/2
f 89/2/2 85/2/2 90/2/2
f 86/2/2 87/2/2 91/2/2
f 91/2/2 87/2/2 92/2/2
f 88/2/2 84/2/2 93/2/2
f 93/2/2 84/2/2 94/2/2
f 95/1/2 96/1/2 97/1/2
f 97/1/2 96/1/2 98/1/2
f 97/4/2 98/4/2 99/4/2
f 99/4/2 98/4/2 100/4/2
f 104/4/3 103/4/3 102/4/3
f 105/4/3 103/4/3 104/4/3
f 106/4/3 104/4/3 102/4/3
f 107/2/3 105/2/3 104/2/3
f 107/4/3 104/4/3 106/4/3
f 108/1/3 102/1/3 101/1/3
f 108/4/3 106/4/3 102/4/3
f 109/2/3 107/2/3 106/2/3
f 109/4/3 106/4/3 108/4/3
f 110/1/3 108/1/3 101/1/3
f 111/2/3 109/2/3 108/2/3
f 111/1/3 108/1/3 110/1/3
f 112/1/3 110/1/3 101/1/3
f 113/2/3 111/2/3 110/2/3
f 113/1/3 110/1/3 112/1/3
f 114/2/3 109/2/3 111/2/3
f 114/2/3 111/2/3 113/2/3
f 115/2/3 105/2/3 107/2/3
f 115/2/3 109/2/3 114/2/3
f 115/2/3 107/2/3 109/2/3
f 116/1/3 112/1/3 101/1/3
f 117/2/3 114/2/3 113/2/3
f 117/1/3 112/1/3 116/1/3
f 117/2/3 113/2/3 112/2/3
f 118/2/3 114/2/3 117/2/3
f 119/2/3 117/2/3 116/2/3
f 120/2/3 117/2/3 119/2/3
f 122/1/3 120/1/3 119/1/3
f 122/2/3 121/2/3 120/2/3
f 123/2/3 121/2/3 122/2/3
f 124/2/3 121/2/3 123/2/3
f 126/2/3 124/2/3 123/2/3
f 126/2/3 125/2/3 124/2/3
f 126/1/3 123/1/3 122/1/3
f 127/2/3 125/2/3 126/2/3
f 128/1/3 127/1/3 126/1/3
f 128/2/3 125/2/3 127/2/3
f 129/2/3 125/2/3 128/2/3
f 130/4/3 129/4/3 128/4/3
f 130/2/3 125/2/3 129/2/3
f 131/2/3 125/2/3 130/2/3
f 132/4/3 131/4/3 130/4/3
f 132/2/3 125/2/3 131/2/3
f 133/2/3 125/2/3 132/2/3
f 134/1/3 122/1/3 119/1/3
f 134/1/3 126/1/3 122/1/3
f 134/1/3 128/1/3 126/1/3
f 135/4/3 133/4/3 132/4/3
f 135/1/3 128/1/3 134/1/3
f 135/4/3 132/4/3 130/4/3
f 135/4/3 130/4/3 128/4/3
f 136/4/3 133/4/3 135/4/3
f 139/2/3 138/2/3 137/2/3
f 140/2/3 138/2/3 139/2/3
f 143/2/3 142/2/3 141/2/3
f 144/2/3 142/2/3 143/2/3
f 147/2/3 146/2/3 145/2/3
f 148/2/3 146/2/3 147/2/3
f 151/2/3 150/2/3 149/2/3
f 152/2/3 150/2/3 151/2/3
f 155/2/3 154/2/3 153/2/3
f 156/2/3 154/2/3 155/2/3
f 159/2/3 158/2/3 157/2/3
f 160/2/3 158/2/3 159/2/3
f 163/2/3 162/2/3 161/2/3
f 164/2/3 162/2/3 163/2/3
f 167/2/3 166/2/3 165/2/3
f 168/2/3 166/2/3 167/2/3
f 171/2/3 170/2/3 169/2/3
f 172/2/3 170/2/3 171/2/3
f 173/2/4 174/2/4 175/2/4
f 175/2/4 174/2/4 176/2/4
f 177/2/4 178/2/4 179/2/4
f 179/2/4 178/2/4 180/2/4
f 181/2/4 182/2/4 183/2/4
f 183/2/4 182/2/4 184/2/4
f 185/2/4 186/2/4 187/2/4
f 187/2/4 186/2/4 188/2/4
f 189/2/4 190/2/4 191/2/4
f 191/2/4 190/2/4 192/2/4
f 193/2/4 194/2/4 195/2/4
f 195/2/4 194/2/4 196/2/4
f 197/2/4 198/2/4 199/2/4
f 199/2/4 198/2/4 200/2/4
f 201/2/4 202/2/4 203/2/4
f 203/2/4 202/2/4 204/2/4
f 205/2/4 206/2/4 207/2/4
f 207/2/4 206/2/4 208/2/4
f 210/4/4 211/4/4 212/4/4
f 212/4/4 211/4/4 213/4/4
f 210/4/4 212/4/4 214/4/4
f 212/2/4 213/2/4 215/2/4
f 214/4/4 212/4/4 215/4/4
f 209/1/4 210/1/4 216/1/4
f 210/4/4 214/4/4 216/4/4
f 214/2/4 215/2/4 217/2/4
f 216/4/4 214/4/4 217/4/4
f 209/1/4 216/1/4 218/1/4
f 216/2/4 217/2/4 219/2/4
f 218/1/4 216/1/4 219/1/4
f 209/1/4 218/1/4 220/1/4
f 218/2/4 219/2/4 221/2/4
f 220/1/4 218/1/4 221/1/4
f 219/2/4 217/2/4 222/2/4
f 221/2/4 219/2/4 222/2/4
f 215/2/4 213/2/4 223/2/4
f 222/2/4 217/2/4 223/2/4
f 217/2/4 215/2/4 223/2/4
f 209/1/4 220/1/4 224/1/4
f 221/2/4 222/2/4 225/2/4
f 224/1/4 220/1/4 225/1/4
f 220/2/4 221/2/4 225/2/4
f 225/2/4 222/2/4 226/2/4
f 224/2/4 225/2/4 227/2/4
f 227/2/4 225/2/4 228/2/4
f 227/1/4 228/1/4 230/1/4
f 228/2/4 229/2/4 230/2/4
f 230/2/4 229/2/4 231/2/4
f 231/2/4 229/2/4 232/2/4
f 231/2/4 232/2/4 234/2/4
f 232/2/4 233/2/4 234/2/4
f 230/1/4 231/1/4 234/1/4
f 234/2/4 233/2/4 235/2/4
f 234/1/4 235/1/4 236/1/4
f 235/2/4 233/2/4 236/2/4
f 236/2/4 233/2/4 237/2/4
f 236/4/4 237/4/4 238/4/4
f 237/2/4 233/2/4 238/2/4
f 238/2/4 233/2/4 239/2/4
f 238/4/4 239/4/4 240/4/4
f 239/2/4 233/2/4 240/2/4
f 240/2/4 233/2/4 241/2/4
f 227/1/4 230/1/4 242/1/4
f 230/1/4 234/1/4 242/1/4
f 234/1/4 236/1/4 242/1/4
f 240/4/4 241/4/4 243/4/4
f 242/1/4 236/1/4 243/1/4
f 238/4/4 240/4/4 243/4/4
f 236/4/4 238/4/4 243/4/4
f 243/4/4 241/4/4 244/4/4
f 249/1/5 246/1/5 245/1/5
f 250/2/5 247/2/5 246/2/5
f 250/1/5 246/1/5 249/1/5
f 251/1/5 248/1/5 247/1/5
f 251/2/5 247/2/5 250/2/5
f 252/1/5 248/1/5 251/1/5
f 253/2/6 254/2/6 255/2/6
f 255/2/6 254/2/6 256/2/6
f 257/2/6 258/2/6 259/2/6
f 259/2/6 258/2/6 260/2/6
f 261/2/6 262/2/6 263/2/6
f 263/2/6 262/2/6 264/2/6
f 265/2/6 266/2/6 267/2/6
f 267/2/6 266/2/6 268/2/6
f 269/2/6 270/2/6 271/2/6
f 271/2/6 270/2/6 272/2/6
f 275/2/6 276/2/6 277/2/6
f 277/2/6 276/2/6 278/2/6
f 273/2/6 274/2/6 281/2/6
f 281/2/6 274/2/6 282/2/6
f 283/2/6 284/2/6 285/2/6
f 285/2/6 284/2/6 286/2/6
f 279/2/6 280/2/6 289/2/6
f 289/2/6 280/2/6 290/2/6
f 287/2/6 288/2/6 293/2/6
f 293/2/6 288/2/6 294/2/6
f 291/2/6 292/2/6 295/2/6
f 295/2/6 292/2/6 296/2/6
f 297/2/6 298/2/6 299/2/6
f 299/2/6 298/2/6 300/2/6
f 301/2/6 302/2/6 303/2/6
f 303/2/6 302/2/6 304/2/6
f 305/2/6 306/2/6 307/2/6
f 307/2/6 306/2/6 308/2/6
f 309/2/6 310/2/6 311/2/6
f 311/2/6 310/2/6 312/2/6
f 313/2/6 314/2/6 315/2/6
f 315/2/6 314/2/6 316/2/6
f 320/2/6 321/2/6 323/2/6
f 323/2/6 321/2/6 324/2/6
f 324/2/6 321/2/6 326/2/6
f 318/2/6 319/2/6 327/2/6
f 327/2/6 319/2/6 328/2/6
f 318/2/6 327/2/6 329/2/6
f 325/2/6 326/2/6 331/2/6
f 326/2/6 321/2/6 332/2/6
f 331/2/6 326/2/6 332/2/6
f 332/2/6 321/2/6 334/2/6
f 329/2/6 330/2/6 335/2/6
f 318/2/6 329/2/6 335/2/6
f 335/2/6 330/2/6 336/2/6
f 318/2/6 335/2/6 337/2/6
f 333/2/6 334/2/6 339/2/6
f 334/2/6 321/2/6 340/2/6
f 339/2/6 334/2/6 340/2/6
f 340/2/6 321/2/6 342/2/6
f 317/4/6 318/4/6 343/4/6
f 337/2/6 338/2/6 344/2/6
f 343/4/6 318/4/6 344/4/6
f 318/2/6 337/2/6 344/2/6
f 344/2/6 338/2/6 345/2/6
f 341/2/6 342/2/6 346/2/6
f 321/4/6 322/4/6 347/4/6
f 346/2/6 342/2/6 347/2/6
f 342/2/6 321/2/6 347/2/6
f 347/4/6 322/4/6 348/4/6
