# MagicaVoxel @ Ephtracy

# group
o 

# material
mtllib Block_Netr_GZ_03.mtl
usemtl palette

# normals
vn -1 0 0
vn 1 0 0
vn 0 0 1
vn 0 0 -1
vn 0 -1 0
vn 0 1 0

# texcoords
vt 0.279297 0.5
vt 0.501953 0.5
vt 0.583984 0.5
vt 0.646484 0.5
vt 0.970703 0.5

# verts
v -3.2 0 3.2
v -3.2 0 -3.2
v -3.2 0.1 3.2
v -3.2 0.1 2.2
v -3.2 0.1 -3.2
v -3.2 3.2 3.2
v -3.2 3.2 2.2
v -3.2 3.2 -3.2
v 3.2 0 3.2
v 3.2 0 -3.2
v 3.2 0.1 3.2
v 3.2 0.1 2.2
v 3.2 0.1 -3.2
v 3.2 3.2 3.2
v 3.2 3.2 2.2
v 3.2 3.2 -3.2
v -3.2 0 3.2
v -3.2 0.1 3.2
v -3.2 3.2 3.2
v 3.2 0 3.2
v 3.2 0.1 3.2
v 3.2 3.2 3.2
v -3.2 0 -3.2
v -3.2 0.1 -3.2
v -3.2 3.2 -3.2
v 3.2 0 -3.2
v 3.2 0.1 -3.2
v 3.2 3.2 -3.2
v -3.2 0 3.2
v 3.2 0 3.2
v -3.2 0 -3.2
v 3.2 0 -3.2
v -3.2 3.2 3.2
v 3.2 3.2 3.2
v -1.1 3.2 3.1
v -0.9 3.2 3.1
v -1.9 3.2 3
v -1.7 3.2 3
v 0 3.2 3
v 0.4 3.2 3
v 0.9 3.2 3
v 1.1 3.2 3
v -2.4 3.2 2.9
v -2 3.2 2.9
v -1.1 3.2 2.9
v -0.9 3.2 2.9
v 0.1 3.2 2.9
v 0.3 3.2 2.9
v 1.7 3.2 2.9
v 1.9 3.2 2.9
v -2.7 3.2 2.8
v -2.5 3.2 2.8
v -2.3 3.2 2.8
v -2.1 3.2 2.8
v -1.9 3.2 2.8
v -1.7 3.2 2.8
v -1.2 3.2 2.8
v -0.8 3.2 2.8
v 0.5 3.2 2.8
v 0.7 3.2 2.8
v 0.9 3.2 2.8
v 1.1 3.2 2.8
v 2 3.2 2.8
v 2.4 3.2 2.8
v 2.5 3.2 2.8
v 2.7 3.2 2.8
v -2 3.2 2.7
v -1.6 3.2 2.7
v 0.1 3.2 2.7
v 0.3 3.2 2.7
v 0.8 3.2 2.7
v 1.2 3.2 2.7
v 1.7 3.2 2.7
v 1.9 3.2 2.7
v 2.1 3.2 2.7
v 2.3 3.2 2.7
v -2.7 3.2 2.6
v -2.5 3.2 2.6
v -2.3 3.2 2.6
v -2.1 3.2 2.6
v -1.9 3.2 2.6
v -1.7 3.2 2.6
v 0.5 3.2 2.6
v 0.7 3.2 2.6
v 1.6 3.2 2.6
v 2 3.2 2.6
v 2.5 3.2 2.6
v 2.7 3.2 2.6
v -2.8 3.2 2.5
v -2.4 3.2 2.5
v -0.8 3.2 2.5
v -0.4 3.2 2.5
v -0.3 3.2 2.5
v -0.0999999 3.2 2.5
v 0.4 3.2 2.5
v 0.8 3.2 2.5
v 2.1 3.2 2.5
v 2.3 3.2 2.5
v 2.4 3.2 2.5
v 2.8 3.2 2.5
v -1.9 3.2 2.4
v -1.7 3.2 2.4
v -1.6 3.2 2.4
v -1.2 3.2 2.4
v -0.7 3.2 2.4
v -0.5 3.2 2.4
v 1.2 3.2 2.4
v 1.6 3.2 2.4
v -0.3 3.2 2.3
v -0.0999999 3.2 2.3
v 1.3 3.2 2.3
v 1.5 3.2 2.3
v -3.2 3.2 2.2
v -2.8 3.2 2.2
v -0.7 3.2 2.2
v -0.5 3.2 2.2
v -0.4 3.2 2.2
v 0 3.2 2.2
v 2.8 3.2 2.2
v 3.2 3.2 2.2
v -3.1 3.2 2.1
v -2.9 3.2 2.1
v -0.3 3.2 2.1
v -0.0999999 3.2 2.1
v 1.3 3.2 2.1
v 1.5 3.2 2.1
v 2.9 3.2 2.1
v 3.1 3.2 2.1
v -3.1 3.2 1.9
v -2.9 3.2 1.9
v -0.3 3.2 1.9
v -0.0999999 3.2 1.9
v 2.9 3.2 1.9
v 3.1 3.2 1.9
v -3.2 3.2 -3.2
v 3.2 3.2 -3.2

# faces
f 3/1/1 2/1/1 1/1/1
f 4/1/1 2/1/1 3/1/1
f 5/1/1 2/1/1 4/1/1
f 6/3/1 4/3/1 3/3/1
f 7/5/1 5/5/1 4/5/1
f 7/3/1 4/3/1 6/3/1
f 8/5/1 5/5/1 7/5/1
f 9/1/2 10/1/2 11/1/2
f 11/1/2 10/1/2 12/1/2
f 12/1/2 10/1/2 13/1/2
f 11/3/2 12/3/2 14/3/2
f 12/5/2 13/5/2 15/5/2
f 14/3/2 12/3/2 15/3/2
f 15/5/2 13/5/2 16/5/2
f 20/1/3 18/1/3 17/1/3
f 21/3/3 19/3/3 18/3/3
f 21/1/3 18/1/3 20/1/3
f 22/3/3 19/3/3 21/3/3
f 23/1/4 24/1/4 26/1/4
f 24/5/4 25/5/4 27/5/4
f 26/1/4 24/1/4 27/1/4
f 27/5/4 25/5/4 28/5/4
f 31/1/5 30/1/5 29/1/5
f 32/1/5 30/1/5 31/1/5
f 33/3/6 34/3/6 35/3/6
f 35/3/6 34/3/6 36/3/6
f 33/3/6 35/3/6 37/3/6
f 37/3/6 35/3/6 38/3/6
f 36/3/6 34/3/6 39/3/6
f 39/3/6 34/3/6 40/3/6
f 40/3/6 34/3/6 41/3/6
f 41/3/6 34/3/6 42/3/6
f 33/3/6 37/3/6 43/3/6
f 43/3/6 37/3/6 44/3/6
f 38/3/6 35/3/6 45/3/6
f 35/5/6 36/5/6 45/5/6
f 36/3/6 39/3/6 46/3/6
f 45/5/6 36/5/6 46/5/6
f 39/5/6 40/5/6 47/5/6
f 47/5/6 40/5/6 48/5/6
f 42/3/6 34/3/6 49/3/6
f 49/3/6 34/3/6 50/3/6
f 33/3/6 43/3/6 51/3/6
f 51/3/6 43/3/6 52/3/6
f 43/5/6 44/5/6 53/5/6
f 53/5/6 44/5/6 54/5/6
f 44/3/6 37/3/6 55/3/6
f 37/5/6 38/5/6 55/5/6
f 38/3/6 45/3/6 56/3/6
f 55/5/6 38/5/6 56/5/6
f 45/3/6 46/3/6 56/3/6
f 56/3/6 46/3/6 57/3/6
f 46/3/6 39/3/6 58/3/6
f 57/3/6 46/3/6 58/3/6
f 40/3/6 41/3/6 59/3/6
f 59/3/6 41/3/6 60/3/6
f 41/5/6 42/5/6 61/5/6
f 60/3/6 41/3/6 61/3/6
f 42/3/6 49/3/6 62/3/6
f 61/5/6 42/5/6 62/5/6
f 50/3/6 34/3/6 63/3/6
f 63/3/6 34/3/6 64/3/6
f 64/3/6 34/3/6 65/3/6
f 65/3/6 34/3/6 66/3/6
f 54/5/6 44/5/6 67/5/6
f 44/3/6 55/3/6 67/3/6
f 56/3/6 57/3/6 67/3/6
f 55/3/6 56/3/6 67/3/6
f 67/3/6 57/3/6 68/3/6
f 39/5/6 47/5/6 69/5/6
f 47/3/6 48/3/6 69/3/6
f 48/5/6 40/5/6 70/5/6
f 69/3/6 48/3/6 70/3/6
f 60/3/6 61/3/6 71/3/6
f 61/3/6 62/3/6 71/3/6
f 62/3/6 49/3/6 72/3/6
f 71/3/6 62/3/6 72/3/6
f 49/5/6 50/5/6 73/5/6
f 72/3/6 49/3/6 73/3/6
f 50/3/6 63/3/6 74/3/6
f 73/5/6 50/5/6 74/5/6
f 63/5/6 64/5/6 75/5/6
f 75/5/6 64/5/6 76/5/6
f 33/3/6 51/3/6 77/3/6
f 51/5/6 52/5/6 77/5/6
f 52/3/6 43/3/6 78/3/6
f 77/5/6 52/5/6 78/5/6
f 53/3/6 54/3/6 79/3/6
f 43/5/6 53/5/6 79/5/6
f 67/5/6 68/5/6 80/5/6
f 79/3/6 54/3/6 80/3/6
f 54/5/6 67/5/6 80/5/6
f 80/5/6 68/5/6 81/5/6
f 81/5/6 68/5/6 82/5/6
f 59/5/6 60/5/6 83/5/6
f 40/3/6 59/3/6 83/3/6
f 60/3/6 71/3/6 84/3/6
f 83/5/6 60/5/6 84/5/6
f 72/3/6 73/3/6 85/3/6
f 73/3/6 74/3/6 85/3/6
f 74/3/6 63/3/6 86/3/6
f 85/3/6 74/3/6 86/3/6
f 63/5/6 75/5/6 86/5/6
f 65/5/6 66/5/6 87/5/6
f 64/3/6 65/3/6 87/3/6
f 66/3/6 34/3/6 88/3/6
f 87/5/6 66/5/6 88/5/6
f 33/3/6 77/3/6 89/3/6
f 77/3/6 78/3/6 89/3/6
f 78/3/6 43/3/6 90/3/6
f 89/3/6 78/3/6 90/3/6
f 43/5/6 79/5/6 90/5/6
f 79/5/6 80/5/6 90/5/6
f 80/5/6 81/5/6 90/5/6
f 58/3/6 39/3/6 91/3/6
f 57/5/6 58/5/6 91/5/6
f 91/3/6 39/3/6 92/3/6
f 92/3/6 39/3/6 93/3/6
f 93/3/6 39/3/6 94/3/6
f 40/3/6 83/3/6 95/3/6
f 83/3/6 84/3/6 95/3/6
f 70/5/6 40/5/6 95/5/6
f 69/5/6 70/5/6 95/5/6
f 71/5/6 72/5/6 96/5/6
f 95/3/6 84/3/6 96/3/6
f 84/3/6 71/3/6 96/3/6
f 86/5/6 75/5/6 97/5/6
f 85/5/6 86/5/6 97/5/6
f 75/3/6 76/3/6 97/3/6
f 76/5/6 64/5/6 98/5/6
f 97/3/6 76/3/6 98/3/6
f 64/3/6 87/3/6 99/3/6
f 98/5/6 64/5/6 99/5/6
f 87/3/6 88/3/6 99/3/6
f 88/3/6 34/3/6 100/3/6
f 99/3/6 88/3/6 100/3/6
f 90/5/6 81/5/6 101/5/6
f 89/5/6 90/5/6 101/5/6
f 81/3/6 82/3/6 101/3/6
f 82/5/6 68/5/6 102/5/6
f 101/3/6 82/3/6 102/3/6
f 68/3/6 57/3/6 103/3/6
f 102/5/6 68/5/6 103/5/6
f 91/5/6 92/5/6 104/5/6
f 103/3/6 57/3/6 104/3/6
f 57/5/6 91/5/6 104/5/6
f 104/5/6 92/5/6 105/5/6
f 105/5/6 92/5/6 106/5/6
f 96/5/6 72/5/6 107/5/6
f 95/5/6 96/5/6 107/5/6
f 72/3/6 85/3/6 107/3/6
f 97/5/6 98/5/6 108/5/6
f 107/3/6 85/3/6 108/3/6
f 98/5/6 99/5/6 108/5/6
f 85/5/6 97/5/6 108/5/6
f 99/5/6 100/5/6 108/5/6
f 93/5/6 94/5/6 109/5/6
f 92/3/6 93/3/6 109/3/6
f 94/3/6 39/3/6 110/3/6
f 109/5/6 94/5/6 110/5/6
f 107/5/6 108/5/6 111/5/6
f 111/5/6 108/5/6 112/5/6
f 33/3/6 89/3/6 113/3/6
f 103/5/6 104/5/6 114/5/6
f 113/3/6 89/3/6 114/3/6
f 89/5/6 101/5/6 114/5/6
f 102/5/6 103/5/6 114/5/6
f 101/5/6 102/5/6 114/5/6
f 104/5/6 105/5/6 114/5/6
f 105/3/6 106/3/6 115/3/6
f 114/5/6 105/5/6 115/5/6
f 106/5/6 92/5/6 116/5/6
f 115/3/6 106/3/6 116/3/6
f 92/3/6 109/3/6 117/3/6
f 116/5/6 92/5/6 117/5/6
f 109/3/6 110/3/6 117/3/6
f 95/5/6 107/5/6 118/5/6
f 117/3/6 110/3/6 118/3/6
f 39/5/6 69/5/6 118/5/6
f 110/3/6 39/3/6 118/3/6
f 107/5/6 111/5/6 118/5/6
f 69/5/6 95/5/6 118/5/6
f 108/5/6 100/5/6 119/5/6
f 112/5/6 108/5/6 119/5/6
f 100/3/6 34/3/6 119/3/6
f 119/3/6 34/3/6 120/3/6
f 116/5/6 117/5/6 121/5/6
f 117/5/6 118/5/6 121/5/6
f 114/5/6 115/5/6 121/5/6
f 113/5/6 114/5/6 121/5/6
f 115/5/6 116/5/6 121/5/6
f 121/5/6 118/5/6 122/5/6
f 122/5/6 118/5/6 123/5/6
f 123/5/6 118/5/6 124/5/6
f 118/5/6 111/5/6 125/5/6
f 124/5/6 118/5/6 125/5/6
f 111/3/6 112/3/6 125/3/6
f 119/5/6 120/5/6 126/5/6
f 125/3/6 112/3/6 126/3/6
f 112/5/6 119/5/6 126/5/6
f 126/5/6 120/5/6 127/5/6
f 127/5/6 120/5/6 128/5/6
f 121/3/6 122/3/6 129/3/6
f 113/5/6 121/5/6 129/5/6
f 122/5/6 123/5/6 130/5/6
f 129/3/6 122/3/6 130/3/6
f 123/3/6 124/3/6 131/3/6
f 130/5/6 123/5/6 131/5/6
f 124/5/6 125/5/6 132/5/6
f 131/3/6 124/3/6 132/3/6
f 125/5/6 126/5/6 132/5/6
f 126/5/6 127/5/6 132/5/6
f 127/3/6 128/3/6 133/3/6
f 132/5/6 127/5/6 133/5/6
f 128/5/6 120/5/6 134/5/6
f 133/3/6 128/3/6 134/3/6
f 129/5/6 130/5/6 135/5/6
f 130/5/6 131/5/6 135/5/6
f 133/5/6 134/5/6 135/5/6
f 131/5/6 132/5/6 135/5/6
f 113/5/6 129/5/6 135/5/6
f 132/5/6 133/5/6 135/5/6
f 134/5/6 120/5/6 136/5/6
f 135/5/6 134/5/6 136/5/6
