# MagicaVoxel @ Ephtracy

# group
o 

# material
mtllib Block_StoneRoadinVilage_06.mtl
usemtl palette

# normals
vn -1 0 0
vn 1 0 0
vn 0 0 1
vn 0 0 -1
vn 0 -1 0
vn 0 1 0

# texcoords
vt 0.279297 0.5
vt 0.451172 0.5
vt 0.583984 0.5
vt 0.939453 0.5

# verts
v -3.2 0 3.2
v -3.2 0 -3.2
v -3.2 0.3 3.2
v -3.2 0.3 -3.2
v -3.2 0.5 2.3
v -3.2 0.5 2.1
v -3.2 0.5 -3.2
v -3.2 0.6 3.2
v -3.2 0.6 2.3
v -3.2 0.6 2.1
v -3.2 0.6 -3.2
v 0.4 0.5 2.5
v 0.4 0.5 2.4
v 0.4 0.6 2.5
v 0.4 0.6 2.4
v 1.1 0.5 2.7
v 1.1 0.5 2.5
v 1.1 0.6 2.7
v 1.1 0.6 2.5
v 1.2 0.5 3.2
v 1.2 0.5 2.7
v 1.2 0.6 3.2
v 1.2 0.6 2.7
v -1.2 0.5 3.2
v -1.2 0.5 3
v -1.2 0.6 3.2
v -1.2 0.6 3
v -1.1 0.5 3
v -1.1 0.5 2.6
v -1.1 0.6 3
v -1.1 0.6 2.6
v -0.3 0.5 2.6
v -0.3 0.5 2.4
v -0.3 0.6 2.6
v -0.3 0.6 2.4
v 3.2 0 3.2
v 3.2 0 -3.2
v 3.2 0.3 3.2
v 3.2 0.3 -3.2
v 3.2 0.5 2.3
v 3.2 0.5 2.1
v 3.2 0.5 -3.2
v 3.2 0.6 3.2
v 3.2 0.6 2.3
v 3.2 0.6 2.1
v 3.2 0.6 -3.2
v -3.2 0 3.2
v -3.2 0.3 3.2
v -3.2 0.6 3.2
v -1.4 0.4 3.2
v -1.4 0.6 3.2
v -1.2 0.5 3.2
v -1.2 0.6 3.2
v 1.2 0.5 3.2
v 1.2 0.6 3.2
v 1.4 0.4 3.2
v 1.4 0.6 3.2
v 3.2 0 3.2
v 3.2 0.3 3.2
v 3.2 0.6 3.2
v -1.2 0.5 3
v -1.2 0.6 3
v -1.1 0.5 3
v -1.1 0.6 3
v 1.1 0.5 2.7
v 1.1 0.6 2.7
v 1.2 0.5 2.7
v 1.2 0.6 2.7
v -1.1 0.5 2.6
v -1.1 0.6 2.6
v -0.3 0.5 2.6
v -0.3 0.6 2.6
v 0.4 0.5 2.5
v 0.4 0.6 2.5
v 1.1 0.5 2.5
v 1.1 0.6 2.5
v -0.3 0.5 2.4
v -0.3 0.6 2.4
v 0.4 0.5 2.4
v 0.4 0.6 2.4
v -3.2 0 -3.2
v -3.2 0.3 -3.2
v -3.2 0.5 -3.2
v -3.2 0.6 -3.2
v 3.2 0 -3.2
v 3.2 0.3 -3.2
v 3.2 0.5 -3.2
v 3.2 0.6 -3.2
v -3.2 0 3.2
v 3.2 0 3.2
v -3.2 0 -3.2
v 3.2 0 -3.2
v -1.2 0.5 3.2
v 1.2 0.5 3.2
v -1.2 0.5 3
v -1.1 0.5 3
v 1.1 0.5 2.7
v 1.2 0.5 2.7
v -1.1 0.5 2.6
v -0.3 0.5 2.6
v 0.4 0.5 2.5
v 1.1 0.5 2.5
v -0.3 0.5 2.4
v 0.4 0.5 2.4
v -3.2 0.6 3.2
v -1.4 0.6 3.2
v -1.2 0.6 3.2
v 1.2 0.6 3.2
v 1.4 0.6 3.2
v 3.2 0.6 3.2
v -1.2 0.6 3
v -1.1 0.6 3
v 1.1 0.6 2.7
v 1.2 0.6 2.7
v -1.1 0.6 2.6
v -0.3 0.6 2.6
v 0.4 0.6 2.5
v 1.1 0.6 2.5
v -0.3 0.6 2.4
v 0.4 0.6 2.4
v -3.2 0.6 2.3
v -1.4 0.6 2.3
v 1.4 0.6 2.3
v 3.2 0.6 2.3
v -3.2 0.6 2.1
v -1.4 0.6 2.1
v 1.4 0.6 2.1
v 3.2 0.6 2.1
v -1.4 0.6 0.0999999
v -1.3 0.6 0.0999999
v 1.3 0.6 0.0999999
v 1.4 0.6 0.0999999
v -1.3 0.6 0
v 1.3 0.6 0
v -3.2 0.6 -3.2
v 3.2 0.6 -3.2

# faces
f 3/1/1 2/1/1 1/1/1
f 4/1/1 2/1/1 3/1/1
f 5/3/1 4/3/1 3/3/1
f 6/3/1 4/3/1 5/3/1
f 7/3/1 4/3/1 6/3/1
f 8/3/1 5/3/1 3/3/1
f 9/1/1 6/1/1 5/1/1
f 9/3/1 5/3/1 8/3/1
f 10/2/1 7/2/1 6/2/1
f 10/1/1 6/1/1 9/1/1
f 11/2/1 7/2/1 10/2/1
f 14/4/1 13/4/1 12/4/1
f 15/4/1 13/4/1 14/4/1
f 18/4/1 17/4/1 16/4/1
f 19/4/1 17/4/1 18/4/1
f 22/4/1 21/4/1 20/4/1
f 23/4/1 21/4/1 22/4/1
f 24/4/2 25/4/2 26/4/2
f 26/4/2 25/4/2 27/4/2
f 28/4/2 29/4/2 30/4/2
f 30/4/2 29/4/2 31/4/2
f 32/4/2 33/4/2 34/4/2
f 34/4/2 33/4/2 35/4/2
f 36/1/2 37/1/2 38/1/2
f 38/1/2 37/1/2 39/1/2
f 38/3/2 39/3/2 40/3/2
f 40/3/2 39/3/2 41/3/2
f 41/3/2 39/3/2 42/3/2
f 38/3/2 40/3/2 43/3/2
f 40/1/2 41/1/2 44/1/2
f 43/3/2 40/3/2 44/3/2
f 41/2/2 42/2/2 45/2/2
f 44/1/2 41/1/2 45/1/2
f 45/2/2 42/2/2 46/2/2
f 50/3/3 49/3/3 48/3/3
f 51/3/3 49/3/3 50/3/3
f 52/4/3 51/4/3 50/4/3
f 53/4/3 51/4/3 52/4/3
f 54/4/3 52/4/3 50/4/3
f 56/3/3 50/3/3 48/3/3
f 56/4/3 55/4/3 54/4/3
f 56/4/3 54/4/3 50/4/3
f 57/4/3 55/4/3 56/4/3
f 58/1/3 48/1/3 47/1/3
f 59/3/3 56/3/3 48/3/3
f 59/1/3 48/1/3 58/1/3
f 59/3/3 57/3/3 56/3/3
f 60/3/3 57/3/3 59/3/3
f 63/4/3 62/4/3 61/4/3
f 64/4/3 62/4/3 63/4/3
f 67/4/3 66/4/3 65/4/3
f 68/4/3 66/4/3 67/4/3
f 71/4/3 70/4/3 69/4/3
f 72/4/3 70/4/3 71/4/3
f 75/4/3 74/4/3 73/4/3
f 76/4/3 74/4/3 75/4/3
f 79/4/3 78/4/3 77/4/3
f 80/4/3 78/4/3 79/4/3
f 81/1/4 82/1/4 85/1/4
f 82/3/4 83/3/4 86/3/4
f 85/1/4 82/1/4 86/1/4
f 83/2/4 84/2/4 87/2/4
f 86/3/4 83/3/4 87/3/4
f 87/2/4 84/2/4 88/2/4
f 91/1/5 90/1/5 89/1/5
f 92/1/5 90/1/5 91/1/5
f 93/4/6 94/4/6 95/4/6
f 95/4/6 94/4/6 96/4/6
f 96/4/6 94/4/6 97/4/6
f 97/4/6 94/4/6 98/4/6
f 96/4/6 97/4/6 99/4/6
f 99/4/6 97/4/6 100/4/6
f 100/4/6 97/4/6 101/4/6
f 101/4/6 97/4/6 102/4/6
f 100/4/6 101/4/6 103/4/6
f 103/4/6 101/4/6 104/4/6
f 106/4/6 107/4/6 111/4/6
f 108/4/6 109/4/6 114/4/6
f 111/4/6 112/4/6 115/4/6
f 113/4/6 114/4/6 118/4/6
f 115/4/6 116/4/6 119/4/6
f 117/4/6 118/4/6 120/4/6
f 105/3/6 106/3/6 121/3/6
f 119/4/6 120/4/6 122/4/6
f 121/3/6 106/3/6 122/3/6
f 115/4/6 119/4/6 122/4/6
f 106/4/6 111/4/6 122/4/6
f 111/4/6 115/4/6 122/4/6
f 109/3/6 110/3/6 123/3/6
f 122/4/6 120/4/6 123/4/6
f 120/4/6 118/4/6 123/4/6
f 114/4/6 109/4/6 123/4/6
f 118/4/6 114/4/6 123/4/6
f 123/3/6 110/3/6 124/3/6
f 121/1/6 122/1/6 125/1/6
f 122/4/6 123/4/6 126/4/6
f 125/1/6 122/1/6 126/1/6
f 123/1/6 124/1/6 127/1/6
f 126/4/6 123/4/6 127/4/6
f 127/1/6 124/1/6 128/1/6
f 125/2/6 126/2/6 129/2/6
f 126/4/6 127/4/6 129/4/6
f 129/4/6 127/4/6 130/4/6
f 130/4/6 127/4/6 131/4/6
f 127/2/6 128/2/6 132/2/6
f 131/4/6 127/4/6 132/4/6
f 130/4/6 131/4/6 133/4/6
f 129/2/6 130/2/6 133/2/6
f 131/2/6 132/2/6 134/2/6
f 133/4/6 131/4/6 134/4/6
f 125/2/6 129/2/6 135/2/6
f 129/2/6 133/2/6 135/2/6
f 133/2/6 134/2/6 135/2/6
f 132/2/6 128/2/6 136/2/6
f 135/2/6 134/2/6 136/2/6
f 134/2/6 132/2/6 136/2/6
