# MagicaVoxel @ Ephtracy

# group
o 

# material
mtllib Block_Vilage_05.mtl
usemtl palette

# normals
vn -1 0 0
vn 1 0 0
vn 0 0 1
vn 0 0 -1
vn 0 -1 0
vn 0 1 0

# texcoords
vt 0.279297 0.5
vt 0.451172 0.5
vt 0.498047 0.5
vt 0.556641 0.5
vt 0.583984 0.5
vt 0.939453 0.5

# verts
v -3.2 0 3.2
v -3.2 0 0.8
v -3.2 0 -0.8
v -3.2 0 -3.2
v -3.2 0.1 0.9
v -3.2 0.1 0.8
v -3.2 0.1 -0.8
v -3.2 0.1 -0.9
v -3.2 0.2 1
v -3.2 0.2 0.9
v -3.2 0.2 -0.9
v -3.2 0.2 -1
v -3.2 0.3 3.2
v -3.2 0.3 1.1
v -3.2 0.3 1
v -3.2 0.3 0.9
v -3.2 0.3 0.8
v -3.2 0.3 -0.8
v -3.2 0.3 -0.9
v -3.2 0.3 -1
v -3.2 0.3 -1.1
v -3.2 0.3 -3.2
v -3.2 0.4 1.2
v -3.2 0.4 1.1
v -3.2 0.4 -1.1
v -3.2 0.4 -1.2
v -3.2 0.5 1.3
v -3.2 0.5 1.2
v -3.2 0.5 -1.2
v -3.2 0.5 -1.3
v -3.2 0.6 3.2
v -3.2 0.6 1.3
v -3.2 0.6 0.9
v -3.2 0.6 -0.9
v -3.2 0.6 -1.3
v -3.2 0.6 -3.2
v -2.9 0.1 -0.7
v -2.9 0.1 -0.8
v -2.9 0.3 -0.8
v -2.9 0.3 -0.9
v -2.9 0.4 -0.7
v -2.9 0.4 -0.9
v -2.8 0.1 0.8
v -2.8 0.1 0.7
v -2.8 0.1 0.4
v -2.8 0.1 -0.7
v -2.8 0.2 0.9
v -2.8 0.2 0.8
v -2.8 0.2 0.4
v -2.8 0.2 -0.7
v -2.8 0.6 0.9
v -2.8 0.6 0.7
v -2.7 0.1 0.7
v -2.7 0.1 0.4
v -2.7 0.2 0.4
v -2.7 0.2 0.2
v -2.7 0.3 -0.5
v -2.7 0.3 -0.7
v -2.7 0.4 0.7
v -2.7 0.4 0.2
v -2.7 0.4 -0.7
v -2.7 0.4 -0.9
v -2.7 0.5 -0.9
v -2.7 0.6 -0.5
v -2.7 0.6 -0.9
v -2.6 0.3 0.2
v -2.6 0.3 -0.5
v -2.6 0.4 0.2
v -2.6 0.4 -0.5
v -2.5 0.4 0.7
v -2.5 0.4 0
v -2.5 0.4 -0.2
v -2.5 0.4 -0.5
v -2.5 0.5 0.7
v -2.5 0.5 0
v -2.5 0.5 -0.2
v -2.5 0.5 -0.5
v -2.5 0.5 -0.9
v -2.5 0.5 -1
v -2.5 0.6 -0.9
v -2.5 0.6 -1
v -2.4 0.2 0.2
v -2.4 0.2 -0.8
v -2.4 0.3 0.2
v -2.4 0.3 -0.8
v -2.4 0.4 0
v -2.4 0.4 -0.2
v -2.4 0.5 0.7
v -2.4 0.5 0
v -2.4 0.5 -0.2
v -2.4 0.5 -0.5
v -2.4 0.6 0.7
v -2.4 0.6 -0.5
v -3.1 0.2 0.9
v -3.1 0.2 0.8
v -3.1 0.3 0.9
v -3.1 0.3 0.8
v -3 0.5 -0.9
v -3 0.5 -1
v -3 0.6 -0.9
v -3 0.6 -1
v -2.7 0.2 -0.7
v -2.7 0.2 -0.8
v -2.7 0.3 -0.7
v -2.7 0.3 -0.8
v 3.2 0 3.2
v 3.2 0 -3.2
v 3.2 0.3 3.2
v 3.2 0.3 -3.2
v 3.2 0.5 3.2
v 3.2 0.5 -3.2
v 3.2 0.6 3.2
v 3.2 0.6 -3.2
v -3.2 0 3.2
v -3.2 0.3 3.2
v -3.2 0.6 3.2
v -2.3 0.5 3.2
v -2.3 0.6 3.2
v -2.1 0.5 3.2
v -2.1 0.6 3.2
v 3.2 0 3.2
v 3.2 0.3 3.2
v 3.2 0.5 3.2
v 3.2 0.6 3.2
v -2.8 0.1 0.4
v -2.8 0.2 0.4
v -2.7 0.1 0.4
v -2.7 0.2 0.4
v -2.5 0.4 -0.2
v -2.5 0.5 -0.2
v -2.4 0.4 -0.2
v -2.4 0.5 -0.2
v -2.7 0.3 -0.5
v -2.7 0.6 -0.5
v -2.6 0.3 -0.5
v -2.6 0.4 -0.5
v -2.5 0.4 -0.5
v -2.5 0.5 -0.5
v -2.4 0.5 -0.5
v -2.4 0.6 -0.5
v -2.9 0.1 -0.7
v -2.9 0.4 -0.7
v -2.8 0.1 -0.7
v -2.8 0.2 -0.7
v -2.7 0.2 -0.7
v -2.7 0.3 -0.7
v -2.7 0.4 -0.7
v -3.2 0.1 -0.8
v -3.2 0.3 -0.8
v -2.9 0.1 -0.8
v -2.9 0.3 -0.8
v -2.7 0.2 -0.8
v -2.7 0.3 -0.8
v -2.4 0.2 -0.8
v -2.4 0.3 -0.8
v -3.2 0.3 -0.9
v -3.2 0.6 -0.9
v -3 0.5 -0.9
v -3 0.6 -0.9
v -2.9 0.3 -0.9
v -2.9 0.4 -0.9
v -2.7 0.4 -0.9
v -2.7 0.5 -0.9
v -3 0.5 -1
v -3 0.6 -1
v -2.5 0.5 -1
v -2.5 0.6 -1
v -3.2 0.3 0.9
v -3.2 0.6 0.9
v -3.1 0.2 0.9
v -3.1 0.3 0.9
v -2.8 0.2 0.9
v -2.8 0.6 0.9
v -3.2 0.1 0.8
v -3.2 0.3 0.8
v -3.1 0.2 0.8
v -3.1 0.3 0.8
v -2.8 0.1 0.8
v -2.8 0.2 0.8
v -2.8 0.1 0.7
v -2.8 0.6 0.7
v -2.7 0.1 0.7
v -2.7 0.4 0.7
v -2.5 0.4 0.7
v -2.5 0.5 0.7
v -2.4 0.5 0.7
v -2.4 0.6 0.7
v -2.7 0.2 0.2
v -2.7 0.4 0.2
v -2.6 0.3 0.2
v -2.6 0.4 0.2
v -2.4 0.2 0.2
v -2.4 0.3 0.2
v -2.5 0.4 0
v -2.5 0.5 0
v -2.4 0.4 0
v -2.4 0.5 0
v -2.7 0.5 -0.9
v -2.7 0.6 -0.9
v -2.5 0.5 -0.9
v -2.5 0.6 -0.9
v -3.2 0 -3.2
v -3.2 0.3 -3.2
v -3.2 0.6 -3.2
v -2.3 0.5 -3.2
v -2.3 0.6 -3.2
v -2.1 0.5 -3.2
v -2.1 0.6 -3.2
v 3.2 0 -3.2
v 3.2 0.3 -3.2
v 3.2 0.5 -3.2
v 3.2 0.6 -3.2
v -3.2 0 3.2
v 3.2 0 3.2
v -3.2 0 0.8
v -2.2 0 0.8
v -3.2 0 -0.8
v -2.2 0 -0.8
v -3.2 0 -3.2
v 3.2 0 -3.2
v -2.6 0.3 0.2
v -2.4 0.3 0.2
v -2.7 0.3 -0.5
v -2.6 0.3 -0.5
v -2.7 0.3 -0.7
v -2.7 0.3 -0.8
v -2.4 0.3 -0.8
v -3.2 0.1 0.8
v -2.8 0.1 0.8
v -2.8 0.1 0.7
v -2.7 0.1 0.7
v -2.8 0.1 0.4
v -2.7 0.1 0.4
v -2.9 0.1 -0.7
v -2.8 0.1 -0.7
v -3.2 0.1 -0.8
v -2.9 0.1 -0.8
v -3.1 0.2 0.9
v -2.8 0.2 0.9
v -3.1 0.2 0.8
v -2.8 0.2 0.8
v -2.8 0.2 0.4
v -2.7 0.2 0.4
v -2.7 0.2 0.2
v -2.4 0.2 0.2
v -2.8 0.2 -0.7
v -2.7 0.2 -0.7
v -2.7 0.2 -0.8
v -2.4 0.2 -0.8
v -3.2 0.3 0.9
v -3.1 0.3 0.9
v -3.2 0.3 0.8
v -3.1 0.3 0.8
v -3.2 0.3 -0.8
v -2.9 0.3 -0.8
v -3.2 0.3 -0.9
v -2.9 0.3 -0.9
v -2.7 0.4 0.7
v -2.5 0.4 0.7
v -2.7 0.4 0.2
v -2.6 0.4 0.2
v -2.5 0.4 0
v -2.4 0.4 0
v -2.5 0.4 -0.2
v -2.4 0.4 -0.2
v -2.6 0.4 -0.5
v -2.5 0.4 -0.5
v -2.9 0.4 -0.7
v -2.7 0.4 -0.7
v -2.9 0.4 -0.9
v -2.7 0.4 -0.9
v -2.5 0.5 0.7
v -2.4 0.5 0.7
v -2.5 0.5 0
v -2.4 0.5 0
v -2.5 0.5 -0.2
v -2.4 0.5 -0.2
v -2.5 0.5 -0.5
v -2.4 0.5 -0.5
v -3 0.5 -0.9
v -2.7 0.5 -0.9
v -2.5 0.5 -0.9
v -3 0.5 -1
v -2.5 0.5 -1
v -3.2 0.6 3.2
v -2.3 0.6 3.2
v -2.1 0.6 3.2
v 3.2 0.6 3.2
v -3.2 0.6 1.3
v -2.3 0.6 1.3
v -3.2 0.6 0.9
v -2.8 0.6 0.9
v -2.4 0.6 0.9
v -2.8 0.6 0.7
v -2.4 0.6 0.7
v -2.7 0.6 -0.5
v -2.4 0.6 -0.5
v -3.2 0.6 -0.9
v -3 0.6 -0.9
v -2.7 0.6 -0.9
v -2.5 0.6 -0.9
v -2.4 0.6 -0.9
v -3 0.6 -1
v -2.5 0.6 -1
v -3.2 0.6 -1.3
v -2.3 0.6 -1.3
v -3.2 0.6 -3.2
v -2.3 0.6 -3.2
v -2.1 0.6 -3.2
v 3.2 0.6 -3.2

# faces
f 5/1/1 2/1/1 1/1/1
f 6/3/1 3/3/1 2/3/1
f 6/1/1 2/1/1 5/1/1
f 7/1/1 4/1/1 3/1/1
f 7/3/1 3/3/1 6/3/1
f 8/1/1 4/1/1 7/1/1
f 9/1/1 5/1/1 1/1/1
f 10/3/1 6/3/1 5/3/1
f 10/1/1 5/1/1 9/1/1
f 11/1/1 4/1/1 8/1/1
f 11/3/1 8/3/1 7/3/1
f 12/1/1 4/1/1 11/1/1
f 13/1/1 9/1/1 1/1/1
f 14/1/1 9/1/1 13/1/1
f 15/3/1 10/3/1 9/3/1
f 15/1/1 9/1/1 14/1/1
f 16/3/1 6/3/1 10/3/1
f 16/3/1 10/3/1 15/3/1
f 17/3/1 6/3/1 16/3/1
f 18/3/1 11/3/1 7/3/1
f 18/3/1 12/3/1 11/3/1
f 19/3/1 12/3/1 18/3/1
f 20/1/1 4/1/1 12/1/1
f 20/3/1 12/3/1 19/3/1
f 21/1/1 4/1/1 20/1/1
f 22/1/1 4/1/1 21/1/1
f 23/5/1 14/5/1 13/5/1
f 24/3/1 15/3/1 14/3/1
f 24/5/1 14/5/1 23/5/1
f 24/3/1 16/3/1 15/3/1
f 25/5/1 22/5/1 21/5/1
f 25/3/1 21/3/1 20/3/1
f 25/3/1 20/3/1 19/3/1
f 26/5/1 22/5/1 25/5/1
f 27/5/1 23/5/1 13/5/1
f 28/3/1 24/3/1 23/3/1
f 28/5/1 23/5/1 27/5/1
f 29/5/1 22/5/1 26/5/1
f 29/3/1 26/3/1 25/3/1
f 30/5/1 22/5/1 29/5/1
f 31/5/1 27/5/1 13/5/1
f 32/3/1 28/3/1 27/3/1
f 32/5/1 27/5/1 31/5/1
f 33/3/1 24/3/1 28/3/1
f 33/3/1 28/3/1 32/3/1
f 33/3/1 16/3/1 24/3/1
f 34/3/1 30/3/1 29/3/1
f 34/3/1 25/3/1 19/3/1
f 34/3/1 29/3/1 25/3/1
f 35/5/1 22/5/1 30/5/1
f 35/3/1 30/3/1 34/3/1
f 36/5/1 22/5/1 35/5/1
f 39/6/1 38/6/1 37/6/1
f 41/6/1 39/6/1 37/6/1
f 41/6/1 40/6/1 39/6/1
f 42/6/1 40/6/1 41/6/1
f 48/6/1 44/6/1 43/6/1
f 49/6/1 46/6/1 45/6/1
f 50/6/1 46/6/1 49/6/1
f 51/6/1 48/6/1 47/6/1
f 52/6/1 44/6/1 48/6/1
f 52/6/1 48/6/1 51/6/1
f 55/6/1 54/6/1 53/6/1
f 59/6/1 55/6/1 53/6/1
f 59/6/1 56/6/1 55/6/1
f 60/6/1 56/6/1 59/6/1
f 61/6/1 58/6/1 57/6/1
f 63/6/1 62/6/1 61/6/1
f 64/6/1 61/6/1 57/6/1
f 64/6/1 63/6/1 61/6/1
f 65/6/1 63/6/1 64/6/1
f 68/6/1 67/6/1 66/6/1
f 69/6/1 67/6/1 68/6/1
f 74/3/1 71/3/1 70/3/1
f 75/3/1 71/3/1 74/3/1
f 76/3/1 73/3/1 72/3/1
f 77/3/1 73/3/1 76/3/1
f 80/3/1 79/3/1 78/3/1
f 81/3/1 79/3/1 80/3/1
f 84/6/1 83/6/1 82/6/1
f 85/6/1 83/6/1 84/6/1
f 89/3/1 87/3/1 86/3/1
f 90/3/1 87/3/1 89/3/1
f 92/3/1 89/3/1 88/3/1
f 92/3/1 91/3/1 90/3/1
f 92/3/1 90/3/1 89/3/1
f 93/3/1 91/3/1 92/3/1
f 94/3/2 95/3/2 96/3/2
f 96/3/2 95/3/2 97/3/2
f 98/3/2 99/3/2 100/3/2
f 100/3/2 99/3/2 101/3/2
f 102/6/2 103/6/2 104/6/2
f 104/6/2 103/6/2 105/6/2
f 106/1/2 107/1/2 108/1/2
f 108/1/2 107/1/2 109/1/2
f 108/5/2 109/5/2 110/5/2
f 110/5/2 109/5/2 111/5/2
f 110/2/2 111/2/2 112/2/2
f 112/2/2 111/2/2 113/2/2
f 117/5/3 116/5/3 115/5/3
f 118/5/3 116/5/3 117/5/3
f 119/5/3 117/5/3 115/5/3
f 119/1/3 118/1/3 117/1/3
f 120/1/3 118/1/3 119/1/3
f 121/1/3 115/1/3 114/1/3
f 122/5/3 119/5/3 115/5/3
f 122/1/3 115/1/3 121/1/3
f 123/2/3 120/2/3 119/2/3
f 123/5/3 119/5/3 122/5/3
f 124/2/3 120/2/3 123/2/3
f 127/6/3 126/6/3 125/6/3
f 128/6/3 126/6/3 127/6/3
f 131/3/3 130/3/3 129/3/3
f 132/3/3 130/3/3 131/3/3
f 135/6/3 134/6/3 133/6/3
f 136/6/3 134/6/3 135/6/3
f 137/6/3 134/6/3 136/6/3
f 138/6/3 134/6/3 137/6/3
f 139/6/3 134/6/3 138/6/3
f 140/6/3 134/6/3 139/6/3
f 143/6/3 142/6/3 141/6/3
f 144/6/3 142/6/3 143/6/3
f 145/6/3 142/6/3 144/6/3
f 146/6/3 142/6/3 145/6/3
f 147/6/3 142/6/3 146/6/3
f 150/3/3 149/3/3 148/3/3
f 151/3/3 149/3/3 150/3/3
f 154/6/3 153/6/3 152/6/3
f 155/6/3 153/6/3 154/6/3
f 158/3/3 157/3/3 156/3/3
f 159/3/3 157/3/3 158/3/3
f 160/3/3 158/3/3 156/3/3
f 161/3/3 158/3/3 160/3/3
f 162/3/3 158/3/3 161/3/3
f 163/3/3 158/3/3 162/3/3
f 166/3/3 165/3/3 164/3/3
f 167/3/3 165/3/3 166/3/3
f 168/3/4 169/3/4 171/3/4
f 170/3/4 171/3/4 172/3/4
f 171/3/4 169/3/4 173/3/4
f 172/3/4 171/3/4 173/3/4
f 174/3/4 175/3/4 176/3/4
f 176/3/4 175/3/4 177/3/4
f 174/3/4 176/3/4 178/3/4
f 178/3/4 176/3/4 179/3/4
f 180/6/4 181/6/4 182/6/4
f 182/6/4 181/6/4 183/6/4
f 183/6/4 181/6/4 184/6/4
f 184/6/4 181/6/4 185/6/4
f 185/6/4 181/6/4 186/6/4
f 186/6/4 181/6/4 187/6/4
f 188/6/4 189/6/4 190/6/4
f 190/6/4 189/6/4 191/6/4
f 188/6/4 190/6/4 192/6/4
f 192/6/4 190/6/4 193/6/4
f 194/3/4 195/3/4 196/3/4
f 196/3/4 195/3/4 197/3/4
f 198/6/4 199/6/4 200/6/4
f 200/6/4 199/6/4 201/6/4
f 203/5/4 204/5/4 205/5/4
f 205/5/4 204/5/4 206/5/4
f 203/5/4 205/5/4 207/5/4
f 205/1/4 206/1/4 207/1/4
f 207/1/4 206/1/4 208/1/4
f 202/1/4 203/1/4 209/1/4
f 203/5/4 207/5/4 210/5/4
f 209/1/4 203/1/4 210/1/4
f 207/2/4 208/2/4 211/2/4
f 210/5/4 207/5/4 211/5/4
f 211/2/4 208/2/4 212/2/4
f 215/1/5 214/1/5 213/1/5
f 216/1/5 214/1/5 215/1/5
f 217/3/5 216/3/5 215/3/5
f 218/1/5 214/1/5 216/1/5
f 218/3/5 216/3/5 217/3/5
f 219/1/5 218/1/5 217/1/5
f 220/1/5 214/1/5 218/1/5
f 220/1/5 218/1/5 219/1/5
f 224/6/5 222/6/5 221/6/5
f 225/6/5 224/6/5 223/6/5
f 226/6/5 224/6/5 225/6/5
f 227/6/5 222/6/5 224/6/5
f 227/6/5 224/6/5 226/6/5
f 228/3/6 229/3/6 230/3/6
f 228/3/6 230/3/6 232/3/6
f 230/3/6 231/3/6 232/3/6
f 232/3/6 231/3/6 233/3/6
f 228/3/6 232/3/6 234/3/6
f 234/3/6 232/3/6 235/3/6
f 228/3/6 234/3/6 236/3/6
f 236/3/6 234/3/6 237/3/6
f 238/3/6 239/3/6 240/3/6
f 240/3/6 239/3/6 241/3/6
f 242/6/6 243/6/6 244/6/6
f 242/6/6 244/6/6 246/6/6
f 244/6/6 245/6/6 246/6/6
f 246/6/6 245/6/6 247/6/6
f 247/6/6 245/6/6 248/6/6
f 248/6/6 245/6/6 249/6/6
f 250/3/6 251/3/6 252/3/6
f 252/3/6 251/3/6 253/3/6
f 254/3/6 255/3/6 256/3/6
f 256/3/6 255/3/6 257/3/6
f 258/6/6 259/6/6 260/6/6
f 260/6/6 259/6/6 261/6/6
f 261/6/6 259/6/6 262/6/6
f 261/6/6 262/6/6 264/6/6
f 262/6/6 263/6/6 264/6/6
f 264/6/6 263/6/6 265/6/6
f 261/6/6 264/6/6 266/6/6
f 266/6/6 264/6/6 267/6/6
f 268/6/6 269/6/6 270/6/6
f 270/6/6 269/6/6 271/6/6
f 272/3/6 273/3/6 274/3/6
f 274/3/6 273/3/6 275/3/6
f 276/3/6 277/3/6 278/3/6
f 278/3/6 277/3/6 279/3/6
f 280/3/6 281/3/6 283/3/6
f 281/3/6 282/3/6 283/3/6
f 283/3/6 282/3/6 284/3/6
f 285/5/6 286/5/6 289/5/6
f 286/1/6 287/1/6 290/1/6
f 289/5/6 286/5/6 290/5/6
f 289/3/6 290/3/6 291/3/6
f 291/3/6 290/3/6 292/3/6
f 292/3/6 290/3/6 293/3/6
f 292/6/6 293/6/6 294/6/6
f 293/3/6 290/3/6 295/3/6
f 294/6/6 293/6/6 295/6/6
f 295/3/6 290/3/6 297/3/6
f 296/6/6 297/6/6 300/6/6
f 300/6/6 297/6/6 301/6/6
f 297/3/6 290/3/6 302/3/6
f 301/6/6 297/6/6 302/6/6
f 298/3/6 299/3/6 303/3/6
f 301/3/6 302/3/6 304/3/6
f 298/3/6 303/3/6 305/3/6
f 303/3/6 304/3/6 305/3/6
f 290/1/6 287/1/6 306/1/6
f 305/3/6 304/3/6 306/3/6
f 302/3/6 290/3/6 306/3/6
f 304/3/6 302/3/6 306/3/6
f 305/5/6 306/5/6 307/5/6
f 306/1/6 287/1/6 308/1/6
f 307/5/6 306/5/6 308/5/6
f 287/2/6 288/2/6 309/2/6
f 308/1/6 287/1/6 309/1/6
f 309/2/6 288/2/6 310/2/6
