# MagicaVoxel @ Ephtracy

# group
o 

# material
mtllib Block_Vilage_01.mtl
usemtl palette

# normals
vn -1 0 0
vn 1 0 0
vn 0 0 1
vn 0 0 -1
vn 0 -1 0
vn 0 1 0

# texcoords
vt 0.279297 0.5
vt 0.451172 0.5
vt 0.583984 0.5

# verts
v -3.2 0 3.2
v -3.2 0 -3.2
v -3.2 0.3 3.2
v -3.2 0.3 -3.2
v -3.2 0.6 3.2
v -3.2 0.6 -3.2
v 3.2 0 3.2
v 3.2 0 -3.2
v 3.2 0.3 3.2
v 3.2 0.3 -3.2
v 3.2 0.5 2.3
v 3.2 0.5 2.1
v 3.2 0.5 -3.2
v 3.2 0.6 3.2
v 3.2 0.6 2.3
v 3.2 0.6 2.1
v 3.2 0.6 -3.2
v -3.2 0 3.2
v -3.2 0.3 3.2
v -3.2 0.6 3.2
v 3.2 0 3.2
v 3.2 0.3 3.2
v 3.2 0.6 3.2
v -3.2 0 -3.2
v -3.2 0.3 -3.2
v -3.2 0.6 -3.2
v -2.3 0.5 -3.2
v -2.3 0.6 -3.2
v -2.1 0.5 -3.2
v -2.1 0.6 -3.2
v 3.2 0 -3.2
v 3.2 0.3 -3.2
v 3.2 0.5 -3.2
v 3.2 0.6 -3.2
v -3.2 0 3.2
v 3.2 0 3.2
v -3.2 0 -3.2
v 3.2 0 -3.2
v -3.2 0.6 3.2
v 3.2 0.6 3.2
v -2.3 0.6 2.3
v 3.2 0.6 2.3
v -2.1 0.6 2.1
v 3.2 0.6 2.1
v -3.2 0.6 -3.2
v -2.3 0.6 -3.2
v -2.1 0.6 -3.2
v 3.2 0.6 -3.2

# faces
f 3/1/1 2/1/1 1/1/1
f 4/1/1 2/1/1 3/1/1
f 5/3/1 4/3/1 3/3/1
f 6/3/1 4/3/1 5/3/1
f 7/1/2 8/1/2 9/1/2
f 9/1/2 8/1/2 10/1/2
f 9/3/2 10/3/2 11/3/2
f 11/3/2 10/3/2 12/3/2
f 12/3/2 10/3/2 13/3/2
f 9/3/2 11/3/2 14/3/2
f 11/1/2 12/1/2 15/1/2
f 14/3/2 11/3/2 15/3/2
f 12/2/2 13/2/2 16/2/2
f 15/1/2 12/1/2 16/1/2
f 16/2/2 13/2/2 17/2/2
f 21/1/3 19/1/3 18/1/3
f 22/3/3 20/3/3 19/3/3
f 22/1/3 19/1/3 21/1/3
f 23/3/3 20/3/3 22/3/3
f 25/3/4 26/3/4 27/3/4
f 27/3/4 26/3/4 28/3/4
f 25/3/4 27/3/4 29/3/4
f 27/1/4 28/1/4 29/1/4
f 29/1/4 28/1/4 30/1/4
f 24/1/4 25/1/4 31/1/4
f 25/3/4 29/3/4 32/3/4
f 31/1/4 25/1/4 32/1/4
f 29/2/4 30/2/4 33/2/4
f 32/3/4 29/3/4 33/3/4
f 33/2/4 30/2/4 34/2/4
f 37/1/5 36/1/5 35/1/5
f 38/1/5 36/1/5 37/1/5
f 39/3/6 40/3/6 41/3/6
f 41/3/6 40/3/6 42/3/6
f 41/1/6 42/1/6 43/1/6
f 43/1/6 42/1/6 44/1/6
f 39/3/6 41/3/6 45/3/6
f 41/1/6 43/1/6 46/1/6
f 45/3/6 41/3/6 46/3/6
f 43/2/6 44/2/6 47/2/6
f 46/1/6 43/1/6 47/1/6
f 47/2/6 44/2/6 48/2/6
