# MagicaVoxel @ Ephtracy

# group
o 

# material
mtllib Decor_Chest_01.mtl
usemtl palette

# normals
vn -1 0 0
vn 1 0 0
vn 0 0 1
vn 0 0 -1
vn 0 -1 0
vn 0 1 0

# texcoords
vt 0.310547 0.5
vt 0.431641 0.5
vt 0.482422 0.5
vt 0.974609 0.5

# verts
v -0.7 0 0.5
v -0.7 0 -0.5
v -0.7 0.1 0.5
v -0.7 0.1 -0.5
v -0.6 0.1 0.4
v -0.6 0.1 0.3
v -0.6 0.1 -0.3
v -0.6 0.1 -0.4
v -0.6 0.4 0.3
v -0.6 0.4 -0.3
v -0.6 0.5 0.3
v -0.6 0.5 -0.3
v -0.6 0.6 0.4
v -0.6 0.6 0.3
v -0.6 0.6 -0.3
v -0.6 0.6 -0.4
v -0.3 0 0.5
v -0.3 0 0.4
v -0.3 0 -0.4
v -0.3 0 -0.5
v -0.3 0.1 0.5
v -0.3 0.1 0.4
v -0.3 0.1 0.3
v -0.3 0.1 -0.3
v -0.3 0.1 -0.4
v -0.3 0.1 -0.5
v -0.3 0.4 0.4
v -0.3 0.4 0.3
v -0.3 0.4 -0.3
v -0.3 0.4 -0.4
v -0.3 0.5 0
v -0.3 0.5 -0.1
v -0.3 0.6 0
v -0.3 0.6 -0.1
v -0.2 0.5 0.3
v -0.2 0.5 0.1
v -0.2 0.6 0.3
v -0.2 0.6 0.1
v -0.1 0.5 0.1
v -0.1 0.5 0
v -0.1 0.6 0.1
v -0.1 0.6 0
v 0.1 0 0.5
v 0.1 0 0.4
v 0.1 0 -0.4
v 0.1 0 -0.5
v 0.1 0.1 0.5
v 0.1 0.1 0.4
v 0.1 0.1 0.3
v 0.1 0.1 -0.3
v 0.1 0.1 -0.4
v 0.1 0.1 -0.5
v 0.1 0.4 0.4
v 0.1 0.4 0.3
v 0.1 0.4 -0.3
v 0.1 0.4 -0.4
v 0.2 0.5 -0.1
v 0.2 0.5 -0.2
v 0.2 0.5 -0.3
v 0.2 0.6 -0.1
v 0.2 0.6 -0.3
v 0.3 0.5 0.3
v 0.3 0.5 0.2
v 0.3 0.5 0.1
v 0.3 0.6 0.3
v 0.3 0.6 0.1
v 0.5 0 0.5
v 0.5 0 0.4
v 0.5 0 -0.4
v 0.5 0 -0.5
v 0.5 0.1 0.5
v 0.5 0.1 0.4
v 0.5 0.1 0.3
v 0.5 0.1 -0.3
v 0.5 0.1 -0.4
v 0.5 0.1 -0.5
v 0.5 0.4 0.4
v 0.5 0.4 0.3
v 0.5 0.4 -0.3
v 0.5 0.4 -0.4
v 0.5 0.5 0.1
v 0.5 0.5 -0.3
v 0.5 0.6 0.1
v 0.5 0.6 -0.3
v -0.5 0 0.5
v -0.5 0 0.4
v -0.5 0 -0.4
v -0.5 0 -0.5
v -0.5 0.1 0.5
v -0.5 0.1 0.4
v -0.5 0.1 0.3
v -0.5 0.1 -0.3
v -0.5 0.1 -0.4
v -0.5 0.1 -0.5
v -0.5 0.4 0.4
v -0.5 0.4 0.3
v -0.5 0.4 -0.3
v -0.5 0.4 -0.4
v -0.5 0.5 0.3
v -0.5 0.5 0.1
v -0.5 0.5 -0.1
v -0.5 0.6 0.3
v -0.5 0.6 -0.1
v -0.3 0.5 -0.2
v -0.3 0.5 -0.3
v -0.3 0.6 -0.2
v -0.3 0.6 -0.3
v -0.1 0 0.5
v -0.1 0 0.4
v -0.1 0 -0.4
v -0.1 0 -0.5
v -0.1 0.1 0.5
v -0.1 0.1 0.4
v -0.1 0.1 0.3
v -0.1 0.1 -0.3
v -0.1 0.1 -0.4
v -0.1 0.1 -0.5
v -0.1 0.4 0.4
v -0.1 0.4 0.3
v -0.1 0.4 -0.3
v -0.1 0.4 -0.4
v -0.1 0.5 -0.1
v -0.1 0.5 -0.2
v -0.1 0.6 -0.1
v -0.1 0.6 -0.2
v 0 0.5 0.3
v 0 0.5 0.1
v 0 0.6 0.3
v 0 0.6 0.1
v 0.1 0.5 0.1
v 0.1 0.5 0
v 0.1 0.5 -0.1
v 0.1 0.6 0.1
v 0.1 0.6 -0.1
v 0.3 0 0.5
v 0.3 0 0.4
v 0.3 0 -0.4
v 0.3 0 -0.5
v 0.3 0.1 0.5
v 0.3 0.1 0.4
v 0.3 0.1 0.3
v 0.3 0.1 -0.3
v 0.3 0.1 -0.4
v 0.3 0.1 -0.5
v 0.3 0.4 0.4
v 0.3 0.4 0.3
v 0.3 0.4 -0.3
v 0.3 0.4 -0.4
v 0.4 0.5 -0.1
v 0.4 0.5 -0.3
v 0.4 0.6 -0.1
v 0.4 0.6 -0.3
v 0.6 0.1 0.4
v 0.6 0.1 0.3
v 0.6 0.1 -0.3
v 0.6 0.1 -0.4
v 0.6 0.4 0.3
v 0.6 0.4 -0.3
v 0.6 0.5 0.3
v 0.6 0.5 -0.3
v 0.6 0.6 0.4
v 0.6 0.6 0.3
v 0.6 0.6 -0.3
v 0.6 0.6 -0.4
v 0.7 0 0.5
v 0.7 0 -0.5
v 0.7 0.1 0.5
v 0.7 0.1 -0.5
v -0.7 0 0.5
v -0.7 0.1 0.5
v -0.5 0 0.5
v -0.5 0.1 0.5
v -0.3 0 0.5
v -0.3 0.1 0.5
v -0.1 0 0.5
v -0.1 0.1 0.5
v 0.1 0 0.5
v 0.1 0.1 0.5
v 0.3 0 0.5
v 0.3 0.1 0.5
v 0.5 0 0.5
v 0.5 0.1 0.5
v 0.7 0 0.5
v 0.7 0.1 0.5
v -0.6 0.1 0.4
v -0.6 0.6 0.4
v -0.5 0 0.4
v -0.5 0.1 0.4
v -0.5 0.4 0.4
v -0.5 0.5 0.4
v -0.5 0.6 0.4
v -0.3 0 0.4
v -0.3 0.1 0.4
v -0.3 0.4 0.4
v -0.3 0.5 0.4
v -0.3 0.6 0.4
v -0.1 0 0.4
v -0.1 0.1 0.4
v -0.1 0.4 0.4
v -0.1 0.5 0.4
v -0.1 0.6 0.4
v 0.1 0 0.4
v 0.1 0.1 0.4
v 0.1 0.4 0.4
v 0.1 0.5 0.4
v 0.1 0.6 0.4
v 0.3 0 0.4
v 0.3 0.1 0.4
v 0.3 0.4 0.4
v 0.3 0.5 0.4
v 0.3 0.6 0.4
v 0.5 0 0.4
v 0.5 0.1 0.4
v 0.5 0.4 0.4
v 0.5 0.5 0.4
v 0.5 0.6 0.4
v 0.6 0.1 0.4
v 0.6 0.6 0.4
v -0.5 0.1 0.3
v -0.5 0.4 0.3
v -0.3 0.1 0.3
v -0.3 0.4 0.3
v -0.1 0.1 0.3
v -0.1 0.4 0.3
v 0.1 0.1 0.3
v 0.1 0.4 0.3
v 0.3 0.1 0.3
v 0.3 0.4 0.3
v 0.5 0.1 0.3
v 0.5 0.4 0.3
v 0 0.5 0.1
v 0 0.6 0.1
v 0.1 0.5 0.1
v 0.1 0.6 0.1
v -0.3 0.5 0
v -0.3 0.6 0
v -0.2 0.5 0
v -0.1 0.5 0
v -0.1 0.6 0
v -0.5 0.5 -0.1
v -0.5 0.6 -0.1
v -0.4 0.5 -0.1
v -0.3 0.5 -0.1
v -0.3 0.6 -0.1
v 0.2 0.5 -0.1
v 0.2 0.6 -0.1
v 0.4 0.5 -0.1
v 0.4 0.6 -0.1
v -0.3 0.5 -0.3
v -0.3 0.6 -0.3
v -0.1 0.5 -0.3
v -0.1 0.6 -0.3
v 0.1 0.5 -0.3
v 0.1 0.6 -0.3
v 0.2 0.5 -0.3
v 0.2 0.6 -0.3
v 0.4 0.5 -0.3
v 0.4 0.6 -0.3
v 0.5 0.5 -0.3
v 0.5 0.6 -0.3
v -0.5 0.5 0.3
v -0.5 0.6 0.3
v -0.3 0.5 0.3
v -0.3 0.6 0.3
v -0.2 0.5 0.3
v -0.2 0.6 0.3
v 0 0.5 0.3
v 0 0.6 0.3
v 0.1 0.5 0.3
v 0.1 0.6 0.3
v 0.3 0.5 0.3
v 0.3 0.6 0.3
v -0.2 0.5 0.1
v -0.2 0.6 0.1
v -0.1 0.5 0.1
v -0.1 0.6 0.1
v 0.3 0.5 0.1
v 0.3 0.6 0.1
v 0.4 0.5 0.1
v 0.5 0.5 0.1
v 0.5 0.6 0.1
v -0.1 0.5 -0.1
v -0.1 0.6 -0.1
v 0 0.5 -0.1
v 0.1 0.5 -0.1
v 0.1 0.6 -0.1
v -0.3 0.5 -0.2
v -0.3 0.6 -0.2
v -0.1 0.5 -0.2
v -0.1 0.6 -0.2
v -0.5 0.1 -0.3
v -0.5 0.4 -0.3
v -0.3 0.1 -0.3
v -0.3 0.4 -0.3
v -0.1 0.1 -0.3
v -0.1 0.4 -0.3
v 0.1 0.1 -0.3
v 0.1 0.4 -0.3
v 0.3 0.1 -0.3
v 0.3 0.4 -0.3
v 0.5 0.1 -0.3
v 0.5 0.4 -0.3
v -0.6 0.1 -0.4
v -0.6 0.6 -0.4
v -0.5 0 -0.4
v -0.5 0.1 -0.4
v -0.5 0.4 -0.4
v -0.5 0.5 -0.4
v -0.5 0.6 -0.4
v -0.3 0 -0.4
v -0.3 0.1 -0.4
v -0.3 0.4 -0.4
v -0.3 0.5 -0.4
v -0.3 0.6 -0.4
v -0.1 0 -0.4
v -0.1 0.1 -0.4
v -0.1 0.4 -0.4
v -0.1 0.5 -0.4
v -0.1 0.6 -0.4
v 0.1 0 -0.4
v 0.1 0.1 -0.4
v 0.1 0.4 -0.4
v 0.1 0.5 -0.4
v 0.1 0.6 -0.4
v 0.3 0 -0.4
v 0.3 0.1 -0.4
v 0.3 0.4 -0.4
v 0.3 0.5 -0.4
v 0.3 0.6 -0.4
v 0.5 0 -0.4
v 0.5 0.1 -0.4
v 0.5 0.4 -0.4
v 0.5 0.5 -0.4
v 0.5 0.6 -0.4
v 0.6 0.1 -0.4
v 0.6 0.6 -0.4
v -0.7 0 -0.5
v -0.7 0.1 -0.5
v -0.5 0 -0.5
v -0.5 0.1 -0.5
v -0.3 0 -0.5
v -0.3 0.1 -0.5
v -0.1 0 -0.5
v -0.1 0.1 -0.5
v 0.1 0 -0.5
v 0.1 0.1 -0.5
v 0.3 0 -0.5
v 0.3 0.1 -0.5
v 0.5 0 -0.5
v 0.5 0.1 -0.5
v 0.7 0 -0.5
v 0.7 0.1 -0.5
v -0.7 0 0.5
v -0.5 0 0.5
v -0.3 0 0.5
v -0.1 0 0.5
v 0.1 0 0.5
v 0.3 0 0.5
v 0.5 0 0.5
v 0.7 0 0.5
v -0.5 0 0.4
v -0.3 0 0.4
v -0.1 0 0.4
v 0.1 0 0.4
v 0.3 0 0.4
v 0.5 0 0.4
v -0.6 0 0.3
v -0.5 0 0.3
v -0.3 0 0.3
v -0.1 0 0.3
v 0.1 0 0.3
v 0.3 0 0.3
v 0.5 0 0.3
v 0.6 0 0.3
v -0.6 0 -0.3
v -0.5 0 -0.3
v -0.3 0 -0.3
v -0.1 0 -0.3
v 0.1 0 -0.3
v 0.3 0 -0.3
v 0.5 0 -0.3
v 0.6 0 -0.3
v -0.5 0 -0.4
v -0.3 0 -0.4
v -0.1 0 -0.4
v 0.1 0 -0.4
v 0.3 0 -0.4
v 0.5 0 -0.4
v -0.7 0 -0.5
v -0.5 0 -0.5
v -0.3 0 -0.5
v -0.1 0 -0.5
v 0.1 0 -0.5
v 0.3 0 -0.5
v 0.5 0 -0.5
v 0.7 0 -0.5
v -0.5 0.4 0.4
v -0.3 0.4 0.4
v -0.1 0.4 0.4
v 0.1 0.4 0.4
v 0.3 0.4 0.4
v 0.5 0.4 0.4
v -0.5 0.4 0.3
v -0.3 0.4 0.3
v -0.1 0.4 0.3
v 0.1 0.4 0.3
v 0.3 0.4 0.3
v 0.5 0.4 0.3
v -0.5 0.4 -0.3
v -0.3 0.4 -0.3
v -0.1 0.4 -0.3
v 0.1 0.4 -0.3
v 0.3 0.4 -0.3
v 0.5 0.4 -0.3
v -0.5 0.4 -0.4
v -0.3 0.4 -0.4
v -0.1 0.4 -0.4
v 0.1 0.4 -0.4
v 0.3 0.4 -0.4
v 0.5 0.4 -0.4
v -0.7 0.1 0.5
v -0.5 0.1 0.5
v -0.3 0.1 0.5
v -0.1 0.1 0.5
v 0.1 0.1 0.5
v 0.3 0.1 0.5
v 0.5 0.1 0.5
v 0.7 0.1 0.5
v -0.6 0.1 0.4
v -0.5 0.1 0.4
v -0.3 0.1 0.4
v -0.1 0.1 0.4
v 0.1 0.1 0.4
v 0.3 0.1 0.4
v 0.5 0.1 0.4
v 0.6 0.1 0.4
v -0.6 0.1 0.3
v -0.5 0.1 0.3
v -0.3 0.1 0.3
v -0.1 0.1 0.3
v 0.1 0.1 0.3
v 0.3 0.1 0.3
v 0.5 0.1 0.3
v 0.6 0.1 0.3
v -0.6 0.1 -0.3
v -0.5 0.1 -0.3
v -0.3 0.1 -0.3
v -0.1 0.1 -0.3
v 0.1 0.1 -0.3
v 0.3 0.1 -0.3
v 0.5 0.1 -0.3
v 0.6 0.1 -0.3
v -0.6 0.1 -0.4
v -0.5 0.1 -0.4
v -0.3 0.1 -0.4
v -0.1 0.1 -0.4
v 0.1 0.1 -0.4
v 0.3 0.1 -0.4
v 0.5 0.1 -0.4
v 0.6 0.1 -0.4
v -0.7 0.1 -0.5
v -0.5 0.1 -0.5
v -0.3 0.1 -0.5
v -0.1 0.1 -0.5
v 0.1 0.1 -0.5
v 0.3 0.1 -0.5
v 0.5 0.1 -0.5
v 0.7 0.1 -0.5
v -0.5 0.5 0.3
v -0.3 0.5 0.3
v -0.2 0.5 0.3
v 0 0.5 0.3
v 0.1 0.5 0.3
v 0.3 0.5 0.3
v 0.2 0.5 0.2
v 0.3 0.5 0.2
v -0.5 0.5 0.1
v -0.4 0.5 0.1
v -0.3 0.5 0.1
v -0.2 0.5 0.1
v -0.1 0.5 0.1
v 0 0.5 0.1
v 0.1 0.5 0.1
v 0.3 0.5 0.1
v 0.4 0.5 0.1
v 0.5 0.5 0.1
v -0.3 0.5 0
v -0.2 0.5 0
v -0.1 0.5 0
v 0.1 0.5 0
v 0.2 0.5 0
v 0.4 0.5 0
v -0.5 0.5 -0.1
v -0.4 0.5 -0.1
v -0.3 0.5 -0.1
v -0.1 0.5 -0.1
v 0 0.5 -0.1
v 0.1 0.5 -0.1
v 0.2 0.5 -0.1
v 0.4 0.5 -0.1
v -0.3 0.5 -0.2
v -0.1 0.5 -0.2
v 0 0.5 -0.2
v 0.2 0.5 -0.2
v -0.3 0.5 -0.3
v -0.1 0.5 -0.3
v 0.1 0.5 -0.3
v 0.2 0.5 -0.3
v 0.4 0.5 -0.3
v 0.5 0.5 -0.3
v -0.6 0.6 0.4
v -0.5 0.6 0.4
v -0.3 0.6 0.4
v -0.1 0.6 0.4
v 0.1 0.6 0.4
v 0.3 0.6 0.4
v 0.5 0.6 0.4
v 0.6 0.6 0.4
v -0.6 0.6 0.3
v -0.5 0.6 0.3
v -0.3 0.6 0.3
v -0.2 0.6 0.3
v -0.1 0.6 0.3
v 0 0.6 0.3
v 0.1 0.6 0.3
v 0.3 0.6 0.3
v 0.5 0.6 0.3
v 0.6 0.6 0.3
v -0.2 0.6 0.1
v -0.1 0.6 0.1
v 0 0.6 0.1
v 0.1 0.6 0.1
v 0.3 0.6 0.1
v 0.5 0.6 0.1
v -0.3 0.6 0
v -0.1 0.6 0
v -0.5 0.6 -0.1
v -0.3 0.6 -0.1
v -0.1 0.6 -0.1
v 0.1 0.6 -0.1
v 0.2 0.6 -0.1
v 0.4 0.6 -0.1
v -0.3 0.6 -0.2
v -0.1 0.6 -0.2
v -0.6 0.6 -0.3
v -0.5 0.6 -0.3
v -0.3 0.6 -0.3
v -0.1 0.6 -0.3
v 0.1 0.6 -0.3
v 0.2 0.6 -0.3
v 0.3 0.6 -0.3
v 0.4 0.6 -0.3
v 0.5 0.6 -0.3
v 0.6 0.6 -0.3
v -0.6 0.6 -0.4
v -0.5 0.6 -0.4
v -0.3 0.6 -0.4
v -0.1 0.6 -0.4
v 0.1 0.6 -0.4
v 0.3 0.6 -0.4
v 0.5 0.6 -0.4
v 0.6 0.6 -0.4

# faces
f 3/4/1 2/4/1 1/4/1
f 4/4/1 2/4/1 3/4/1
f 9/4/1 6/4/1 5/4/1
f 9/1/1 7/1/1 6/1/1
f 10/4/1 8/4/1 7/4/1
f 10/1/1 7/1/1 9/1/1
f 11/4/1 9/4/1 5/4/1
f 11/4/1 10/4/1 9/4/1
f 12/4/1 8/4/1 10/4/1
f 12/4/1 10/4/1 11/4/1
f 13/4/1 11/4/1 5/4/1
f 14/1/1 12/1/1 11/1/1
f 14/4/1 11/4/1 13/4/1
f 15/4/1 8/4/1 12/4/1
f 15/1/1 12/1/1 14/1/1
f 16/4/1 8/4/1 15/4/1
f 21/4/1 18/4/1 17/4/1
f 22/4/1 18/4/1 21/4/1
f 25/4/1 20/4/1 19/4/1
f 26/4/1 20/4/1 25/4/1
f 27/4/1 23/4/1 22/4/1
f 28/4/1 23/4/1 27/4/1
f 29/4/1 25/4/1 24/4/1
f 30/4/1 25/4/1 29/4/1
f 33/2/1 32/2/1 31/2/1
f 34/2/1 32/2/1 33/2/1
f 37/2/1 36/2/1 35/2/1
f 38/2/1 36/2/1 37/2/1
f 41/3/1 40/3/1 39/3/1
f 42/3/1 40/3/1 41/3/1
f 47/4/1 44/4/1 43/4/1
f 48/4/1 44/4/1 47/4/1
f 51/4/1 46/4/1 45/4/1
f 52/4/1 46/4/1 51/4/1
f 53/4/1 49/4/1 48/4/1
f 54/4/1 49/4/1 53/4/1
f 55/4/1 51/4/1 50/4/1
f 56/4/1 51/4/1 55/4/1
f 60/3/1 58/3/1 57/3/1
f 60/3/1 59/3/1 58/3/1
f 61/3/1 59/3/1 60/3/1
f 65/3/1 63/3/1 62/3/1
f 65/3/1 64/3/1 63/3/1
f 66/3/1 64/3/1 65/3/1
f 71/4/1 68/4/1 67/4/1
f 72/4/1 68/4/1 71/4/1
f 75/4/1 70/4/1 69/4/1
f 76/4/1 70/4/1 75/4/1
f 77/4/1 73/4/1 72/4/1
f 78/4/1 73/4/1 77/4/1
f 79/4/1 75/4/1 74/4/1
f 80/4/1 75/4/1 79/4/1
f 83/1/1 82/1/1 81/1/1
f 84/1/1 82/1/1 83/1/1
f 85/4/2 86/4/2 89/4/2
f 89/4/2 86/4/2 90/4/2
f 87/4/2 88/4/2 93/4/2
f 93/4/2 88/4/2 94/4/2
f 90/4/2 91/4/2 95/4/2
f 95/4/2 91/4/2 96/4/2
f 92/4/2 93/4/2 97/4/2
f 97/4/2 93/4/2 98/4/2
f 99/1/2 100/1/2 102/1/2
f 100/1/2 101/1/2 102/1/2
f 102/1/2 101/1/2 103/1/2
f 104/3/2 105/3/2 106/3/2
f 106/3/2 105/3/2 107/3/2
f 108/4/2 109/4/2 112/4/2
f 112/4/2 109/4/2 113/4/2
f 110/4/2 111/4/2 116/4/2
f 116/4/2 111/4/2 117/4/2
f 113/4/2 114/4/2 118/4/2
f 118/4/2 114/4/2 119/4/2
f 115/4/2 116/4/2 120/4/2
f 120/4/2 116/4/2 121/4/2
f 122/2/2 123/2/2 124/2/2
f 124/2/2 123/2/2 125/2/2
f 126/2/2 127/2/2 128/2/2
f 128/2/2 127/2/2 129/2/2
f 130/3/2 131/3/2 133/3/2
f 131/3/2 132/3/2 133/3/2
f 133/3/2 132/3/2 134/3/2
f 135/4/2 136/4/2 139/4/2
f 139/4/2 136/4/2 140/4/2
f 137/4/2 138/4/2 143/4/2
f 143/4/2 138/4/2 144/4/2
f 140/4/2 141/4/2 145/4/2
f 145/4/2 141/4/2 146/4/2
f 142/4/2 143/4/2 147/4/2
f 147/4/2 143/4/2 148/4/2
f 149/3/2 150/3/2 151/3/2
f 151/3/2 150/3/2 152/3/2
f 153/4/2 154/4/2 157/4/2
f 154/1/2 155/1/2 157/1/2
f 155/4/2 156/4/2 158/4/2
f 157/1/2 155/1/2 158/1/2
f 153/4/2 157/4/2 159/4/2
f 157/4/2 158/4/2 159/4/2
f 158/4/2 156/4/2 160/4/2
f 159/4/2 158/4/2 160/4/2
f 153/4/2 159/4/2 161/4/2
f 159/1/2 160/1/2 162/1/2
f 161/4/2 159/4/2 162/4/2
f 160/4/2 156/4/2 163/4/2
f 162/1/2 160/1/2 163/1/2
f 163/4/2 156/4/2 164/4/2
f 165/4/2 166/4/2 167/4/2
f 167/4/2 166/4/2 168/4/2
f 171/4/3 170/4/3 169/4/3
f 172/4/3 170/4/3 171/4/3
f 175/4/3 174/4/3 173/4/3
f 176/4/3 174/4/3 175/4/3
f 179/4/3 178/4/3 177/4/3
f 180/4/3 178/4/3 179/4/3
f 183/4/3 182/4/3 181/4/3
f 184/4/3 182/4/3 183/4/3
f 188/4/3 186/4/3 185/4/3
f 189/4/3 186/4/3 188/4/3
f 190/4/3 186/4/3 189/4/3
f 191/4/3 186/4/3 190/4/3
f 192/1/3 188/1/3 187/1/3
f 193/1/3 188/1/3 192/1/3
f 194/4/3 190/4/3 189/4/3
f 195/1/3 191/1/3 190/1/3
f 195/4/3 190/4/3 194/4/3
f 196/1/3 191/1/3 195/1/3
f 198/4/3 194/4/3 193/4/3
f 198/4/3 196/4/3 195/4/3
f 198/4/3 195/4/3 194/4/3
f 199/4/3 196/4/3 198/4/3
f 200/4/3 196/4/3 199/4/3
f 201/4/3 196/4/3 200/4/3
f 202/1/3 198/1/3 197/1/3
f 203/1/3 198/1/3 202/1/3
f 204/4/3 200/4/3 199/4/3
f 205/1/3 201/1/3 200/1/3
f 205/4/3 200/4/3 204/4/3
f 206/1/3 201/1/3 205/1/3
f 208/4/3 204/4/3 203/4/3
f 208/4/3 206/4/3 205/4/3
f 208/4/3 205/4/3 204/4/3
f 209/4/3 206/4/3 208/4/3
f 210/4/3 206/4/3 209/4/3
f 211/4/3 206/4/3 210/4/3
f 212/1/3 208/1/3 207/1/3
f 213/1/3 208/1/3 212/1/3
f 214/4/3 210/4/3 209/4/3
f 215/1/3 211/1/3 210/1/3
f 215/4/3 210/4/3 214/4/3
f 216/1/3 211/1/3 215/1/3
f 217/4/3 214/4/3 213/4/3
f 217/4/3 216/4/3 215/4/3
f 217/4/3 215/4/3 214/4/3
f 218/4/3 216/4/3 217/4/3
f 221/1/3 220/1/3 219/1/3
f 222/1/3 220/1/3 221/1/3
f 225/1/3 224/1/3 223/1/3
f 226/1/3 224/1/3 225/1/3
f 229/1/3 228/1/3 227/1/3
f 230/1/3 228/1/3 229/1/3
f 233/3/3 232/3/3 231/3/3
f 234/3/3 232/3/3 233/3/3
f 237/2/3 236/2/3 235/2/3
f 238/2/3 236/2/3 237/2/3
f 239/2/3 236/2/3 238/2/3
f 242/3/3 241/3/3 240/3/3
f 243/3/3 241/3/3 242/3/3
f 244/3/3 241/3/3 243/3/3
f 247/3/3 246/3/3 245/3/3
f 248/3/3 246/3/3 247/3/3
f 251/4/3 250/4/3 249/4/3
f 252/4/3 250/4/3 251/4/3
f 253/1/3 252/1/3 251/1/3
f 254/1/3 252/1/3 253/1/3
f 255/4/3 254/4/3 253/4/3
f 256/4/3 254/4/3 255/4/3
f 259/1/3 258/1/3 257/1/3
f 260/1/3 258/1/3 259/1/3
f 261/1/4 262/1/4 263/1/4
f 263/1/4 262/1/4 264/1/4
f 263/4/4 264/4/4 265/4/4
f 265/4/4 264/4/4 266/4/4
f 267/1/4 268/1/4 269/1/4
f 269/1/4 268/1/4 270/1/4
f 269/4/4 270/4/4 271/4/4
f 271/4/4 270/4/4 272/4/4
f 273/2/4 274/2/4 275/2/4
f 275/2/4 274/2/4 276/2/4
f 277/3/4 278/3/4 279/3/4
f 279/3/4 278/3/4 280/3/4
f 280/3/4 278/3/4 281/3/4
f 282/3/4 283/3/4 284/3/4
f 284/3/4 283/3/4 285/3/4
f 285/3/4 283/3/4 286/3/4
f 287/2/4 288/2/4 289/2/4
f 289/2/4 288/2/4 290/2/4
f 291/1/4 292/1/4 293/1/4
f 293/1/4 292/1/4 294/1/4
f 295/1/4 296/1/4 297/1/4
f 297/1/4 296/1/4 298/1/4
f 299/1/4 300/1/4 301/1/4
f 301/1/4 300/1/4 302/1/4
f 303/4/4 304/4/4 306/4/4
f 306/4/4 304/4/4 307/4/4
f 307/4/4 304/4/4 308/4/4
f 308/4/4 304/4/4 309/4/4
f 305/1/4 306/1/4 310/1/4
f 310/1/4 306/1/4 311/1/4
f 307/4/4 308/4/4 312/4/4
f 308/1/4 309/1/4 313/1/4
f 312/4/4 308/4/4 313/4/4
f 313/1/4 309/1/4 314/1/4
f 311/4/4 312/4/4 316/4/4
f 313/4/4 314/4/4 316/4/4
f 312/4/4 313/4/4 316/4/4
f 316/4/4 314/4/4 317/4/4
f 317/4/4 314/4/4 318/4/4
f 318/4/4 314/4/4 319/4/4
f 315/1/4 316/1/4 320/1/4
f 320/1/4 316/1/4 321/1/4
f 317/4/4 318/4/4 322/4/4
f 318/1/4 319/1/4 323/1/4
f 322/4/4 318/4/4 323/4/4
f 323/1/4 319/1/4 324/1/4
f 321/4/4 322/4/4 326/4/4
f 323/4/4 324/4/4 326/4/4
f 322/4/4 323/4/4 326/4/4
f 326/4/4 324/4/4 327/4/4
f 327/4/4 324/4/4 328/4/4
f 328/4/4 324/4/4 329/4/4
f 325/1/4 326/1/4 330/1/4
f 330/1/4 326/1/4 331/1/4
f 327/4/4 328/4/4 332/4/4
f 328/1/4 329/1/4 333/1/4
f 332/4/4 328/4/4 333/4/4
f 333/1/4 329/1/4 334/1/4
f 331/4/4 332/4/4 335/4/4
f 333/4/4 334/4/4 335/4/4
f 332/4/4 333/4/4 335/4/4
f 335/4/4 334/4/4 336/4/4
f 337/4/4 338/4/4 339/4/4
f 339/4/4 338/4/4 340/4/4
f 341/4/4 342/4/4 343/4/4
f 343/4/4 342/4/4 344/4/4
f 345/4/4 346/4/4 347/4/4
f 347/4/4 346/4/4 348/4/4
f 349/4/4 350/4/4 351/4/4
f 351/4/4 350/4/4 352/4/4
f 361/4/5 354/4/5 353/4/5
f 362/4/5 356/4/5 355/4/5
f 363/4/5 356/4/5 362/4/5
f 364/4/5 358/4/5 357/4/5
f 365/4/5 358/4/5 364/4/5
f 366/4/5 360/4/5 359/4/5
f 367/4/5 361/4/5 353/4/5
f 368/1/5 362/1/5 361/1/5
f 368/4/5 361/4/5 367/4/5
f 369/4/5 363/4/5 362/4/5
f 369/1/5 362/1/5 368/1/5
f 370/1/5 364/1/5 363/1/5
f 370/4/5 363/4/5 369/4/5
f 371/4/5 365/4/5 364/4/5
f 371/1/5 364/1/5 370/1/5
f 372/1/5 366/1/5 365/1/5
f 372/4/5 365/4/5 371/4/5
f 373/4/5 360/4/5 366/4/5
f 373/1/5 366/1/5 372/1/5
f 374/4/5 360/4/5 373/4/5
f 375/1/5 370/1/5 369/1/5
f 375/1/5 371/1/5 370/1/5
f 375/1/5 374/1/5 373/1/5
f 375/1/5 373/1/5 372/1/5
f 375/1/5 372/1/5 371/1/5
f 375/1/5 368/1/5 367/1/5
f 375/1/5 369/1/5 368/1/5
f 375/4/5 367/4/5 353/4/5
f 376/1/5 374/1/5 375/1/5
f 377/1/5 374/1/5 376/1/5
f 378/1/5 374/1/5 377/1/5
f 379/1/5 374/1/5 378/1/5
f 380/1/5 374/1/5 379/1/5
f 381/1/5 374/1/5 380/1/5
f 382/4/5 360/4/5 374/4/5
f 382/1/5 374/1/5 381/1/5
f 383/4/5 376/4/5 375/4/5
f 383/1/5 377/1/5 376/1/5
f 384/4/5 378/4/5 377/4/5
f 384/1/5 377/1/5 383/1/5
f 385/1/5 379/1/5 378/1/5
f 385/4/5 378/4/5 384/4/5
f 386/4/5 380/4/5 379/4/5
f 386/1/5 379/1/5 385/1/5
f 387/1/5 381/1/5 380/1/5
f 387/4/5 380/4/5 386/4/5
f 388/4/5 382/4/5 381/4/5
f 388/1/5 381/1/5 387/1/5
f 389/4/5 375/4/5 353/4/5
f 389/4/5 383/4/5 375/4/5
f 390/4/5 383/4/5 389/4/5
f 391/4/5 385/4/5 384/4/5
f 392/4/5 385/4/5 391/4/5
f 393/4/5 387/4/5 386/4/5
f 394/4/5 387/4/5 393/4/5
f 395/4/5 382/4/5 388/4/5
f 396/4/5 360/4/5 382/4/5
f 396/4/5 382/4/5 395/4/5
f 403/4/5 398/4/5 397/4/5
f 404/4/5 398/4/5 403/4/5
f 405/4/5 400/4/5 399/4/5
f 406/4/5 400/4/5 405/4/5
f 407/4/5 402/4/5 401/4/5
f 408/4/5 402/4/5 407/4/5
f 415/4/5 410/4/5 409/4/5
f 416/4/5 410/4/5 415/4/5
f 417/4/5 412/4/5 411/4/5
f 418/4/5 412/4/5 417/4/5
f 419/4/5 414/4/5 413/4/5
f 420/4/5 414/4/5 419/4/5
f 421/4/6 422/4/6 429/4/6
f 429/4/6 422/4/6 430/4/6
f 423/4/6 424/4/6 431/4/6
f 431/4/6 424/4/6 432/4/6
f 425/4/6 426/4/6 433/4/6
f 433/4/6 426/4/6 434/4/6
f 427/4/6 428/4/6 435/4/6
f 435/4/6 428/4/6 436/4/6
f 421/4/6 429/4/6 437/4/6
f 430/1/6 431/1/6 438/1/6
f 438/1/6 431/1/6 439/1/6
f 432/1/6 433/1/6 440/1/6
f 440/1/6 433/1/6 441/1/6
f 434/1/6 435/1/6 442/1/6
f 442/1/6 435/1/6 443/1/6
f 436/4/6 428/4/6 444/4/6
f 421/4/6 437/4/6 445/4/6
f 444/4/6 428/4/6 452/4/6
f 421/4/6 445/4/6 453/4/6
f 446/1/6 447/1/6 454/1/6
f 454/1/6 447/1/6 455/1/6
f 448/1/6 449/1/6 456/1/6
f 456/1/6 449/1/6 457/1/6
f 450/1/6 451/1/6 458/1/6
f 458/1/6 451/1/6 459/1/6
f 452/4/6 428/4/6 460/4/6
f 421/4/6 453/4/6 461/4/6
f 453/4/6 454/4/6 461/4/6
f 461/4/6 454/4/6 462/4/6
f 455/4/6 456/4/6 463/4/6
f 463/4/6 456/4/6 464/4/6
f 457/4/6 458/4/6 465/4/6
f 465/4/6 458/4/6 466/4/6
f 459/4/6 460/4/6 467/4/6
f 460/4/6 428/4/6 468/4/6
f 467/4/6 460/4/6 468/4/6
f 472/3/6 473/3/6 475/3/6
f 473/3/6 474/3/6 475/3/6
f 475/3/6 474/3/6 476/3/6
f 469/2/6 470/2/6 477/2/6
f 477/2/6 470/2/6 478/2/6
f 470/3/6 471/3/6 479/3/6
f 478/2/6 470/2/6 479/2/6
f 479/3/6 471/3/6 480/3/6
f 472/3/6 475/3/6 482/3/6
f 482/3/6 475/3/6 483/3/6
f 475/2/6 476/2/6 484/2/6
f 478/2/6 479/2/6 487/2/6
f 479/2/6 480/2/6 487/2/6
f 480/3/6 481/3/6 488/3/6
f 487/2/6 480/2/6 488/2/6
f 488/3/6 481/3/6 489/3/6
f 483/3/6 475/3/6 490/3/6
f 475/2/6 484/2/6 491/2/6
f 490/3/6 475/3/6 491/3/6
f 484/2/6 485/2/6 491/2/6
f 485/3/6 486/3/6 492/3/6
f 491/2/6 485/2/6 492/2/6
f 477/3/6 478/3/6 493/3/6
f 478/2/6 487/2/6 494/2/6
f 493/3/6 478/3/6 494/3/6
f 494/2/6 487/2/6 495/2/6
f 490/2/6 491/2/6 498/2/6
f 491/3/6 492/3/6 499/3/6
f 498/2/6 491/2/6 499/2/6
f 492/3/6 486/3/6 500/3/6
f 499/3/6 492/3/6 500/3/6
f 496/3/6 497/3/6 502/3/6
f 498/2/6 499/2/6 503/2/6
f 497/2/6 498/2/6 503/2/6
f 502/3/6 497/3/6 503/3/6
f 503/2/6 499/2/6 504/2/6
f 501/3/6 502/3/6 505/3/6
f 502/3/6 503/3/6 505/3/6
f 503/3/6 504/3/6 505/3/6
f 505/3/6 504/3/6 506/3/6
f 506/3/6 504/3/6 507/3/6
f 507/3/6 504/3/6 508/3/6
f 500/3/6 486/3/6 509/3/6
f 509/3/6 486/3/6 510/3/6
f 511/4/6 512/4/6 519/4/6
f 512/1/6 513/1/6 520/1/6
f 519/4/6 512/4/6 520/4/6
f 513/4/6 514/4/6 521/4/6
f 520/1/6 513/1/6 521/1/6
f 521/4/6 514/4/6 522/4/6
f 514/1/6 515/1/6 523/1/6
f 522/4/6 514/4/6 523/4/6
f 523/1/6 515/1/6 524/1/6
f 515/4/6 516/4/6 525/4/6
f 524/1/6 515/1/6 525/1/6
f 516/1/6 517/1/6 526/1/6
f 525/4/6 516/4/6 526/4/6
f 517/4/6 518/4/6 527/4/6
f 526/1/6 517/1/6 527/1/6
f 527/4/6 518/4/6 528/4/6
f 523/2/6 524/2/6 529/2/6
f 522/2/6 523/2/6 529/2/6
f 529/2/6 524/2/6 530/2/6
f 530/2/6 524/2/6 531/2/6
f 526/3/6 527/3/6 533/3/6
f 527/1/6 528/1/6 534/1/6
f 533/3/6 527/3/6 534/3/6
f 531/3/6 532/3/6 536/3/6
f 530/3/6 531/3/6 536/3/6
f 519/1/6 520/1/6 537/1/6
f 535/2/6 536/2/6 538/2/6
f 536/3/6 532/3/6 539/3/6
f 538/2/6 536/2/6 539/2/6
f 539/3/6 532/3/6 540/3/6
f 537/3/6 538/3/6 543/3/6
f 538/2/6 539/2/6 543/2/6
f 543/2/6 539/2/6 544/2/6
f 519/1/6 537/1/6 545/1/6
f 537/3/6 543/3/6 546/3/6
f 545/1/6 537/1/6 546/1/6
f 546/3/6 543/3/6 547/3/6
f 541/3/6 542/3/6 550/3/6
f 550/3/6 542/3/6 551/3/6
f 551/3/6 542/3/6 552/3/6
f 534/1/6 528/1/6 553/1/6
f 553/1/6 528/1/6 554/1/6
f 545/4/6 546/4/6 555/4/6
f 546/1/6 547/1/6 556/1/6
f 555/4/6 546/4/6 556/4/6
f 547/4/6 548/4/6 557/4/6
f 556/1/6 547/1/6 557/1/6
f 548/1/6 549/1/6 558/1/6
f 557/4/6 548/4/6 558/4/6
f 549/4/6 550/4/6 559/4/6
f 558/1/6 549/1/6 559/1/6
f 550/4/6 551/4/6 559/4/6
f 551/1/6 552/1/6 560/1/6
f 559/4/6 551/4/6 560/4/6
f 552/1/6 553/1/6 560/1/6
f 553/4/6 554/4/6 561/4/6
f 560/1/6 553/1/6 561/1/6
f 561/4/6 554/4/6 562/4/6
