# MagicaVoxel @ Ephtracy

# group
o 

# material
mtllib Block_Vilage_02.mtl
usemtl palette

# normals
vn -1 0 0
vn 1 0 0
vn 0 0 1
vn 0 0 -1
vn 0 -1 0
vn 0 1 0

# texcoords
vt 0.279297 0.5
vt 0.451172 0.5
vt 0.583984 0.5

# verts
v -3.2 0 3.2
v -3.2 0 -3.2
v -3.2 0.3 3.2
v -3.2 0.3 -3.2
v -3.2 0.6 3.2
v -3.2 0.6 -3.2
v 3.2 0 3.2
v 3.2 0 -3.2
v 3.2 0.3 3.2
v 3.2 0.3 -3.2
v 3.2 0.5 3.2
v 3.2 0.5 -3.2
v 3.2 0.6 3.2
v 3.2 0.6 -3.2
v -3.2 0 3.2
v -3.2 0.3 3.2
v -3.2 0.6 3.2
v -2.3 0.5 3.2
v -2.3 0.6 3.2
v -2.1 0.5 3.2
v -2.1 0.6 3.2
v 3.2 0 3.2
v 3.2 0.3 3.2
v 3.2 0.5 3.2
v 3.2 0.6 3.2
v -3.2 0 -3.2
v -3.2 0.3 -3.2
v -3.2 0.6 -3.2
v -2.3 0.5 -3.2
v -2.3 0.6 -3.2
v -2.1 0.5 -3.2
v -2.1 0.6 -3.2
v 3.2 0 -3.2
v 3.2 0.3 -3.2
v 3.2 0.5 -3.2
v 3.2 0.6 -3.2
v -3.2 0 3.2
v 3.2 0 3.2
v -3.2 0 -3.2
v 3.2 0 -3.2
v -3.2 0.6 3.2
v -2.3 0.6 3.2
v -2.1 0.6 3.2
v 3.2 0.6 3.2
v -3.2 0.6 -3.2
v -2.3 0.6 -3.2
v -2.1 0.6 -3.2
v 3.2 0.6 -3.2

# faces
f 3/1/1 2/1/1 1/1/1
f 4/1/1 2/1/1 3/1/1
f 5/3/1 4/3/1 3/3/1
f 6/3/1 4/3/1 5/3/1
f 7/1/2 8/1/2 9/1/2
f 9/1/2 8/1/2 10/1/2
f 9/3/2 10/3/2 11/3/2
f 11/3/2 10/3/2 12/3/2
f 11/2/2 12/2/2 13/2/2
f 13/2/2 12/2/2 14/2/2
f 18/3/3 17/3/3 16/3/3
f 19/3/3 17/3/3 18/3/3
f 20/3/3 18/3/3 16/3/3
f 20/1/3 19/1/3 18/1/3
f 21/1/3 19/1/3 20/1/3
f 22/1/3 16/1/3 15/1/3
f 23/3/3 20/3/3 16/3/3
f 23/1/3 16/1/3 22/1/3
f 24/2/3 21/2/3 20/2/3
f 24/3/3 20/3/3 23/3/3
f 25/2/3 21/2/3 24/2/3
f 27/3/4 28/3/4 29/3/4
f 29/3/4 28/3/4 30/3/4
f 27/3/4 29/3/4 31/3/4
f 29/1/4 30/1/4 31/1/4
f 31/1/4 30/1/4 32/1/4
f 26/1/4 27/1/4 33/1/4
f 27/3/4 31/3/4 34/3/4
f 33/1/4 27/1/4 34/1/4
f 31/2/4 32/2/4 35/2/4
f 34/3/4 31/3/4 35/3/4
f 35/2/4 32/2/4 36/2/4
f 39/1/5 38/1/5 37/1/5
f 40/1/5 38/1/5 39/1/5
f 41/3/6 42/3/6 45/3/6
f 42/1/6 43/1/6 46/1/6
f 45/3/6 42/3/6 46/3/6
f 43/2/6 44/2/6 47/2/6
f 46/1/6 43/1/6 47/1/6
f 47/2/6 44/2/6 48/2/6
