# MagicaVoxel @ Ephtracy

# group
o 

# material
mtllib Nature_Tree_01.mtl
usemtl palette

# normals
vn -1 0 0
vn 1 0 0
vn 0 0 1
vn 0 0 -1
vn 0 -1 0
vn 0 1 0

# texcoords
vt 0.310547 0.5
vt 0.505859 0.5

# verts
v -1.1 1.7 0.4
v -1.1 1.7 -0.2
v -1.1 2.9 0.4
v -1.1 2.9 -0.2
v -0.7 1.9 0.8
v -0.7 1.9 0.4
v -0.7 1.9 -0.2
v -0.7 1.9 -0.7
v -0.7 2.8 0.8
v -0.7 2.8 0.6
v -0.7 2.9 0.4
v -0.7 2.9 -0.2
v -0.7 3.2 -0.5
v -0.7 3.2 -0.7
v -0.7 3.5 0.6
v -0.7 3.5 -0.5
v -0.5 0 0.2
v -0.5 0 0
v -0.5 0.5 0.2
v -0.5 0.5 0
v -0.4 0 0
v -0.4 0 -0.1
v -0.4 0.5 0.1
v -0.4 0.5 0
v -0.4 1.2 0.1
v -0.4 1.2 -0.1
v -0.4 1.7 0.2
v -0.4 1.7 0.1
v -0.4 1.9 0.2
v -0.4 1.9 0.1
v -0.4 3.2 -0.5
v -0.4 3.2 -0.7
v -0.4 3.5 -0.5
v -0.4 3.5 -0.7
v -0.2 0 0.3
v -0.2 0 0.1
v -0.2 0 -0.1
v -0.2 0 -0.2
v -0.2 0 -0.3
v -0.2 0 -0.5
v -0.2 0.1 -0.3
v -0.2 0.1 -0.5
v -0.2 0.4 0.3
v -0.2 0.4 0.2
v -0.2 1.2 0.1
v -0.2 1.2 -0.1
v -0.2 1.5 0.3
v -0.2 1.5 0.2
v -0.2 1.7 0.2
v -0.2 1.7 0.1
v -0.2 1.8 0.2
v -0.2 1.8 0.1
v -0.2 1.9 0.3
v -0.2 1.9 -0.2
v -0.2 2.3 -0.7
v -0.2 2.3 -0.9
v -0.2 2.8 0.8
v -0.2 2.8 0.6
v -0.2 3 -0.7
v -0.2 3 -0.9
v -0.2 3.5 0.8
v -0.2 3.5 0.6
v -0.1 0 -0.2
v -0.1 0 -0.3
v -0.1 0.1 -0.3
v -0.1 0.1 -0.4
v -0.1 0.3 -0.2
v -0.1 0.3 -0.4
v -0.1 1.7 -0.2
v -0.1 1.7 -0.3
v -0.1 1.9 -0.2
v -0.1 1.9 -0.3
v 0 0 0.7
v 0 0 0.4
v 0 0.2 0.7
v 0 0.2 0.4
v 0 0.4 0.3
v 0 0.4 0.2
v 0 1.5 0.3
v 0 1.5 0.2
v 0.1 0 0.4
v 0.1 0 0.3
v 0.1 0.2 0.5
v 0.1 0.2 0.4
v 0.1 0.9 0.5
v 0.1 0.9 0.3
v 0.1 1.8 0.4
v 0.1 1.8 0.3
v 0.1 1.9 0.4
v 0.1 1.9 0.3
v 0.3 0 -0.2
v 0.3 0 -0.3
v 0.3 0.5 -0.2
v 0.3 0.5 -0.3
v 0.4 0 0.1
v 0.4 0 0
v 0.4 0.2 0.1
v 0.4 0.2 0
v 0.4 2.8 1.1
v 0.4 2.8 0.8
v 0.4 3.5 0.8
v 0.4 3.5 0.5
v 0.4 3.8 1.1
v 0.4 3.8 0.5
v 0.5 1.6 0.1
v 0.5 1.6 0
v 0.5 1.9 0.1
v 0.5 1.9 0
v 0.7 2.7 -0.7
v 0.7 2.7 -0.8
v 0.7 3.3 -0.7
v 0.7 3.3 -0.8
v -0.5 1.7 0.4
v -0.5 1.7 -0.2
v -0.5 1.9 0.4
v -0.5 1.9 -0.2
v -0.3 0 0.2
v -0.3 0 0.1
v -0.3 0.5 0.2
v -0.3 0.5 0.1
v -0.3 1.8 0.2
v -0.3 1.8 0.1
v -0.3 1.9 0.2
v -0.3 1.9 0.1
v 0 0 -0.4
v 0 0 -0.5
v 0 0.1 -0.4
v 0 0.1 -0.5
v 0.1 0 -0.2
v 0.1 0 -0.4
v 0.1 0.3 -0.2
v 0.1 0.3 -0.4
v 0.1 1.7 -0.2
v 0.1 1.7 -0.3
v 0.1 1.9 -0.2
v 0.1 1.9 -0.3
v 0.2 0 0.7
v 0.2 0 0.5
v 0.2 0.2 0.7
v 0.2 0.2 0.5
v 0.2 1.1 -0.1
v 0.2 1.1 -0.2
v 0.2 1.8 0.4
v 0.2 1.8 0.3
v 0.2 1.9 0.4
v 0.2 1.9 0.3
v 0.2 1.9 -0.1
v 0.2 1.9 -0.2
v 0.3 0 0.1
v 0.3 0 -0.1
v 0.3 0.5 -0.1
v 0.3 0.5 -0.2
v 0.3 0.9 0.3
v 0.3 0.9 0.1
v 0.3 1.1 -0.1
v 0.3 1.1 -0.2
v 0.3 1.5 0.1
v 0.3 1.5 0
v 0.3 1.6 0.1
v 0.3 1.6 0
v 0.3 1.9 0.3
v 0.3 1.9 -0.1
v 0.3 2.3 -0.7
v 0.3 2.3 -0.9
v 0.3 3 -0.7
v 0.3 3 -0.9
v 0.4 0 0.5
v 0.4 0 0.3
v 0.4 0.2 0.3
v 0.4 0.2 0.1
v 0.4 0.9 0.5
v 0.4 0.9 0.1
v 0.4 1.9 -0.3
v 0.4 1.9 -0.7
v 0.4 2.3 -0.3
v 0.4 2.3 -0.7
v 0.5 0 -0.1
v 0.5 0 -0.3
v 0.5 0.5 -0.1
v 0.5 0.5 -0.3
v 0.6 0 0.3
v 0.6 0 0
v 0.6 0.2 0.3
v 0.6 0.2 0
v 0.6 1.5 0.1
v 0.6 1.5 0
v 0.6 1.9 0.1
v 0.6 1.9 0
v 0.8 1.9 0.8
v 0.8 1.9 -0.3
v 0.8 2.3 -0.3
v 0.8 2.3 -0.7
v 0.8 2.7 -0.2
v 0.8 2.7 -0.7
v 0.8 2.8 0.8
v 0.8 2.8 0.5
v 0.8 3.3 -0.2
v 0.8 3.3 -0.7
v 0.8 3.5 0.5
v 0.8 3.5 -0.7
v 1 2.8 1.1
v 1 2.8 0.5
v 1 3.8 1.1
v 1 3.8 0.5
v 1.1 2.7 -0.2
v 1.1 2.7 -0.8
v 1.1 3.3 -0.2
v 1.1 3.3 -0.8
v 0.4 2.8 1.1
v 0.4 3.8 1.1
v 1 2.8 1.1
v 1 3.8 1.1
v -0.7 1.9 0.8
v -0.7 2.8 0.8
v -0.2 2.8 0.8
v -0.2 3.5 0.8
v 0.4 2.8 0.8
v 0.4 3.5 0.8
v 0.8 1.9 0.8
v 0.8 2.8 0.8
v 0 0 0.7
v 0 0.2 0.7
v 0.2 0 0.7
v 0.2 0.2 0.7
v -0.7 2.8 0.6
v -0.7 3.5 0.6
v -0.2 2.8 0.6
v -0.2 3.5 0.6
v 0.1 0.2 0.5
v 0.1 0.9 0.5
v 0.2 0 0.5
v 0.2 0.2 0.5
v 0.4 0 0.5
v 0.4 0.9 0.5
v -1.1 1.7 0.4
v -1.1 2.9 0.4
v -0.7 1.9 0.4
v -0.7 2.9 0.4
v -0.5 1.7 0.4
v -0.5 1.9 0.4
v 0.1 1.8 0.4
v 0.1 1.9 0.4
v 0.2 1.8 0.4
v 0.2 1.9 0.4
v -0.2 0 0.3
v -0.2 0.4 0.3
v -0.2 1.5 0.3
v -0.2 1.9 0.3
v 0 0.4 0.3
v 0 1.5 0.3
v 0.1 0 0.3
v 0.1 0.9 0.3
v 0.1 1.8 0.3
v 0.1 1.9 0.3
v 0.2 1.8 0.3
v 0.2 1.9 0.3
v 0.3 0.9 0.3
v 0.3 1.9 0.3
v 0.4 0 0.3
v 0.4 0.2 0.3
v 0.6 0 0.3
v 0.6 0.2 0.3
v -0.5 0 0.2
v -0.5 0.5 0.2
v -0.4 1.7 0.2
v -0.4 1.9 0.2
v -0.3 0 0.2
v -0.3 0.5 0.2
v -0.3 1.8 0.2
v -0.3 1.9 0.2
v -0.2 0.4 0.2
v -0.2 1.5 0.2
v -0.2 1.7 0.2
v -0.2 1.8 0.2
v 0 0.4 0.2
v 0 1.5 0.2
v -0.4 0.5 0.1
v -0.4 1.2 0.1
v -0.3 0 0.1
v -0.3 0.5 0.1
v -0.2 0 0.1
v -0.2 1.2 0.1
v 0.3 1.5 0.1
v 0.3 1.6 0.1
v 0.5 1.6 0.1
v 0.5 1.9 0.1
v 0.6 1.5 0.1
v 0.6 1.9 0.1
v 0.3 0 -0.1
v 0.3 0.5 -0.1
v 0.5 0 -0.1
v 0.5 0.5 -0.1
v 0.8 2.7 -0.2
v 0.8 3.3 -0.2
v 1.1 2.7 -0.2
v 1.1 3.3 -0.2
v -0.2 0 -0.3
v -0.2 0.1 -0.3
v -0.1 0 -0.3
v -0.1 0.1 -0.3
v 0.4 3.5 0.5
v 0.4 3.8 0.5
v 0.8 2.8 0.5
v 0.8 3.5 0.5
v 1 2.8 0.5
v 1 3.8 0.5
v 0 0 0.4
v 0 0.2 0.4
v 0.1 0 0.4
v 0.1 0.2 0.4
v -0.4 1.7 0.1
v -0.4 1.9 0.1
v -0.3 1.8 0.1
v -0.3 1.9 0.1
v -0.2 1.7 0.1
v -0.2 1.8 0.1
v 0.3 0 0.1
v 0.3 0.9 0.1
v 0.4 0 0.1
v 0.4 0.2 0.1
v 0.4 0.9 0.1
v -0.5 0 0
v -0.5 0.5 0
v -0.4 0 0
v -0.4 0.5 0
v 0.3 1.5 0
v 0.3 1.6 0
v 0.4 0 0
v 0.4 0.2 0
v 0.5 1.6 0
v 0.5 1.9 0
v 0.6 0 0
v 0.6 0.2 0
v 0.6 1.5 0
v 0.6 1.9 0
v -0.4 0 -0.1
v -0.4 1.2 -0.1
v -0.2 0 -0.1
v -0.2 1.2 -0.1
v 0.2 1.1 -0.1
v 0.2 1.9 -0.1
v 0.3 1.1 -0.1
v 0.3 1.9 -0.1
v -1.1 1.7 -0.2
v -1.1 2.9 -0.2
v -0.7 1.9 -0.2
v -0.7 2.9 -0.2
v -0.5 1.7 -0.2
v -0.5 1.9 -0.2
v -0.2 0 -0.2
v -0.2 1.9 -0.2
v -0.1 0 -0.2
v -0.1 0.3 -0.2
v -0.1 1.7 -0.2
v -0.1 1.9 -0.2
v 0.1 0 -0.2
v 0.1 0.3 -0.2
v 0.1 1.7 -0.2
v 0.1 1.9 -0.2
v 0.2 1.1 -0.2
v 0.2 1.9 -0.2
v 0.3 0 -0.2
v 0.3 0.5 -0.2
v 0.3 1.1 -0.2
v -0.1 1.7 -0.3
v -0.1 1.9 -0.3
v 0.1 1.7 -0.3
v 0.1 1.9 -0.3
v 0.3 0 -0.3
v 0.3 0.5 -0.3
v 0.4 1.9 -0.3
v 0.4 2.3 -0.3
v 0.5 0 -0.3
v 0.5 0.5 -0.3
v 0.8 1.9 -0.3
v 0.8 2.3 -0.3
v -0.1 0.1 -0.4
v -0.1 0.3 -0.4
v 0 0 -0.4
v 0 0.1 -0.4
v 0.1 0 -0.4
v 0.1 0.3 -0.4
v -0.7 3.2 -0.5
v -0.7 3.5 -0.5
v -0.4 3.2 -0.5
v -0.4 3.5 -0.5
v -0.2 0 -0.5
v -0.2 0.1 -0.5
v 0 0 -0.5
v 0 0.1 -0.5
v -0.7 1.9 -0.7
v -0.7 3.2 -0.7
v -0.4 3.2 -0.7
v -0.4 3.5 -0.7
v -0.2 2.3 -0.7
v -0.2 3 -0.7
v 0.3 2.3 -0.7
v 0.3 3 -0.7
v 0.4 1.9 -0.7
v 0.4 2.3 -0.7
v 0.7 2.7 -0.7
v 0.7 3.3 -0.7
v 0.8 2.3 -0.7
v 0.8 2.7 -0.7
v 0.8 3.3 -0.7
v 0.8 3.5 -0.7
v 0.7 2.7 -0.8
v 0.7 3.3 -0.8
v 1.1 2.7 -0.8
v 1.1 3.3 -0.8
v -0.2 2.3 -0.9
v -0.2 3 -0.9
v 0.3 2.3 -0.9
v 0.3 3 -0.9
v 0 0 0.7
v 0.2 0 0.7
v 0.2 0 0.5
v 0.4 0 0.5
v 0 0 0.4
v 0.1 0 0.4
v -0.2 0 0.3
v 0.1 0 0.3
v 0.4 0 0.3
v 0.6 0 0.3
v -0.5 0 0.2
v -0.3 0 0.2
v -0.3 0 0.1
v -0.2 0 0.1
v 0.3 0 0.1
v 0.4 0 0.1
v -0.5 0 0
v -0.4 0 0
v 0.4 0 0
v 0.6 0 0
v -0.4 0 -0.1
v -0.2 0 -0.1
v 0.3 0 -0.1
v 0.5 0 -0.1
v -0.2 0 -0.2
v -0.1 0 -0.2
v 0.1 0 -0.2
v 0.3 0 -0.2
v -0.2 0 -0.3
v -0.1 0 -0.3
v 0.3 0 -0.3
v 0.5 0 -0.3
v 0 0 -0.4
v 0.1 0 -0.4
v -0.2 0 -0.5
v 0 0 -0.5
v -0.2 1.5 0.3
v 0 1.5 0.3
v -0.2 1.5 0.2
v 0 1.5 0.2
v 0.3 1.5 0.1
v 0.6 1.5 0.1
v 0.3 1.5 0
v 0.6 1.5 0
v -1.1 1.7 0.4
v -0.5 1.7 0.4
v -0.4 1.7 0.2
v -0.2 1.7 0.2
v -0.4 1.7 0.1
v -0.2 1.7 0.1
v -1.1 1.7 -0.2
v -0.5 1.7 -0.2
v -0.1 1.7 -0.2
v 0.1 1.7 -0.2
v -0.1 1.7 -0.3
v 0.1 1.7 -0.3
v 0.1 1.8 0.4
v 0.2 1.8 0.4
v 0.1 1.8 0.3
v 0.2 1.8 0.3
v -0.7 1.9 0.8
v 0.8 1.9 0.8
v -0.7 1.9 0.4
v -0.5 1.9 0.4
v 0.1 1.9 0.4
v 0.2 1.9 0.4
v -0.2 1.9 0.3
v 0.1 1.9 0.3
v 0.2 1.9 0.3
v 0.3 1.9 0.3
v -0.4 1.9 0.2
v -0.3 1.9 0.2
v -0.4 1.9 0.1
v -0.3 1.9 0.1
v 0.5 1.9 0.1
v 0.6 1.9 0.1
v 0.5 1.9 0
v 0.6 1.9 0
v 0.2 1.9 -0.1
v 0.3 1.9 -0.1
v -0.7 1.9 -0.2
v -0.5 1.9 -0.2
v -0.2 1.9 -0.2
v -0.1 1.9 -0.2
v 0.1 1.9 -0.2
v 0.2 1.9 -0.2
v -0.1 1.9 -0.3
v 0.1 1.9 -0.3
v 0.4 1.9 -0.3
v 0.8 1.9 -0.3
v -0.7 1.9 -0.7
v 0.4 1.9 -0.7
v 0.4 2.3 -0.3
v 0.8 2.3 -0.3
v -0.2 2.3 -0.7
v 0.3 2.3 -0.7
v 0.4 2.3 -0.7
v 0.8 2.3 -0.7
v -0.2 2.3 -0.9
v 0.3 2.3 -0.9
v 0.8 2.7 -0.2
v 1.1 2.7 -0.2
v 0.7 2.7 -0.7
v 0.8 2.7 -0.7
v 0.7 2.7 -0.8
v 1.1 2.7 -0.8
v 0.4 2.8 1.1
v 1 2.8 1.1
v 0.4 2.8 0.8
v 0.8 2.8 0.8
v 0.8 2.8 0.5
v 1 2.8 0.5
v -0.2 0.1 -0.3
v -0.1 0.1 -0.3
v -0.1 0.1 -0.4
v 0 0.1 -0.4
v -0.2 0.1 -0.5
v 0 0.1 -0.5
v 0 0.2 0.7
v 0.2 0.2 0.7
v 0.1 0.2 0.5
v 0.2 0.2 0.5
v 0 0.2 0.4
v 0.1 0.2 0.4
v 0.4 0.2 0.3
v 0.6 0.2 0.3
v 0.4 0.2 0.1
v 0.4 0.2 0
v 0.6 0.2 0
v -0.1 0.3 -0.2
v 0.1 0.3 -0.2
v -0.1 0.3 -0.4
v 0.1 0.3 -0.4
v -0.2 0.4 0.3
v 0 0.4 0.3
v -0.2 0.4 0.2
v 0 0.4 0.2
v -0.5 0.5 0.2
v -0.3 0.5 0.2
v -0.4 0.5 0.1
v -0.3 0.5 0.1
v -0.5 0.5 0
v -0.4 0.5 0
v 0.3 0.5 -0.1
v 0.5 0.5 -0.1
v 0.3 0.5 -0.2
v 0.3 0.5 -0.3
v 0.5 0.5 -0.3
v 0.1 0.9 0.5
v 0.4 0.9 0.5
v 0.1 0.9 0.3
v 0.3 0.9 0.3
v 0.3 0.9 0.1
v 0.4 0.9 0.1
v 0.2 1.1 -0.1
v 0.3 1.1 -0.1
v 0.2 1.1 -0.2
v 0.3 1.1 -0.2
v -0.4 1.2 0.1
v -0.2 1.2 0.1
v -0.4 1.2 -0.1
v -0.2 1.2 -0.1
v 0.3 1.6 0.1
v 0.5 1.6 0.1
v 0.3 1.6 0
v 0.5 1.6 0
v -0.3 1.8 0.2
v -0.2 1.8 0.2
v -0.3 1.8 0.1
v -0.2 1.8 0.1
v -0.7 2.8 0.8
v -0.2 2.8 0.8
v -0.7 2.8 0.6
v -0.2 2.8 0.6
v -1.1 2.9 0.4
v -0.7 2.9 0.4
v -1.1 2.9 -0.2
v -0.7 2.9 -0.2
v -0.2 3 -0.7
v 0.3 3 -0.7
v -0.2 3 -0.9
v 0.3 3 -0.9
v -0.7 3.2 -0.5
v -0.4 3.2 -0.5
v -0.7 3.2 -0.7
v -0.4 3.2 -0.7
v 0.8 3.3 -0.2
v 1.1 3.3 -0.2
v 0.7 3.3 -0.7
v 0.8 3.3 -0.7
v 0.7 3.3 -0.8
v 1.1 3.3 -0.8
v -0.2 3.5 0.8
v 0.4 3.5 0.8
v -0.7 3.5 0.6
v -0.2 3.5 0.6
v 0.4 3.5 0.5
v 0.8 3.5 0.5
v -0.7 3.5 -0.5
v -0.4 3.5 -0.5
v -0.4 3.5 -0.7
v 0.8 3.5 -0.7
v 0.4 3.8 1.1
v 1 3.8 1.1
v 0.4 3.8 0.5
v 1 3.8 0.5

# faces
f 3/2/1 2/2/1 1/2/1
f 4/2/1 2/2/1 3/2/1
f 9/2/1 6/2/1 5/2/1
f 10/2/1 6/2/1 9/2/1
f 11/2/1 6/2/1 10/2/1
f 12/2/1 8/2/1 7/2/1
f 13/2/1 8/2/1 12/2/1
f 13/2/1 12/2/1 11/2/1
f 14/2/1 8/2/1 13/2/1
f 15/2/1 11/2/1 10/2/1
f 15/2/1 13/2/1 11/2/1
f 16/2/1 13/2/1 15/2/1
f 19/1/1 18/1/1 17/1/1
f 20/1/1 18/1/1 19/1/1
f 24/1/1 22/1/1 21/1/1
f 25/1/1 24/1/1 23/1/1
f 26/1/1 22/1/1 24/1/1
f 26/1/1 24/1/1 25/1/1
f 29/1/1 28/1/1 27/1/1
f 30/1/1 28/1/1 29/1/1
f 33/2/1 32/2/1 31/2/1
f 34/2/1 32/2/1 33/2/1
f 41/1/1 40/1/1 39/1/1
f 42/1/1 40/1/1 41/1/1
f 43/1/1 36/1/1 35/1/1
f 44/1/1 36/1/1 43/1/1
f 45/1/1 36/1/1 44/1/1
f 46/1/1 38/1/1 37/1/1
f 48/1/1 45/1/1 44/1/1
f 48/1/1 46/1/1 45/1/1
f 49/1/1 46/1/1 48/1/1
f 49/1/1 48/1/1 47/1/1
f 50/1/1 46/1/1 49/1/1
f 51/1/1 49/1/1 47/1/1
f 52/1/1 46/1/1 50/1/1
f 53/1/1 51/1/1 47/1/1
f 53/1/1 52/1/1 51/1/1
f 54/1/1 38/1/1 46/1/1
f 54/1/1 52/1/1 53/1/1
f 54/1/1 46/1/1 52/1/1
f 59/2/1 56/2/1 55/2/1
f 60/2/1 56/2/1 59/2/1
f 61/2/1 58/2/1 57/2/1
f 62/2/1 58/2/1 61/2/1
f 65/1/1 64/1/1 63/1/1
f 67/1/1 65/1/1 63/1/1
f 67/1/1 66/1/1 65/1/1
f 68/1/1 66/1/1 67/1/1
f 71/1/1 70/1/1 69/1/1
f 72/1/1 70/1/1 71/1/1
f 75/1/1 74/1/1 73/1/1
f 76/1/1 74/1/1 75/1/1
f 79/1/1 78/1/1 77/1/1
f 80/1/1 78/1/1 79/1/1
f 84/1/1 82/1/1 81/1/1
f 85/1/1 84/1/1 83/1/1
f 86/1/1 82/1/1 84/1/1
f 86/1/1 84/1/1 85/1/1
f 89/1/1 88/1/1 87/1/1
f 90/1/1 88/1/1 89/1/1
f 93/1/1 92/1/1 91/1/1
f 94/1/1 92/1/1 93/1/1
f 97/1/1 96/1/1 95/1/1
f 98/1/1 96/1/1 97/1/1
f 101/2/1 100/2/1 99/2/1
f 103/2/1 101/2/1 99/2/1
f 103/2/1 102/2/1 101/2/1
f 104/2/1 102/2/1 103/2/1
f 107/1/1 106/1/1 105/1/1
f 108/1/1 106/1/1 107/1/1
f 111/2/1 110/2/1 109/2/1
f 112/2/1 110/2/1 111/2/1
f 113/2/2 114/2/2 115/2/2
f 115/2/2 114/2/2 116/2/2
f 117/1/2 118/1/2 119/1/2
f 119/1/2 118/1/2 120/1/2
f 121/1/2 122/1/2 123/1/2
f 123/1/2 122/1/2 124/1/2
f 125/1/2 126/1/2 127/1/2
f 127/1/2 126/1/2 128/1/2
f 129/1/2 130/1/2 131/1/2
f 131/1/2 130/1/2 132/1/2
f 133/1/2 134/1/2 135/1/2
f 135/1/2 134/1/2 136/1/2
f 137/1/2 138/1/2 139/1/2
f 139/1/2 138/1/2 140/1/2
f 143/1/2 144/1/2 145/1/2
f 145/1/2 144/1/2 146/1/2
f 141/1/2 142/1/2 147/1/2
f 147/1/2 142/1/2 148/1/2
f 149/1/2 150/1/2 151/1/2
f 149/1/2 151/1/2 154/1/2
f 151/1/2 152/1/2 154/1/2
f 154/1/2 152/1/2 155/1/2
f 153/1/2 154/1/2 155/1/2
f 155/1/2 152/1/2 156/1/2
f 153/1/2 155/1/2 157/1/2
f 157/1/2 155/1/2 158/1/2
f 153/1/2 157/1/2 159/1/2
f 158/1/2 155/1/2 160/1/2
f 153/1/2 159/1/2 161/1/2
f 159/1/2 160/1/2 161/1/2
f 160/1/2 155/1/2 162/1/2
f 161/1/2 160/1/2 162/1/2
f 163/2/2 164/2/2 165/2/2
f 165/2/2 164/2/2 166/2/2
f 167/1/2 168/1/2 169/1/2
f 167/1/2 169/1/2 171/1/2
f 169/1/2 170/1/2 171/1/2
f 171/1/2 170/1/2 172/1/2
f 173/2/2 174/2/2 175/2/2
f 175/2/2 174/2/2 176/2/2
f 177/1/2 178/1/2 179/1/2
f 179/1/2 178/1/2 180/1/2
f 181/1/2 182/1/2 183/1/2
f 183/1/2 182/1/2 184/1/2
f 185/1/2 186/1/2 187/1/2
f 187/1/2 186/1/2 188/1/2
f 189/2/2 190/2/2 191/2/2
f 189/2/2 191/2/2 193/2/2
f 191/2/2 192/2/2 193/2/2
f 193/2/2 192/2/2 194/2/2
f 189/2/2 193/2/2 195/2/2
f 195/2/2 193/2/2 196/2/2
f 196/2/2 193/2/2 197/2/2
f 196/2/2 197/2/2 199/2/2
f 197/2/2 198/2/2 199/2/2
f 199/2/2 198/2/2 200/2/2
f 201/2/2 202/2/2 203/2/2
f 203/2/2 202/2/2 204/2/2
f 205/2/2 206/2/2 207/2/2
f 207/2/2 206/2/2 208/2/2
f 211/2/3 210/2/3 209/2/3
f 212/2/3 210/2/3 211/2/3
f 215/2/3 214/2/3 213/2/3
f 217/2/3 215/2/3 213/2/3
f 217/2/3 216/2/3 215/2/3
f 218/2/3 216/2/3 217/2/3
f 219/2/3 217/2/3 213/2/3
f 220/2/3 217/2/3 219/2/3
f 223/1/3 222/1/3 221/1/3
f 224/1/3 222/1/3 223/1/3
f 227/2/3 226/2/3 225/2/3
f 228/2/3 226/2/3 227/2/3
f 232/1/3 230/1/3 229/1/3
f 233/1/3 232/1/3 231/1/3
f 234/1/3 230/1/3 232/1/3
f 234/1/3 232/1/3 233/1/3
f 237/2/3 236/2/3 235/2/3
f 238/2/3 236/2/3 237/2/3
f 239/2/3 237/2/3 235/2/3
f 240/2/3 237/2/3 239/2/3
f 243/1/3 242/1/3 241/1/3
f 244/1/3 242/1/3 243/1/3
f 249/1/3 246/1/3 245/1/3
f 250/1/3 248/1/3 247/1/3
f 251/1/3 249/1/3 245/1/3
f 251/1/3 250/1/3 249/1/3
f 252/1/3 250/1/3 251/1/3
f 253/1/3 248/1/3 250/1/3
f 253/1/3 250/1/3 252/1/3
f 254/1/3 248/1/3 253/1/3
f 255/1/3 253/1/3 252/1/3
f 257/1/3 255/1/3 252/1/3
f 257/1/3 256/1/3 255/1/3
f 258/1/3 256/1/3 257/1/3
f 261/1/3 260/1/3 259/1/3
f 262/1/3 260/1/3 261/1/3
f 267/1/3 264/1/3 263/1/3
f 268/1/3 264/1/3 267/1/3
f 269/1/3 266/1/3 265/1/3
f 270/1/3 266/1/3 269/1/3
f 273/1/3 269/1/3 265/1/3
f 274/1/3 269/1/3 273/1/3
f 275/1/3 272/1/3 271/1/3
f 276/1/3 272/1/3 275/1/3
f 280/1/3 278/1/3 277/1/3
f 281/1/3 280/1/3 279/1/3
f 282/1/3 278/1/3 280/1/3
f 282/1/3 280/1/3 281/1/3
f 285/1/3 284/1/3 283/1/3
f 287/1/3 285/1/3 283/1/3
f 287/1/3 286/1/3 285/1/3
f 288/1/3 286/1/3 287/1/3
f 291/1/3 290/1/3 289/1/3
f 292/1/3 290/1/3 291/1/3
f 295/2/3 294/2/3 293/2/3
f 296/2/3 294/2/3 295/2/3
f 299/1/3 298/1/3 297/1/3
f 300/1/3 298/1/3 299/1/3
f 301/2/4 302/2/4 304/2/4
f 303/2/4 304/2/4 305/2/4
f 304/2/4 302/2/4 306/2/4
f 305/2/4 304/2/4 306/2/4
f 307/1/4 308/1/4 309/1/4
f 309/1/4 308/1/4 310/1/4
f 311/1/4 312/1/4 313/1/4
f 313/1/4 312/1/4 314/1/4
f 311/1/4 313/1/4 315/1/4
f 315/1/4 313/1/4 316/1/4
f 317/1/4 318/1/4 319/1/4
f 319/1/4 318/1/4 320/1/4
f 320/1/4 318/1/4 321/1/4
f 322/1/4 323/1/4 324/1/4
f 324/1/4 323/1/4 325/1/4
f 326/1/4 327/1/4 330/1/4
f 328/1/4 329/1/4 332/1/4
f 332/1/4 329/1/4 333/1/4
f 330/1/4 331/1/4 334/1/4
f 326/1/4 330/1/4 334/1/4
f 334/1/4 331/1/4 335/1/4
f 336/1/4 337/1/4 338/1/4
f 338/1/4 337/1/4 339/1/4
f 340/1/4 341/1/4 342/1/4
f 342/1/4 341/1/4 343/1/4
f 344/2/4 345/2/4 346/2/4
f 346/2/4 345/2/4 347/2/4
f 344/2/4 346/2/4 348/2/4
f 348/2/4 346/2/4 349/2/4
f 350/1/4 351/1/4 352/1/4
f 352/1/4 351/1/4 353/1/4
f 353/1/4 351/1/4 354/1/4
f 354/1/4 351/1/4 355/1/4
f 353/1/4 354/1/4 357/1/4
f 357/1/4 354/1/4 358/1/4
f 356/1/4 357/1/4 360/1/4
f 358/1/4 359/1/4 360/1/4
f 357/1/4 358/1/4 360/1/4
f 360/1/4 359/1/4 361/1/4
f 356/1/4 360/1/4 362/1/4
f 362/1/4 360/1/4 363/1/4
f 363/1/4 360/1/4 364/1/4
f 365/1/4 366/1/4 367/1/4
f 367/1/4 366/1/4 368/1/4
f 369/1/4 370/1/4 373/1/4
f 373/1/4 370/1/4 374/1/4
f 371/2/4 372/2/4 375/2/4
f 375/2/4 372/2/4 376/2/4
f 377/1/4 378/1/4 380/1/4
f 379/1/4 380/1/4 381/1/4
f 380/1/4 378/1/4 382/1/4
f 381/1/4 380/1/4 382/1/4
f 383/2/4 384/2/4 385/2/4
f 385/2/4 384/2/4 386/2/4
f 387/1/4 388/1/4 389/1/4
f 389/1/4 388/1/4 390/1/4
f 391/2/4 392/2/4 393/2/4
f 391/2/4 393/2/4 395/2/4
f 393/2/4 394/2/4 395/2/4
f 395/2/4 394/2/4 396/2/4
f 391/2/4 395/2/4 397/2/4
f 396/2/4 394/2/4 398/2/4
f 391/2/4 397/2/4 399/2/4
f 397/2/4 398/2/4 399/2/4
f 399/2/4 398/2/4 400/2/4
f 400/2/4 398/2/4 401/2/4
f 398/2/4 394/2/4 402/2/4
f 401/2/4 398/2/4 402/2/4
f 400/2/4 401/2/4 403/2/4
f 403/2/4 401/2/4 404/2/4
f 402/2/4 394/2/4 405/2/4
f 405/2/4 394/2/4 406/2/4
f 407/2/4 408/2/4 409/2/4
f 409/2/4 408/2/4 410/2/4
f 411/2/4 412/2/4 413/2/4
f 413/2/4 412/2/4 414/2/4
f 417/1/5 416/1/5 415/1/5
f 419/1/5 417/1/5 415/1/5
f 419/1/5 418/1/5 417/1/5
f 420/1/5 418/1/5 419/1/5
f 422/1/5 418/1/5 420/1/5
f 423/1/5 418/1/5 422/1/5
f 427/1/5 426/1/5 425/1/5
f 428/1/5 422/1/5 421/1/5
f 428/1/5 423/1/5 422/1/5
f 428/1/5 424/1/5 423/1/5
f 429/1/5 424/1/5 428/1/5
f 430/1/5 424/1/5 429/1/5
f 431/1/5 427/1/5 425/1/5
f 431/1/5 428/1/5 427/1/5
f 431/1/5 429/1/5 428/1/5
f 432/1/5 429/1/5 431/1/5
f 433/1/5 424/1/5 430/1/5
f 434/1/5 424/1/5 433/1/5
f 435/1/5 429/1/5 432/1/5
f 436/1/5 429/1/5 435/1/5
f 437/1/5 429/1/5 436/1/5
f 439/1/5 438/1/5 437/1/5
f 439/1/5 437/1/5 436/1/5
f 440/1/5 438/1/5 439/1/5
f 441/1/5 438/1/5 440/1/5
f 442/1/5 438/1/5 441/1/5
f 444/1/5 441/1/5 440/1/5
f 445/1/5 438/1/5 442/1/5
f 446/1/5 438/1/5 445/1/5
f 447/1/5 444/1/5 443/1/5
f 447/1/5 441/1/5 444/1/5
f 448/1/5 441/1/5 447/1/5
f 449/1/5 447/1/5 443/1/5
f 450/1/5 447/1/5 449/1/5
f 453/1/5 452/1/5 451/1/5
f 454/1/5 452/1/5 453/1/5
f 457/1/5 456/1/5 455/1/5
f 458/1/5 456/1/5 457/1/5
f 463/1/5 462/1/5 461/1/5
f 464/1/5 462/1/5 463/1/5
f 465/2/5 460/2/5 459/2/5
f 466/2/5 460/2/5 465/2/5
f 469/1/5 468/1/5 467/1/5
f 470/1/5 468/1/5 469/1/5
f 473/1/5 472/1/5 471/1/5
f 474/1/5 472/1/5 473/1/5
f 477/2/5 476/2/5 475/2/5
f 478/2/5 476/2/5 477/2/5
f 479/2/5 476/2/5 478/2/5
f 480/2/5 476/2/5 479/2/5
f 481/2/5 479/2/5 478/2/5
f 482/2/5 479/2/5 481/2/5
f 483/2/5 476/2/5 480/2/5
f 484/2/5 476/2/5 483/2/5
f 485/2/5 481/2/5 478/2/5
f 486/2/5 481/2/5 485/2/5
f 487/2/5 485/2/5 478/2/5
f 488/2/5 481/2/5 486/2/5
f 489/2/5 476/2/5 484/2/5
f 490/2/5 476/2/5 489/2/5
f 491/2/5 489/2/5 484/2/5
f 492/2/5 476/2/5 490/2/5
f 494/2/5 491/2/5 484/2/5
f 494/2/5 492/2/5 491/2/5
f 496/2/5 488/2/5 487/2/5
f 496/2/5 487/2/5 478/2/5
f 497/2/5 481/2/5 488/2/5
f 497/2/5 488/2/5 496/2/5
f 500/2/5 494/2/5 493/2/5
f 501/2/5 498/2/5 497/2/5
f 501/2/5 496/2/5 495/2/5
f 501/2/5 497/2/5 496/2/5
f 502/2/5 500/2/5 499/2/5
f 503/2/5 492/2/5 494/2/5
f 503/2/5 494/2/5 500/2/5
f 503/2/5 500/2/5 502/2/5
f 504/2/5 476/2/5 492/2/5
f 504/2/5 492/2/5 503/2/5
f 505/2/5 501/2/5 495/2/5
f 505/2/5 502/2/5 501/2/5
f 505/2/5 503/2/5 502/2/5
f 506/2/5 503/2/5 505/2/5
f 511/2/5 508/2/5 507/2/5
f 512/2/5 508/2/5 511/2/5
f 513/2/5 510/2/5 509/2/5
f 514/2/5 510/2/5 513/2/5
f 518/2/5 516/2/5 515/2/5
f 519/2/5 518/2/5 517/2/5
f 520/2/5 516/2/5 518/2/5
f 520/2/5 518/2/5 519/2/5
f 523/2/5 522/2/5 521/2/5
f 524/2/5 522/2/5 523/2/5
f 525/2/5 522/2/5 524/2/5
f 526/2/5 522/2/5 525/2/5
f 527/1/6 528/1/6 529/1/6
f 527/1/6 529/1/6 531/1/6
f 529/1/6 530/1/6 531/1/6
f 531/1/6 530/1/6 532/1/6
f 533/1/6 534/1/6 535/1/6
f 535/1/6 534/1/6 536/1/6
f 533/1/6 535/1/6 537/1/6
f 537/1/6 535/1/6 538/1/6
f 539/1/6 540/1/6 541/1/6
f 541/1/6 540/1/6 542/1/6
f 542/1/6 540/1/6 543/1/6
f 544/1/6 545/1/6 546/1/6
f 546/1/6 545/1/6 547/1/6
f 548/1/6 549/1/6 550/1/6
f 550/1/6 549/1/6 551/1/6
f 552/1/6 553/1/6 554/1/6
f 554/1/6 553/1/6 555/1/6
f 552/1/6 554/1/6 556/1/6
f 556/1/6 554/1/6 557/1/6
f 558/1/6 559/1/6 560/1/6
f 560/1/6 559/1/6 561/1/6
f 561/1/6 559/1/6 562/1/6
f 563/1/6 564/1/6 565/1/6
f 565/1/6 564/1/6 566/1/6
f 566/1/6 564/1/6 567/1/6
f 567/1/6 564/1/6 568/1/6
f 569/1/6 570/1/6 571/1/6
f 571/1/6 570/1/6 572/1/6
f 573/1/6 574/1/6 575/1/6
f 575/1/6 574/1/6 576/1/6
f 577/1/6 578/1/6 579/1/6
f 579/1/6 578/1/6 580/1/6
f 581/1/6 582/1/6 583/1/6
f 583/1/6 582/1/6 584/1/6
f 585/2/6 586/2/6 587/2/6
f 587/2/6 586/2/6 588/2/6
f 589/2/6 590/2/6 591/2/6
f 591/2/6 590/2/6 592/2/6
f 593/2/6 594/2/6 595/2/6
f 595/2/6 594/2/6 596/2/6
f 597/2/6 598/2/6 599/2/6
f 599/2/6 598/2/6 600/2/6
f 601/2/6 602/2/6 604/2/6
f 603/2/6 604/2/6 605/2/6
f 604/2/6 602/2/6 606/2/6
f 605/2/6 604/2/6 606/2/6
f 607/2/6 608/2/6 610/2/6
f 610/2/6 608/2/6 611/2/6
f 609/2/6 610/2/6 611/2/6
f 609/2/6 611/2/6 613/2/6
f 611/2/6 612/2/6 613/2/6
f 613/2/6 612/2/6 614/2/6
f 614/2/6 612/2/6 615/2/6
f 615/2/6 612/2/6 616/2/6
f 617/2/6 618/2/6 619/2/6
f 619/2/6 618/2/6 620/2/6
