# MagicaVoxel @ Ephtracy

# group
o 

# material
mtllib Nature_Tree_02.mtl
usemtl palette

# normals
vn -1 0 0
vn 1 0 0
vn 0 0 1
vn 0 0 -1
vn 0 -1 0
vn 0 1 0

# texcoords
vt 0.310547 0.5
vt 0.505859 0.5

# verts
v -0.6 1.4 -0.1
v -0.6 1.4 -0.5
v -0.6 2.1 -0.1
v -0.6 2.1 -0.5
v -0.4 1.5 0.6
v -0.4 1.5 -0.1
v -0.4 2.1 -0.1
v -0.4 2.1 -0.3
v -0.4 2.4 0.6
v -0.4 2.4 0.2
v -0.4 2.9 0.2
v -0.4 2.9 -0.3
v -0.3 0 0.4
v -0.3 0 0.2
v -0.3 0.2 0.4
v -0.3 0.2 0.2
v -0.2 0 0
v -0.2 0 -0.2
v -0.2 0.3 0
v -0.2 0.3 -0.2
v -0.2 1.6 0.7
v -0.2 1.6 0.6
v -0.2 1.9 0.7
v -0.2 1.9 0.6
v -0.2 2.5 -0.3
v -0.2 2.5 -0.4
v -0.2 2.8 -0.3
v -0.2 2.8 -0.4
v -0.1 0 0.2
v -0.1 0 0
v -0.1 0.2 0.3
v -0.1 0.2 0.2
v -0.1 0.3 0
v -0.1 0.8 0.3
v -0.1 0.8 0.2
v -0.1 1.5 0.2
v -0.1 1.5 0
v -0.1 2.4 0.6
v -0.1 2.4 0.2
v -0.1 2.9 0.6
v -0.1 2.9 0.2
v 0 0.8 0.3
v 0 0.8 0.2
v 0 1.5 0.3
v 0 1.5 0.2
v 0.2 0 0.4
v 0.2 0 0.3
v 0.2 0 0
v 0.2 0 -0.1
v 0.2 0.1 0.4
v 0.2 0.1 0.3
v 0.2 0.4 0
v 0.2 0.4 -0.1
v 0.2 2.9 0.1
v 0.2 2.9 -0.2
v 0.2 3.1 0.1
v 0.2 3.1 -0.2
v 0.3 1.4 0.2
v 0.3 1.4 0.1
v 0.3 1.5 0.2
v 0.3 1.5 0.1
v 0.4 1.8 0.8
v 0.4 1.8 0.6
v 0.4 2.6 0.8
v 0.4 2.6 0.6
v -0.2 1.4 -0.1
v -0.2 1.4 -0.5
v -0.2 1.5 -0.1
v -0.2 1.5 -0.3
v -0.2 2.1 -0.3
v -0.2 2.1 -0.5
v 0 0 0.4
v 0 0 0.3
v 0 0 0
v 0 0 -0.2
v 0 0.2 0.4
v 0 0.2 0.3
v 0 0.3 0
v 0 0.3 -0.2
v 0 2.5 -0.3
v 0 2.5 -0.4
v 0 2.8 -0.3
v 0 2.8 -0.4
v 0.1 0.5 0.1
v 0.1 0.5 0
v 0.1 0.8 0.1
v 0.1 0.8 0
v 0.1 1.6 0.7
v 0.1 1.6 0.6
v 0.1 1.9 0.7
v 0.1 1.9 0.6
v 0.2 0 0.2
v 0.2 0 0.1
v 0.2 0.1 0.3
v 0.2 0.1 0.2
v 0.2 0.4 0.1
v 0.2 0.4 0
v 0.2 0.5 0.1
v 0.2 0.5 0
v 0.2 0.8 0.1
v 0.2 0.8 0
v 0.2 1.3 0.2
v 0.2 1.3 0.1
v 0.2 1.4 0.2
v 0.2 1.4 0.1
v 0.2 1.5 0.3
v 0.2 1.5 0
v 0.2 1.5 -0.1
v 0.2 1.5 -0.3
v 0.2 2 -0.1
v 0.2 2 -0.3
v 0.3 0 0.4
v 0.3 0 0.2
v 0.3 0 0.1
v 0.3 0 -0.1
v 0.3 0.1 0.4
v 0.3 0.1 0.2
v 0.3 0.4 0.1
v 0.3 0.4 -0.1
v 0.3 1.5 0.6
v 0.3 1.5 0.4
v 0.3 1.7 0.6
v 0.3 1.7 0.4
v 0.4 1.3 0.2
v 0.4 1.3 0.1
v 0.4 1.5 0.2
v 0.4 1.5 0.1
v 0.4 2.9 0.1
v 0.4 2.9 -0.2
v 0.4 3.1 0.1
v 0.4 3.1 -0.2
v 0.5 1.5 0.4
v 0.5 1.5 -0.1
v 0.5 1.7 0.6
v 0.5 1.7 0.4
v 0.5 1.8 0.6
v 0.5 1.8 0.3
v 0.5 2 -0.1
v 0.5 2 -0.3
v 0.5 2.6 0.6
v 0.5 2.6 0.3
v 0.5 2.9 0.6
v 0.5 2.9 -0.3
v 0.7 1.8 0.8
v 0.7 1.8 0.3
v 0.7 2.6 0.8
v 0.7 2.6 0.3
v 0.4 1.8 0.8
v 0.4 2.6 0.8
v 0.7 1.8 0.8
v 0.7 2.6 0.8
v -0.2 1.6 0.7
v -0.2 1.9 0.7
v 0.1 1.6 0.7
v 0.1 1.9 0.7
v -0.4 1.5 0.6
v -0.4 2.4 0.6
v -0.2 1.6 0.6
v -0.2 1.9 0.6
v -0.1 2.4 0.6
v -0.1 2.9 0.6
v 0.1 1.6 0.6
v 0.1 1.9 0.6
v 0.3 1.5 0.6
v 0.3 1.7 0.6
v 0.4 1.8 0.6
v 0.4 2.6 0.6
v 0.5 1.7 0.6
v 0.5 1.8 0.6
v 0.5 2.6 0.6
v 0.5 2.9 0.6
v -0.3 0 0.4
v -0.3 0.2 0.4
v 0 0 0.4
v 0 0.2 0.4
v 0.2 0 0.4
v 0.2 0.1 0.4
v 0.3 0 0.4
v 0.3 0.1 0.4
v 0.3 1.5 0.4
v 0.3 1.7 0.4
v 0.5 1.5 0.4
v 0.5 1.7 0.4
v -0.1 0.2 0.3
v -0.1 0.8 0.3
v 0 0 0.3
v 0 0.2 0.3
v 0 0.8 0.3
v 0 1.5 0.3
v 0.2 0 0.3
v 0.2 0.1 0.3
v 0.2 1.5 0.3
v -0.4 2.4 0.2
v -0.4 2.9 0.2
v -0.1 0.8 0.2
v -0.1 1.5 0.2
v -0.1 2.4 0.2
v -0.1 2.9 0.2
v 0 0.8 0.2
v 0 1.5 0.2
v 0.2 1.3 0.2
v 0.2 1.4 0.2
v 0.3 1.4 0.2
v 0.3 1.5 0.2
v 0.4 1.3 0.2
v 0.4 1.5 0.2
v 0.2 0 0.1
v 0.2 0.4 0.1
v 0.2 2.9 0.1
v 0.2 3.1 0.1
v 0.3 0 0.1
v 0.3 0.4 0.1
v 0.4 2.9 0.1
v 0.4 3.1 0.1
v -0.2 0 0
v -0.2 0.3 0
v -0.1 0 0
v -0.1 0.3 0
v -0.6 1.4 -0.1
v -0.6 2.1 -0.1
v -0.4 1.5 -0.1
v -0.4 2.1 -0.1
v -0.2 1.4 -0.1
v -0.2 1.5 -0.1
v 0.5 1.8 0.3
v 0.5 2.6 0.3
v 0.7 1.8 0.3
v 0.7 2.6 0.3
v -0.3 0 0.2
v -0.3 0.2 0.2
v -0.1 0 0.2
v -0.1 0.2 0.2
v 0.2 0 0.2
v 0.2 0.1 0.2
v 0.3 0 0.2
v 0.3 0.1 0.2
v 0.1 0.5 0.1
v 0.1 0.8 0.1
v 0.2 0.5 0.1
v 0.2 0.8 0.1
v 0.2 1.3 0.1
v 0.2 1.4 0.1
v 0.3 1.4 0.1
v 0.3 1.5 0.1
v 0.4 1.3 0.1
v 0.4 1.5 0.1
v -0.1 0.3 0
v -0.1 1.5 0
v 0 0 0
v 0 0.3 0
v 0.1 0.5 0
v 0.1 0.8 0
v 0.2 0 0
v 0.2 0.4 0
v 0.2 0.5 0
v 0.2 0.8 0
v 0.2 1.5 0
v 0.2 0 -0.1
v 0.2 0.4 -0.1
v 0.2 1.5 -0.1
v 0.2 2 -0.1
v 0.3 0 -0.1
v 0.3 0.4 -0.1
v 0.5 1.5 -0.1
v 0.5 2 -0.1
v -0.2 0 -0.2
v -0.2 0.3 -0.2
v 0 0 -0.2
v 0 0.3 -0.2
v 0.2 2.9 -0.2
v 0.2 3.1 -0.2
v 0.4 2.9 -0.2
v 0.4 3.1 -0.2
v -0.4 2.1 -0.3
v -0.4 2.9 -0.3
v -0.2 1.5 -0.3
v -0.2 2.1 -0.3
v -0.2 2.5 -0.3
v -0.2 2.8 -0.3
v 0 2.5 -0.3
v 0 2.8 -0.3
v 0.2 1.5 -0.3
v 0.2 2 -0.3
v 0.5 2 -0.3
v 0.5 2.9 -0.3
v -0.2 2.5 -0.4
v -0.2 2.8 -0.4
v 0 2.5 -0.4
v 0 2.8 -0.4
v -0.6 1.4 -0.5
v -0.6 2.1 -0.5
v -0.2 1.4 -0.5
v -0.2 2.1 -0.5
v -0.3 0 0.4
v 0 0 0.4
v 0.2 0 0.4
v 0.3 0 0.4
v 0 0 0.3
v 0.2 0 0.3
v -0.3 0 0.2
v -0.1 0 0.2
v 0.2 0 0.2
v 0.3 0 0.2
v 0.2 0 0.1
v 0.3 0 0.1
v -0.2 0 0
v -0.1 0 0
v 0 0 0
v 0.2 0 0
v 0.2 0 -0.1
v 0.3 0 -0.1
v -0.2 0 -0.2
v 0 0 -0.2
v 0.1 0.8 0.1
v 0.2 0.8 0.1
v 0.1 0.8 0
v 0.2 0.8 0
v 0.2 1.3 0.2
v 0.4 1.3 0.2
v 0.2 1.3 0.1
v 0.4 1.3 0.1
v -0.6 1.4 -0.1
v -0.2 1.4 -0.1
v -0.6 1.4 -0.5
v -0.2 1.4 -0.5
v -0.4 1.5 0.6
v 0.3 1.5 0.6
v 0.3 1.5 0.4
v 0.5 1.5 0.4
v 0 1.5 0.3
v 0.2 1.5 0.3
v -0.1 1.5 0.2
v 0 1.5 0.2
v 0.3 1.5 0.2
v 0.4 1.5 0.2
v 0.3 1.5 0.1
v 0.4 1.5 0.1
v -0.1 1.5 0
v 0.2 1.5 0
v -0.4 1.5 -0.1
v -0.2 1.5 -0.1
v 0.2 1.5 -0.1
v 0.5 1.5 -0.1
v -0.2 1.5 -0.3
v 0.2 1.5 -0.3
v -0.2 1.6 0.7
v 0.1 1.6 0.7
v -0.2 1.6 0.6
v 0.1 1.6 0.6
v 0.3 1.7 0.6
v 0.5 1.7 0.6
v 0.3 1.7 0.4
v 0.5 1.7 0.4
v 0.4 1.8 0.8
v 0.7 1.8 0.8
v 0.4 1.8 0.6
v 0.5 1.8 0.6
v 0.5 1.8 0.3
v 0.7 1.8 0.3
v 0.2 2 -0.1
v 0.5 2 -0.1
v 0.2 2 -0.3
v 0.5 2 -0.3
v -0.2 2.5 -0.3
v 0 2.5 -0.3
v -0.2 2.5 -0.4
v 0 2.5 -0.4
v 0.2 0.1 0.4
v 0.3 0.1 0.4
v 0.2 0.1 0.3
v 0.2 0.1 0.2
v 0.3 0.1 0.2
v -0.3 0.2 0.4
v 0 0.2 0.4
v -0.1 0.2 0.3
v 0 0.2 0.3
v -0.3 0.2 0.2
v -0.1 0.2 0.2
v -0.2 0.3 0
v -0.1 0.3 0
v 0 0.3 0
v -0.2 0.3 -0.2
v 0 0.3 -0.2
v 0.2 0.4 0.1
v 0.3 0.4 0.1
v 0.2 0.4 0
v 0.2 0.4 -0.1
v 0.3 0.4 -0.1
v 0.1 0.5 0.1
v 0.2 0.5 0.1
v 0.1 0.5 0
v 0.2 0.5 0
v -0.1 0.8 0.3
v 0 0.8 0.3
v -0.1 0.8 0.2
v 0 0.8 0.2
v 0.2 1.4 0.2
v 0.3 1.4 0.2
v 0.2 1.4 0.1
v 0.3 1.4 0.1
v -0.2 1.9 0.7
v 0.1 1.9 0.7
v -0.2 1.9 0.6
v 0.1 1.9 0.6
v -0.6 2.1 -0.1
v -0.4 2.1 -0.1
v -0.4 2.1 -0.3
v -0.2 2.1 -0.3
v -0.6 2.1 -0.5
v -0.2 2.1 -0.5
v -0.4 2.4 0.6
v -0.1 2.4 0.6
v -0.4 2.4 0.2
v -0.1 2.4 0.2
v 0.4 2.6 0.8
v 0.7 2.6 0.8
v 0.4 2.6 0.6
v 0.5 2.6 0.6
v 0.5 2.6 0.3
v 0.7 2.6 0.3
v -0.2 2.8 -0.3
v 0 2.8 -0.3
v -0.2 2.8 -0.4
v 0 2.8 -0.4
v -0.1 2.9 0.6
v 0.5 2.9 0.6
v -0.4 2.9 0.2
v -0.1 2.9 0.2
v 0.2 2.9 0.1
v 0.4 2.9 0.1
v 0.2 2.9 -0.2
v 0.4 2.9 -0.2
v -0.4 2.9 -0.3
v 0.5 2.9 -0.3
v 0.2 3.1 0.1
v 0.4 3.1 0.1
v 0.2 3.1 -0.2
v 0.4 3.1 -0.2

# faces
f 3/2/1 2/2/1 1/2/1
f 4/2/1 2/2/1 3/2/1
f 7/2/1 6/2/1 5/2/1
f 9/2/1 7/2/1 5/2/1
f 9/2/1 8/2/1 7/2/1
f 10/2/1 8/2/1 9/2/1
f 11/2/1 8/2/1 10/2/1
f 12/2/1 8/2/1 11/2/1
f 15/1/1 14/1/1 13/1/1
f 16/1/1 14/1/1 15/1/1
f 19/1/1 18/1/1 17/1/1
f 20/1/1 18/1/1 19/1/1
f 23/2/1 22/2/1 21/2/1
f 24/2/1 22/2/1 23/2/1
f 27/2/1 26/2/1 25/2/1
f 28/2/1 26/2/1 27/2/1
f 32/1/1 30/1/1 29/1/1
f 33/1/1 30/1/1 32/1/1
f 33/1/1 32/1/1 31/1/1
f 34/1/1 33/1/1 31/1/1
f 35/1/1 33/1/1 34/1/1
f 36/1/1 33/1/1 35/1/1
f 37/1/1 33/1/1 36/1/1
f 40/2/1 39/2/1 38/2/1
f 41/2/1 39/2/1 40/2/1
f 44/1/1 43/1/1 42/1/1
f 45/1/1 43/1/1 44/1/1
f 50/1/1 47/1/1 46/1/1
f 51/1/1 47/1/1 50/1/1
f 52/1/1 49/1/1 48/1/1
f 53/1/1 49/1/1 52/1/1
f 56/2/1 55/2/1 54/2/1
f 57/2/1 55/2/1 56/2/1
f 60/1/1 59/1/1 58/1/1
f 61/1/1 59/1/1 60/1/1
f 64/2/1 63/2/1 62/2/1
f 65/2/1 63/2/1 64/2/1
f 66/2/2 67/2/2 68/2/2
f 68/2/2 67/2/2 69/2/2
f 69/2/2 67/2/2 70/2/2
f 70/2/2 67/2/2 71/2/2
f 72/1/2 73/1/2 76/1/2
f 76/1/2 73/1/2 77/1/2
f 74/1/2 75/1/2 78/1/2
f 78/1/2 75/1/2 79/1/2
f 80/2/2 81/2/2 82/2/2
f 82/2/2 81/2/2 83/2/2
f 84/1/2 85/1/2 86/1/2
f 86/1/2 85/1/2 87/1/2
f 88/2/2 89/2/2 90/2/2
f 90/2/2 89/2/2 91/2/2
f 92/1/2 93/1/2 95/1/2
f 95/1/2 93/1/2 96/1/2
f 94/1/2 95/1/2 96/1/2
f 94/1/2 96/1/2 98/1/2
f 96/1/2 97/1/2 98/1/2
f 98/1/2 97/1/2 99/1/2
f 94/1/2 98/1/2 100/1/2
f 94/1/2 100/1/2 102/1/2
f 100/1/2 101/1/2 102/1/2
f 102/1/2 101/1/2 103/1/2
f 94/1/2 102/1/2 104/1/2
f 103/1/2 101/1/2 105/1/2
f 94/1/2 104/1/2 106/1/2
f 104/1/2 105/1/2 106/1/2
f 105/1/2 101/1/2 107/1/2
f 106/1/2 105/1/2 107/1/2
f 108/2/2 109/2/2 110/2/2
f 110/2/2 109/2/2 111/2/2
f 112/1/2 113/1/2 116/1/2
f 116/1/2 113/1/2 117/1/2
f 114/1/2 115/1/2 118/1/2
f 118/1/2 115/1/2 119/1/2
f 120/2/2 121/2/2 122/2/2
f 122/2/2 121/2/2 123/2/2
f 124/1/2 125/1/2 126/1/2
f 126/1/2 125/1/2 127/1/2
f 128/2/2 129/2/2 130/2/2
f 130/2/2 129/2/2 131/2/2
f 132/2/2 133/2/2 135/2/2
f 134/2/2 135/2/2 136/2/2
f 135/2/2 133/2/2 137/2/2
f 136/2/2 135/2/2 137/2/2
f 137/2/2 133/2/2 138/2/2
f 137/2/2 138/2/2 141/2/2
f 138/2/2 139/2/2 141/2/2
f 140/2/2 141/2/2 142/2/2
f 141/2/2 139/2/2 143/2/2
f 142/2/2 141/2/2 143/2/2
f 144/2/2 145/2/2 146/2/2
f 146/2/2 145/2/2 147/2/2
f 150/2/3 149/2/3 148/2/3
f 151/2/3 149/2/3 150/2/3
f 154/2/3 153/2/3 152/2/3
f 155/2/3 153/2/3 154/2/3
f 158/2/3 157/2/3 156/2/3
f 159/2/3 157/2/3 158/2/3
f 160/2/3 157/2/3 159/2/3
f 162/2/3 158/2/3 156/2/3
f 163/2/3 161/2/3 160/2/3
f 163/2/3 160/2/3 159/2/3
f 164/2/3 162/2/3 156/2/3
f 164/2/3 163/2/3 162/2/3
f 165/2/3 163/2/3 164/2/3
f 166/2/3 163/2/3 165/2/3
f 167/2/3 161/2/3 163/2/3
f 167/2/3 163/2/3 166/2/3
f 168/2/3 166/2/3 165/2/3
f 169/2/3 166/2/3 168/2/3
f 170/2/3 161/2/3 167/2/3
f 171/2/3 161/2/3 170/2/3
f 174/1/3 173/1/3 172/1/3
f 175/1/3 173/1/3 174/1/3
f 178/1/3 177/1/3 176/1/3
f 179/1/3 177/1/3 178/1/3
f 182/2/3 181/2/3 180/2/3
f 183/2/3 181/2/3 182/2/3
f 187/1/3 185/1/3 184/1/3
f 188/1/3 185/1/3 187/1/3
f 190/1/3 187/1/3 186/1/3
f 190/1/3 189/1/3 188/1/3
f 190/1/3 188/1/3 187/1/3
f 191/1/3 189/1/3 190/1/3
f 192/1/3 189/1/3 191/1/3
f 197/2/3 194/2/3 193/2/3
f 198/2/3 194/2/3 197/2/3
f 199/1/3 196/1/3 195/1/3
f 200/1/3 196/1/3 199/1/3
f 203/1/3 202/1/3 201/1/3
f 205/1/3 203/1/3 201/1/3
f 205/1/3 204/1/3 203/1/3
f 206/1/3 204/1/3 205/1/3
f 211/1/3 208/1/3 207/1/3
f 212/1/3 208/1/3 211/1/3
f 213/2/3 210/2/3 209/2/3
f 214/2/3 210/2/3 213/2/3
f 217/1/3 216/1/3 215/1/3
f 218/1/3 216/1/3 217/1/3
f 221/2/3 220/2/3 219/2/3
f 222/2/3 220/2/3 221/2/3
f 223/2/3 221/2/3 219/2/3
f 224/2/3 221/2/3 223/2/3
f 225/2/4 226/2/4 227/2/4
f 227/2/4 226/2/4 228/2/4
f 229/1/4 230/1/4 231/1/4
f 231/1/4 230/1/4 232/1/4
f 233/1/4 234/1/4 235/1/4
f 235/1/4 234/1/4 236/1/4
f 237/1/4 238/1/4 239/1/4
f 239/1/4 238/1/4 240/1/4
f 241/1/4 242/1/4 243/1/4
f 241/1/4 243/1/4 245/1/4
f 243/1/4 244/1/4 245/1/4
f 245/1/4 244/1/4 246/1/4
f 247/1/4 248/1/4 250/1/4
f 250/1/4 248/1/4 251/1/4
f 249/1/4 250/1/4 251/1/4
f 251/1/4 248/1/4 252/1/4
f 249/1/4 251/1/4 253/1/4
f 253/1/4 251/1/4 254/1/4
f 254/1/4 251/1/4 255/1/4
f 252/1/4 248/1/4 256/1/4
f 256/1/4 248/1/4 257/1/4
f 258/1/4 259/1/4 262/1/4
f 262/1/4 259/1/4 263/1/4
f 260/2/4 261/2/4 264/2/4
f 264/2/4 261/2/4 265/2/4
f 266/1/4 267/1/4 268/1/4
f 268/1/4 267/1/4 269/1/4
f 270/2/4 271/2/4 272/2/4
f 272/2/4 271/2/4 273/2/4
f 274/2/4 275/2/4 277/2/4
f 277/2/4 275/2/4 278/2/4
f 278/2/4 275/2/4 279/2/4
f 276/2/4 277/2/4 280/2/4
f 277/2/4 278/2/4 280/2/4
f 279/2/4 275/2/4 281/2/4
f 276/2/4 280/2/4 282/2/4
f 280/2/4 281/2/4 282/2/4
f 282/2/4 281/2/4 283/2/4
f 283/2/4 281/2/4 284/2/4
f 281/2/4 275/2/4 285/2/4
f 284/2/4 281/2/4 285/2/4
f 286/2/4 287/2/4 288/2/4
f 288/2/4 287/2/4 289/2/4
f 290/2/4 291/2/4 292/2/4
f 292/2/4 291/2/4 293/2/4
f 298/1/5 295/1/5 294/1/5
f 299/1/5 297/1/5 296/1/5
f 300/1/5 298/1/5 294/1/5
f 300/1/5 299/1/5 298/1/5
f 301/1/5 299/1/5 300/1/5
f 302/1/5 297/1/5 299/1/5
f 302/1/5 299/1/5 301/1/5
f 303/1/5 297/1/5 302/1/5
f 304/1/5 302/1/5 301/1/5
f 307/1/5 304/1/5 301/1/5
f 307/1/5 305/1/5 304/1/5
f 308/1/5 305/1/5 307/1/5
f 309/1/5 305/1/5 308/1/5
f 310/1/5 305/1/5 309/1/5
f 311/1/5 305/1/5 310/1/5
f 312/1/5 307/1/5 306/1/5
f 312/1/5 308/1/5 307/1/5
f 313/1/5 308/1/5 312/1/5
f 316/1/5 315/1/5 314/1/5
f 317/1/5 315/1/5 316/1/5
f 320/1/5 319/1/5 318/1/5
f 321/1/5 319/1/5 320/1/5
f 324/2/5 323/2/5 322/2/5
f 325/2/5 323/2/5 324/2/5
f 328/2/5 327/2/5 326/2/5
f 330/2/5 328/2/5 326/2/5
f 330/2/5 329/2/5 328/2/5
f 331/2/5 329/2/5 330/2/5
f 332/2/5 330/2/5 326/2/5
f 333/2/5 330/2/5 332/2/5
f 334/2/5 329/2/5 331/2/5
f 335/2/5 329/2/5 334/2/5
f 336/2/5 334/2/5 331/2/5
f 337/2/5 329/2/5 335/2/5
f 338/2/5 332/2/5 326/2/5
f 339/2/5 336/2/5 331/2/5
f 339/2/5 337/2/5 336/2/5
f 340/2/5 338/2/5 326/2/5
f 340/2/5 339/2/5 338/2/5
f 341/2/5 339/2/5 340/2/5
f 342/2/5 337/2/5 339/2/5
f 342/2/5 339/2/5 341/2/5
f 343/2/5 329/2/5 337/2/5
f 343/2/5 337/2/5 342/2/5
f 344/2/5 342/2/5 341/2/5
f 345/2/5 342/2/5 344/2/5
f 348/2/5 347/2/5 346/2/5
f 349/2/5 347/2/5 348/2/5
f 352/2/5 351/2/5 350/2/5
f 353/2/5 351/2/5 352/2/5
f 356/2/5 355/2/5 354/2/5
f 357/2/5 355/2/5 356/2/5
f 358/2/5 355/2/5 357/2/5
f 359/2/5 355/2/5 358/2/5
f 362/2/5 361/2/5 360/2/5
f 363/2/5 361/2/5 362/2/5
f 366/2/5 365/2/5 364/2/5
f 367/2/5 365/2/5 366/2/5
f 368/1/6 369/1/6 370/1/6
f 370/1/6 369/1/6 371/1/6
f 371/1/6 369/1/6 372/1/6
f 373/1/6 374/1/6 375/1/6
f 375/1/6 374/1/6 376/1/6
f 373/1/6 375/1/6 377/1/6
f 377/1/6 375/1/6 378/1/6
f 379/1/6 380/1/6 382/1/6
f 380/1/6 381/1/6 382/1/6
f 382/1/6 381/1/6 383/1/6
f 384/1/6 385/1/6 386/1/6
f 386/1/6 385/1/6 387/1/6
f 387/1/6 385/1/6 388/1/6
f 389/1/6 390/1/6 391/1/6
f 391/1/6 390/1/6 392/1/6
f 393/1/6 394/1/6 395/1/6
f 395/1/6 394/1/6 396/1/6
f 397/1/6 398/1/6 399/1/6
f 399/1/6 398/1/6 400/1/6
f 401/2/6 402/2/6 403/2/6
f 403/2/6 402/2/6 404/2/6
f 405/2/6 406/2/6 407/2/6
f 405/2/6 407/2/6 409/2/6
f 407/2/6 408/2/6 409/2/6
f 409/2/6 408/2/6 410/2/6
f 411/2/6 412/2/6 413/2/6
f 413/2/6 412/2/6 414/2/6
f 415/2/6 416/2/6 417/2/6
f 417/2/6 416/2/6 418/2/6
f 418/2/6 416/2/6 419/2/6
f 419/2/6 416/2/6 420/2/6
f 421/2/6 422/2/6 423/2/6
f 423/2/6 422/2/6 424/2/6
f 425/2/6 426/2/6 428/2/6
f 428/2/6 426/2/6 429/2/6
f 427/2/6 428/2/6 429/2/6
f 429/2/6 426/2/6 430/2/6
f 427/2/6 429/2/6 431/2/6
f 430/2/6 426/2/6 432/2/6
f 427/2/6 431/2/6 433/2/6
f 431/2/6 432/2/6 433/2/6
f 432/2/6 426/2/6 434/2/6
f 433/2/6 432/2/6 434/2/6
f 435/2/6 436/2/6 437/2/6
f 437/2/6 436/2/6 438/2/6
